<?xml version="1.0" encoding="utf-8"?>
<!-- Generator: Adobe Illustrator 19.1.0, SVG Export Plug-In . SVG Version: 6.00 Build 0)  -->
<svg version="1.1" id="Layer_1" xmlns="http://www.w3.org/2000/svg" xmlns:xlink="http://www.w3.org/1999/xlink" x="0px" y="0px"
	 viewBox="0 0 1800 1200" style="enable-background:new 0 0 1800 1200;" xml:space="preserve">
<style type="text/css">
	.st0{fill:none;}
	.st1{fill:#A21D2A;}
</style>
<g id="วิศว_xE2F__จุฬา_xE2F__Standard">
	<rect id="Exclusive_area" x="-7.6" y="434.8" class="st0" width="1815" height="333"/>
	<g>
		<g>
			<g>
				<path d="M426.2,658.7l0,14.5l6.7,0c0.8,0,1.4-0.1,2-0.2c0.6-0.2,1-0.4,1.4-0.8c0.4-0.4,0.7-0.9,0.9-1.6c0.2-0.7,0.4-1.5,0.5-2.5
					l1,0l0,12.5l-1,0c0-0.9-0.1-1.7-0.3-2.4c-0.2-0.7-0.4-1.2-0.8-1.6c-0.4-0.4-0.8-0.7-1.5-0.9c-0.6-0.2-1.4-0.3-2.3-0.3l-6.7,0
					l0,11.6c0,0.9,0,1.6,0.1,2.1c0,0.5,0.1,1,0.2,1.3c0.1,0.3,0.3,0.6,0.4,0.8c0.2,0.2,0.5,0.4,0.8,0.6c0.8,0.4,1.6,0.6,2.5,0.6
					l1.3,0v1l-15.9,0v-1l1.3,0c1.5,0,2.7-0.4,3.3-1.3c0.4-0.6,0.7-2,0.7-4.2l-0.1-23.9c0-0.9,0-1.6-0.1-2.1c0-0.5-0.1-1-0.2-1.3
					c-0.1-0.4-0.3-0.6-0.4-0.8c-0.2-0.2-0.4-0.4-0.8-0.6c-0.8-0.4-1.6-0.6-2.5-0.6h-1.3l0-1l27.5-0.1l0,8.1h-0.6
					c-0.4-1.3-0.8-2.4-1.2-3.2c-0.4-0.8-1-1.4-1.6-1.9c-0.6-0.4-1.4-0.7-2.3-0.9c-0.9-0.1-1.9-0.2-3.1-0.2L426.2,658.7z"/>
				<path d="M471,667.9c1.8,0,3.4,0.3,4.9,1c1.5,0.7,2.7,1.6,3.8,2.8c1.1,1.2,1.9,2.5,2.5,4.1c0.6,1.5,0.9,3.2,0.9,4.9
					c0,1.8-0.3,3.5-0.9,5.2c-0.6,1.6-1.5,3.1-2.5,4.4c-1.1,1.3-2.4,2.3-3.9,3c-1.5,0.8-3.2,1.1-5,1.1c-1.8,0-3.4-0.4-4.8-1.1
					c-1.5-0.7-2.7-1.7-3.7-2.9c-1-1.2-1.8-2.6-2.4-4.2c-0.6-1.6-0.8-3.2-0.8-4.9c0-1.7,0.3-3.3,0.9-5c0.6-1.6,1.4-3.1,2.5-4.3
					c1.1-1.3,2.3-2.3,3.8-3.1C467.5,668.3,469.2,667.9,471,667.9z M470.1,669.6c-0.8,0-1.6,0.2-2.3,0.5c-0.7,0.3-1.4,0.9-1.9,1.7
					c-0.6,0.8-1,1.7-1.4,2.9c-0.3,1.2-0.5,2.6-0.5,4.4c0,1.8,0.2,3.4,0.6,5.1c0.4,1.6,0.9,3,1.6,4.3c0.7,1.2,1.5,2.2,2.5,2.9
					c1,0.7,2.1,1.1,3.3,1.1c0.9,0,1.7-0.2,2.4-0.5c0.7-0.3,1.4-0.9,1.9-1.6c0.5-0.8,1-1.8,1.3-3c0.3-1.2,0.5-2.8,0.5-4.6
					c0-1.8-0.2-3.5-0.5-5.1c-0.4-1.6-0.9-3-1.5-4.2c-0.7-1.2-1.5-2.1-2.5-2.8C472.5,670,471.4,669.6,470.1,669.6z"/>
				<path d="M519.8,668.5l0,15.1c0,2.9,0.1,4.7,0.2,5.3c0.1,0.6,0.4,1.1,0.7,1.3c0.3,0.3,0.7,0.4,1.1,0.4c0.5,0,1.2-0.2,1.9-0.5
					l0.4,0.9l-7.5,3.1h-1.2l0-5.3c-2.2,2.3-3.8,3.8-4.9,4.4c-1.1,0.6-2.3,0.9-3.6,0.9c-1.4,0-2.6-0.4-3.6-1.2
					c-1-0.8-1.7-1.8-2.2-3.2c-0.4-1.2-0.6-3-0.6-5.4l0-11.2c0-0.8-0.1-1.5-0.2-2c-0.1-0.5-0.4-0.9-0.7-1.2c-0.3-0.3-0.7-0.5-1.2-0.6
					c-0.5-0.1-1.1-0.1-1.8-0.1h-0.3l0-1l8.8,0l0,16.7c0,1.2,0.1,2.2,0.3,2.9c0.2,0.7,0.5,1.3,0.9,1.7c0.4,0.4,0.8,0.7,1.3,0.8
					c0.5,0.1,1,0.2,1.6,0.2c0.4,0,0.8,0,1.2-0.2c0.4-0.1,0.9-0.3,1.4-0.6c0.5-0.3,1-0.6,1.6-1.1c0.6-0.5,1.2-1,1.9-1.7l0-14.2
					c0-0.7-0.1-1.3-0.2-1.8c-0.1-0.5-0.3-0.8-0.6-1.1c-0.3-0.3-0.7-0.5-1.2-0.6c-0.5-0.1-1.2-0.2-2-0.2v-1L519.8,668.5z"/>
				<path d="M544.3,673c2.9-3.5,5.7-5.3,8.4-5.3c0.9,0,1.8,0.2,2.6,0.5c0.8,0.3,1.5,0.8,2.1,1.6c0.6,0.7,1,1.7,1.4,2.9
					c0.3,1.2,0.5,2.7,0.5,4.5l0,10.7c0,1.1,0.1,1.9,0.2,2.5c0.1,0.6,0.3,1.1,0.6,1.4c0.3,0.3,0.7,0.5,1.2,0.6
					c0.5,0.1,1.1,0.1,1.9,0.1v1l-12.4,0v-1h0.5c0.8,0,1.5-0.1,1.9-0.2c0.5-0.1,0.8-0.4,1-0.7c0.2-0.4,0.4-0.8,0.5-1.4
					c0.1-0.6,0.1-1.4,0.1-2.3l0-10.2c0-2.3-0.3-3.9-0.9-4.9c-0.6-1-1.6-1.5-3-1.5c-2.2,0-4.3,1.2-6.5,3.6l0,13.2
					c0,1.6,0.1,2.7,0.3,3.1c0.1,0.3,0.3,0.5,0.4,0.7c0.2,0.2,0.4,0.4,0.6,0.5c0.3,0.1,0.6,0.2,1,0.3c0.4,0,1,0.1,1.7,0.1v1l-12.4,0
					v-1h0.5c0.7,0,1.2-0.1,1.6-0.2c0.4-0.1,0.7-0.4,1-0.8c0.2-0.4,0.4-0.8,0.5-1.4c0.1-0.6,0.1-1.3,0.1-2.2l0-9.3
					c0-3-0.1-4.8-0.2-5.5c-0.1-0.7-0.3-1.1-0.6-1.3c-0.3-0.2-0.7-0.3-1.1-0.3c-0.5,0-1.1,0.1-1.8,0.4l-0.4-1l7.5-3.1h1.2L544.3,673z
					"/>
				<path d="M593.8,690.5c-1.2,1.3-2.4,2.2-3.6,2.8c-1.1,0.6-2.4,0.8-3.8,0.8c-1.3,0-2.7-0.3-3.9-0.9c-1.2-0.6-2.3-1.5-3.3-2.5
					c-0.9-1.1-1.7-2.4-2.2-3.9c-0.6-1.5-0.8-3.1-0.8-4.9c0-3.6,1.1-6.9,3.4-9.8c2.3-3,5.2-4.5,8.7-4.5c2.2,0,4,0.7,5.5,2.1l0-8.2
					c0-0.3,0-0.7,0-1.1c0-0.4,0-0.8-0.1-1.1c-0.1-0.3-0.3-0.6-0.5-0.9c-0.3-0.2-0.7-0.3-1.3-0.3c-0.5,0-1.1,0.1-1.9,0.4l-0.4-0.9
					l7.4-3.1h1.2l0.1,28.9c0,3,0.1,4.8,0.2,5.4c0.1,0.6,0.4,1.1,0.7,1.3c0.3,0.3,0.6,0.4,1,0.4c0.5,0,1.1-0.2,2-0.5l0.3,0.9
					l-7.4,3.1h-1.3V690.5z M593.8,688.6l0-12.9c-0.1-1-0.3-2-0.7-2.7c-0.4-0.8-0.8-1.5-1.4-2c-0.5-0.6-1.1-1-1.8-1.3
					c-0.6-0.3-1.3-0.4-1.9-0.4c-1,0-1.9,0.2-2.7,0.8c-0.8,0.5-1.5,1.2-2.1,2.1c-0.6,0.9-1.1,2-1.4,3.3c-0.3,1.3-0.5,2.7-0.5,4.3
					c0,1.8,0.2,3.5,0.7,4.9c0.4,1.4,1,2.6,1.8,3.6c0.7,1,1.6,1.7,2.5,2.2c0.9,0.5,1.9,0.7,2.8,0.7
					C590.6,691.1,592.2,690.3,593.8,688.6z"/>
				<path d="M629.4,689.7c-2.5,2-4.2,3.2-4.8,3.4c-1,0.5-2,0.7-3.1,0.7c-0.9,0-1.6-0.2-2.4-0.5c-0.7-0.3-1.3-0.7-1.9-1.3
					c-0.5-0.6-0.9-1.2-1.2-2c-0.3-0.8-0.5-1.7-0.5-2.6c0-0.7,0.1-1.4,0.3-2c0.2-0.6,0.5-1.2,0.8-1.7c0.4-0.5,0.9-1.1,1.5-1.5
					c0.6-0.5,1.3-1,2.1-1.5c1.9-1.1,5-2.4,9.2-4v-1c0-1.2-0.1-2.3-0.3-3.1c-0.2-0.8-0.5-1.5-0.9-2c-0.4-0.5-0.9-0.9-1.5-1.1
					c-0.6-0.2-1.2-0.3-2-0.3c-0.6,0-1.1,0.1-1.6,0.3c-0.5,0.2-0.9,0.4-1.2,0.7c-0.3,0.3-0.6,0.6-0.7,1c-0.2,0.4-0.3,0.8-0.3,1.1
					l0.1,1.6c0,0.8-0.2,1.5-0.6,1.9c-0.4,0.4-1,0.7-1.7,0.7c-0.7,0-1.2-0.2-1.6-0.7c-0.4-0.5-0.6-1.1-0.7-1.9c0-0.8,0.2-1.5,0.6-2.3
					c0.4-0.8,1-1.4,1.8-2c0.8-0.6,1.7-1.1,2.9-1.5c1.1-0.4,2.4-0.5,3.9-0.5c1.9,0,3.6,0.3,4.9,0.8c1.3,0.6,2.3,1.5,2.9,2.9
					c0.3,0.8,0.5,2.4,0.5,4.8l0,8.5c0,1.2,0,2.2,0,2.9c0,0.7,0.1,1.2,0.1,1.5c0.1,0.5,0.2,0.9,0.5,1.1c0.2,0.2,0.4,0.3,0.7,0.3
					c0.2,0,0.4,0,0.5-0.1c0.2-0.1,0.3-0.2,0.6-0.3c0.2-0.2,0.5-0.4,0.8-0.7c0.3-0.3,0.7-0.7,1.1-1.1v1.5c-2,2.7-4,4.1-5.8,4.1
					c-0.9,0-1.6-0.3-2.1-0.9C629.7,692.2,629.4,691.2,629.4,689.7z M629.4,687.9l0-9.5c-1.4,0.5-2.5,1-3.4,1.4
					c-0.9,0.4-1.5,0.7-1.9,0.9c-1.4,0.8-2.5,1.7-3.1,2.5c-0.6,0.9-0.9,1.8-0.9,2.9c0,0.6,0.1,1.3,0.3,1.8c0.2,0.6,0.5,1,0.8,1.5
					c0.4,0.4,0.8,0.7,1.2,0.9c0.5,0.2,1,0.3,1.5,0.3C625.3,690.6,627.1,689.7,629.4,687.9z"/>
				<path d="M658.4,660l0,8.2l5.8,0l0,1.9l-5.8,0l0,16.2c0,0.8,0.1,1.5,0.2,2c0.1,0.5,0.3,1,0.5,1.3c0.2,0.3,0.5,0.5,0.8,0.6
					c0.3,0.1,0.6,0.2,1,0.2c0.6,0,1.2-0.2,1.7-0.6c0.6-0.4,1-0.9,1.3-1.7h1.1c-0.3,0.9-0.7,1.7-1.2,2.3c-0.5,0.7-1,1.2-1.5,1.7
					c-0.5,0.4-1.1,0.8-1.7,1c-0.6,0.2-1.2,0.3-1.9,0.3c-0.4,0-0.8-0.1-1.3-0.2c-0.4-0.1-0.8-0.3-1.2-0.5c-0.4-0.2-0.7-0.5-1-0.8
					c-0.3-0.3-0.6-0.7-0.7-1.2c-0.4-0.9-0.6-2.2-0.6-4l0-16.8l-4,0v-0.9c1-0.4,2-1.1,3.1-2c1-1,2-2.1,2.8-3.4
					c0.2-0.3,0.5-0.8,0.8-1.5c0.3-0.6,0.6-1.4,1-2.3H658.4z"/>
				<path d="M686.5,667.4l0,20.1c0,0.8,0,1.4,0.1,1.9c0.1,0.5,0.1,0.9,0.3,1.2c0.1,0.3,0.2,0.5,0.4,0.7c0.2,0.2,0.4,0.3,0.6,0.4
					c0.5,0.3,1.3,0.4,2.5,0.4v1l-12.1,0v-1c0.6,0,1.1,0,1.5-0.1c0.4-0.1,0.7-0.1,1-0.3c0.2-0.1,0.4-0.3,0.6-0.5
					c0.1-0.2,0.3-0.4,0.4-0.7c0.3-0.6,0.4-1.6,0.4-3.1l0-9.6c0-1.6,0-2.8-0.1-3.7c-0.1-0.9-0.2-1.6-0.3-2c-0.1-0.5-0.3-0.7-0.6-0.9
					c-0.3-0.1-0.6-0.2-1-0.2c-0.5,0-1.1,0.1-1.9,0.4l-0.4-1l7.5-3.1H686.5z M684.2,654.4c0.4,0,0.7,0.1,1.1,0.2
					c0.3,0.1,0.6,0.3,0.9,0.6c0.2,0.2,0.4,0.5,0.6,0.9c0.1,0.3,0.2,0.7,0.2,1.1c0,0.4-0.1,0.7-0.2,1.1c-0.1,0.3-0.3,0.6-0.6,0.9
					c-0.2,0.3-0.5,0.5-0.9,0.6c-0.3,0.2-0.7,0.2-1.1,0.2c-0.4,0-0.7-0.1-1.1-0.2c-0.3-0.1-0.6-0.3-0.9-0.6c-0.3-0.3-0.5-0.6-0.6-0.9
					c-0.1-0.3-0.2-0.7-0.2-1.1c0-0.4,0.1-0.7,0.2-1.1c0.2-0.3,0.3-0.6,0.6-0.9c0.2-0.2,0.5-0.4,0.9-0.6
					C683.4,654.4,683.8,654.4,684.2,654.4z"/>
				<path d="M716.8,667.4c1.8,0,3.4,0.3,4.8,1c1.5,0.7,2.8,1.6,3.8,2.8c1.1,1.2,1.9,2.5,2.5,4.1c0.6,1.5,0.9,3.2,0.9,4.9
					c0,1.8-0.3,3.5-0.9,5.2c-0.6,1.6-1.4,3.1-2.5,4.4c-1.1,1.3-2.4,2.3-3.9,3.1c-1.5,0.8-3.1,1.1-5,1.1c-1.8,0-3.4-0.4-4.8-1.1
					c-1.5-0.7-2.7-1.7-3.7-2.9c-1-1.2-1.8-2.6-2.4-4.2c-0.6-1.6-0.9-3.2-0.9-4.9c0-1.7,0.3-3.3,0.9-5c0.6-1.6,1.4-3.1,2.5-4.3
					c1.1-1.3,2.3-2.3,3.8-3C713.3,667.8,715,667.4,716.8,667.4z M715.9,669.2c-0.8,0-1.6,0.2-2.3,0.5c-0.7,0.3-1.4,0.9-2,1.6
					c-0.6,0.8-1,1.7-1.4,2.9c-0.3,1.2-0.5,2.6-0.5,4.3c0,1.8,0.2,3.5,0.6,5.1c0.4,1.6,0.9,3,1.6,4.3c0.7,1.2,1.5,2.2,2.5,2.9
					c1,0.7,2.1,1.1,3.3,1.1c0.9,0,1.7-0.2,2.4-0.5c0.7-0.3,1.4-0.9,1.9-1.6c0.5-0.8,1-1.7,1.3-3c0.3-1.2,0.5-2.7,0.5-4.6
					c0-1.8-0.2-3.5-0.5-5.1c-0.4-1.6-0.9-3-1.5-4.2c-0.7-1.2-1.5-2.1-2.5-2.8C718.3,669.5,717.2,669.2,715.9,669.2z"/>
				<path d="M750.9,672.6c2.9-3.5,5.7-5.3,8.4-5.3c0.9,0,1.8,0.1,2.6,0.5c0.8,0.3,1.5,0.8,2,1.5c0.6,0.7,1,1.7,1.4,2.9
					c0.3,1.2,0.5,2.7,0.5,4.5l0,10.7c0,1.1,0.1,1.9,0.2,2.5c0.1,0.6,0.3,1.1,0.6,1.4c0.3,0.3,0.7,0.5,1.2,0.6
					c0.5,0.1,1.1,0.1,1.9,0.1v1l-12.4,0v-1h0.5c0.8,0,1.5-0.1,1.9-0.2c0.5-0.1,0.8-0.4,1-0.7c0.2-0.4,0.4-0.8,0.4-1.4
					c0.1-0.6,0.1-1.4,0.1-2.3l0-10.2c0-2.3-0.3-3.9-0.9-5c-0.6-1-1.6-1.5-3-1.5c-2.2,0-4.3,1.2-6.5,3.6l0,13.2
					c0,1.6,0.1,2.7,0.3,3.1c0.1,0.3,0.3,0.5,0.4,0.7c0.2,0.2,0.4,0.4,0.6,0.5c0.3,0.1,0.6,0.2,1,0.2c0.4,0.1,1,0.1,1.7,0.1v1
					l-12.4,0v-1h0.5c0.7,0,1.2-0.1,1.6-0.2c0.4-0.1,0.7-0.4,1-0.8c0.2-0.4,0.4-0.8,0.5-1.4c0.1-0.6,0.1-1.3,0.1-2.3l0-9.3
					c0-3-0.1-4.8-0.2-5.5c-0.1-0.6-0.3-1.1-0.6-1.3c-0.3-0.2-0.7-0.4-1.1-0.4c-0.5,0-1.1,0.2-1.8,0.4l-0.4-1l7.5-3.1l1.2,0
					L750.9,672.6z"/>
				<path d="M815.1,659.7l0,8.2l5.8,0l0,1.9l-5.8,0l0,16.2c0,0.8,0.1,1.5,0.2,2c0.1,0.5,0.3,1,0.5,1.3c0.2,0.3,0.5,0.5,0.8,0.6
					c0.3,0.1,0.6,0.2,1,0.2c0.6,0,1.2-0.2,1.7-0.6c0.6-0.4,1-0.9,1.3-1.7l1.1,0c-0.3,0.9-0.7,1.7-1.2,2.4c-0.5,0.7-1,1.2-1.5,1.7
					c-0.5,0.4-1.1,0.8-1.7,1c-0.6,0.2-1.2,0.3-1.9,0.3c-0.4,0-0.8,0-1.3-0.2c-0.4-0.1-0.8-0.3-1.2-0.5c-0.4-0.2-0.7-0.5-1-0.8
					c-0.3-0.3-0.6-0.7-0.7-1.1c-0.4-0.9-0.6-2.2-0.6-4l0-16.8l-4,0V669c1-0.4,2-1.1,3.1-2.1c1-1,2-2.1,2.8-3.4
					c0.2-0.3,0.5-0.8,0.8-1.5c0.3-0.6,0.6-1.4,1-2.3H815.1z"/>
				<path d="M846.8,667.1c1.8,0,3.4,0.3,4.9,1c1.5,0.7,2.8,1.6,3.8,2.8c1.1,1.2,1.9,2.5,2.5,4c0.6,1.6,0.9,3.2,0.9,4.9
					c0,1.8-0.3,3.5-0.9,5.2c-0.6,1.6-1.5,3.1-2.5,4.4c-1.1,1.3-2.4,2.3-3.9,3.1c-1.5,0.8-3.2,1.1-5,1.1c-1.8,0-3.4-0.4-4.8-1.1
					c-1.4-0.7-2.7-1.7-3.7-2.9c-1-1.2-1.8-2.6-2.4-4.2c-0.6-1.6-0.9-3.2-0.9-4.9c0-1.7,0.3-3.3,0.9-5c0.6-1.6,1.4-3.1,2.5-4.3
					c1.1-1.3,2.3-2.3,3.8-3C843.4,667.5,845,667.1,846.8,667.1z M846,668.9c-0.8,0-1.6,0.2-2.3,0.5c-0.7,0.3-1.4,0.9-2,1.6
					c-0.6,0.8-1,1.7-1.4,2.9c-0.3,1.2-0.5,2.6-0.5,4.4c0,1.8,0.2,3.5,0.6,5.1c0.4,1.6,0.9,3,1.6,4.3c0.7,1.2,1.5,2.2,2.5,2.9
					c1,0.7,2.1,1.1,3.3,1.1c0.9,0,1.7-0.2,2.4-0.5c0.7-0.3,1.4-0.9,1.9-1.6c0.5-0.8,1-1.7,1.3-3c0.3-1.2,0.5-2.8,0.5-4.6
					c0-1.8-0.2-3.5-0.5-5.1c-0.4-1.6-0.9-3-1.5-4.2c-0.7-1.2-1.5-2.1-2.5-2.8C848.3,669.2,847.2,668.9,846,668.9z"/>
				<path d="M872.3,667.8l10.5,0v1c-1,0.1-1.6,0.2-1.9,0.5c-0.3,0.3-0.4,0.7-0.4,1.2c0,0.5,0.2,1.2,0.5,2.1l5.4,14.4l5.3-11.7
					l-1.4-3.7c-0.2-0.5-0.4-0.8-0.6-1.2c-0.2-0.3-0.4-0.6-0.7-0.8c-0.3-0.2-0.7-0.4-1.1-0.5c-0.4-0.1-1-0.2-1.6-0.2l0-1l11.9,0v1
					c-1.1,0.1-1.9,0.2-2.5,0.5c-0.6,0.3-0.8,0.8-0.8,1.6c0,0.4,0.1,0.8,0.2,1.1l5.7,14.3l5.2-13.8c0.4-1,0.5-1.8,0.5-2.3
					c0-0.4-0.2-0.7-0.5-0.9c-0.4-0.3-1.1-0.4-2.1-0.5v-1l7.9,0v1c-1.6,0.3-2.8,1.3-3.5,3.2l-8.3,21.5l-1.1,0l-6.3-16l-7.3,16h-1
					l-8.1-21c-0.2-0.7-0.5-1.2-0.7-1.6c-0.2-0.4-0.5-0.8-0.8-1c-0.3-0.3-0.6-0.5-1-0.6c-0.4-0.1-0.9-0.3-1.4-0.4L872.3,667.8z"/>
				<path d="M939.4,689.1c-2.6,2-4.2,3.2-4.8,3.4c-1,0.5-2,0.7-3.1,0.7c-0.9,0-1.6-0.2-2.4-0.5c-0.7-0.3-1.4-0.7-1.9-1.3
					c-0.5-0.6-0.9-1.2-1.2-2c-0.3-0.8-0.5-1.7-0.5-2.6c0-0.7,0.1-1.4,0.3-2c0.2-0.6,0.5-1.2,0.9-1.7c0.4-0.5,0.9-1.1,1.5-1.5
					c0.6-0.5,1.3-1,2.1-1.5c1.9-1.1,4.9-2.4,9.2-4v-1c0-1.2-0.1-2.3-0.3-3.1c-0.2-0.8-0.5-1.5-0.9-2c-0.4-0.5-0.9-0.9-1.5-1.1
					c-0.6-0.2-1.2-0.3-2-0.3c-0.6,0-1.1,0.1-1.6,0.3c-0.5,0.2-0.9,0.4-1.2,0.7c-0.3,0.3-0.6,0.6-0.8,1c-0.2,0.4-0.2,0.7-0.2,1.1
					l0,1.6c0,0.8-0.2,1.5-0.6,1.9c-0.4,0.5-1,0.7-1.7,0.7c-0.7,0-1.2-0.2-1.6-0.7c-0.4-0.5-0.7-1.1-0.7-1.9c0-0.8,0.2-1.5,0.6-2.3
					c0.4-0.7,1-1.4,1.8-2c0.8-0.6,1.7-1.1,2.9-1.5c1.1-0.4,2.4-0.5,3.9-0.6c1.9,0,3.6,0.3,4.9,0.8c1.3,0.6,2.3,1.5,2.9,2.9
					c0.3,0.8,0.5,2.4,0.5,4.8l0,8.5c0,1.2,0,2.2,0.1,2.9c0,0.7,0.1,1.2,0.1,1.5c0.1,0.5,0.2,0.9,0.5,1.1c0.2,0.2,0.4,0.3,0.7,0.3
					c0.2,0,0.4,0,0.5-0.1c0.2-0.1,0.4-0.2,0.6-0.3c0.2-0.2,0.5-0.4,0.8-0.7c0.3-0.3,0.7-0.6,1.1-1.1v1.5c-2,2.7-4,4.1-5.8,4.1
					c-0.9,0-1.6-0.3-2.1-0.9C939.7,691.6,939.4,690.6,939.4,689.1z M939.4,687.3l0-9.5c-1.4,0.6-2.5,1-3.4,1.4
					c-0.9,0.4-1.5,0.7-1.9,0.9c-1.4,0.8-2.5,1.7-3.1,2.5c-0.6,0.9-0.9,1.8-0.9,2.9c0,0.6,0.1,1.3,0.3,1.8c0.2,0.6,0.5,1,0.9,1.4
					c0.4,0.4,0.8,0.7,1.2,1c0.5,0.2,1,0.3,1.5,0.3C935.3,690,937.2,689.1,939.4,687.3z"/>
				<path d="M968.5,666.9l0,5.6c2.1-3.8,4.3-5.6,6.4-5.6c0.5,0,0.9,0.1,1.4,0.2c0.4,0.2,0.8,0.4,1.1,0.7c0.3,0.3,0.6,0.6,0.7,1
					c0.2,0.4,0.3,0.8,0.3,1.1c0,0.7-0.2,1.3-0.7,1.8c-0.5,0.5-1,0.7-1.7,0.7c-0.3,0-0.7-0.1-1-0.3c-0.4-0.2-0.8-0.4-1.1-0.6
					c-0.4-0.2-0.7-0.4-1-0.6c-0.3-0.2-0.5-0.3-0.7-0.3c-0.2,0-0.5,0.1-0.8,0.3c-0.3,0.2-0.6,0.5-0.9,0.9c-0.3,0.4-0.6,0.8-1,1.3
					c-0.3,0.5-0.6,1.1-1,1.7l0,12c0,0.7,0.1,1.4,0.1,2c0.1,0.6,0.3,1.1,0.6,1.5c0.3,0.4,0.7,0.7,1.3,1c0.6,0.2,1.4,0.3,2.3,0.3v1
					l-12.8,0v-1c0.8,0,1.5-0.1,2-0.2c0.5-0.1,0.9-0.3,1.2-0.7c0.3-0.3,0.5-0.8,0.6-1.4c0.1-0.6,0.2-1.4,0.2-2.4l0-9.7
					c0-3-0.1-4.7-0.2-5.2c-0.2-1.1-0.9-1.6-1.8-1.6c-0.6,0-1.2,0.1-1.9,0.4l-0.3-1l7.6-3.1L968.5,666.9z"/>
				<path d="M1008.6,689.7c-1.2,1.3-2.4,2.2-3.5,2.7c-1.2,0.5-2.4,0.8-3.8,0.8c-1.4,0-2.7-0.3-3.9-0.9c-1.2-0.6-2.3-1.5-3.2-2.5
					c-0.9-1.1-1.7-2.4-2.2-3.9c-0.6-1.5-0.8-3.1-0.8-4.9c0-3.6,1.1-6.9,3.4-9.8c2.3-3,5.2-4.5,8.7-4.5c2.2,0,4,0.7,5.5,2.1l0-8.2
					c0-0.3,0-0.7,0-1.1c0-0.4,0-0.8-0.1-1.1c-0.1-0.3-0.3-0.6-0.5-0.8c-0.3-0.2-0.7-0.3-1.3-0.3c-0.5,0-1.1,0.2-1.9,0.4l-0.4-1
					l7.4-3.1h1.2l0.1,28.9c0,3,0.1,4.8,0.2,5.4c0.1,0.6,0.4,1.1,0.7,1.3c0.3,0.2,0.6,0.4,1.1,0.4c0.5,0,1.1-0.1,2-0.5l0.3,0.9
					l-7.4,3.1h-1.3L1008.6,689.7z M1008.6,687.8l0-12.9c-0.1-1-0.3-2-0.7-2.8c-0.4-0.8-0.8-1.5-1.4-2c-0.5-0.6-1.1-1-1.8-1.3
					c-0.7-0.3-1.3-0.4-1.9-0.4c-1,0-1.9,0.3-2.7,0.8c-0.8,0.5-1.5,1.2-2.1,2.1c-0.6,0.9-1.1,2-1.4,3.3c-0.3,1.3-0.5,2.7-0.5,4.3
					c0,1.8,0.2,3.5,0.7,4.9c0.4,1.4,1,2.6,1.8,3.6c0.7,1,1.6,1.7,2.5,2.2c0.9,0.5,1.9,0.7,2.8,0.7
					C1005.5,690.3,1007.1,689.5,1008.6,687.8z"/>
				<path d="M1070.8,691.4v1l-15.8,0v-1h1.3c1.5,0,2.7-0.4,3.3-1.3c0.4-0.6,0.7-2,0.6-4.2l-0.1-23.9c0-0.9,0-1.6-0.1-2.1
					c0-0.6-0.1-1-0.2-1.4c-0.1-0.3-0.2-0.6-0.4-0.8c-0.2-0.2-0.5-0.4-0.8-0.6c-0.8-0.4-1.6-0.7-2.5-0.7h-1.3l0-1l15.8,0l0,1h-1.3
					c-1.5,0-2.6,0.4-3.3,1.3c-0.4,0.6-0.7,2-0.7,4.2l0.1,23.9c0,0.9,0,1.6,0.1,2.1c0,0.5,0.1,1,0.2,1.3c0.1,0.3,0.3,0.6,0.5,0.8
					c0.2,0.2,0.5,0.4,0.8,0.6c0.8,0.4,1.6,0.7,2.5,0.7L1070.8,691.4z"/>
				<path d="M1092.3,671.9c2.9-3.5,5.7-5.3,8.4-5.3c0.9,0,1.8,0.2,2.6,0.5c0.8,0.3,1.5,0.8,2,1.6c0.6,0.7,1,1.7,1.4,2.9
					c0.3,1.2,0.5,2.7,0.5,4.5l0,10.7c0,1.1,0.1,1.9,0.2,2.5c0.1,0.6,0.3,1.1,0.6,1.4c0.3,0.3,0.7,0.5,1.2,0.6
					c0.5,0.1,1.1,0.1,1.9,0.1v1l-12.4,0v-1h0.5c0.8,0,1.5-0.1,1.9-0.2c0.5-0.2,0.8-0.4,1-0.8c0.2-0.4,0.4-0.8,0.5-1.4
					c0.1-0.6,0.1-1.3,0.1-2.3l0-10.2c0-2.3-0.3-3.9-0.9-5c-0.6-1-1.6-1.5-3-1.5c-2.2,0-4.3,1.2-6.5,3.6l0,13.2
					c0,1.7,0.1,2.7,0.3,3.1c0.1,0.3,0.3,0.5,0.4,0.7c0.2,0.2,0.4,0.4,0.6,0.5c0.3,0.1,0.6,0.2,1,0.2c0.4,0,1,0.1,1.7,0.1v1l-12.4,0
					v-1h0.5c0.7,0,1.2-0.1,1.6-0.2c0.4-0.1,0.8-0.4,1-0.8c0.2-0.4,0.4-0.8,0.5-1.4c0.1-0.6,0.1-1.3,0.1-2.3l0-9.3
					c0-3-0.1-4.8-0.2-5.5c-0.1-0.6-0.3-1.1-0.6-1.3c-0.3-0.2-0.7-0.4-1.1-0.4c-0.5,0-1.1,0.1-1.8,0.4l-0.4-1l7.5-3.1h1.2
					L1092.3,671.9z"/>
				<path d="M1131.4,671.9c2.9-3.5,5.7-5.3,8.4-5.3c0.9,0,1.8,0.2,2.6,0.5c0.8,0.3,1.5,0.8,2.1,1.5c0.6,0.7,1,1.7,1.4,2.9
					c0.3,1.2,0.5,2.7,0.5,4.5l0,10.7c0,1.1,0.1,1.9,0.2,2.5c0.1,0.6,0.3,1.1,0.6,1.4c0.3,0.3,0.7,0.5,1.2,0.6
					c0.5,0.1,1.1,0.1,1.9,0.1v1l-12.4,0v-1h0.5c0.8,0,1.5-0.1,1.9-0.2c0.5-0.2,0.8-0.4,1-0.8c0.2-0.4,0.4-0.8,0.4-1.4
					c0.1-0.6,0.1-1.3,0.1-2.3l0-10.2c0-2.3-0.3-3.9-0.9-5c-0.6-1-1.6-1.5-3-1.5c-2.2,0-4.3,1.2-6.5,3.6l0,13.2
					c0,1.6,0.1,2.7,0.3,3.1c0.1,0.3,0.3,0.5,0.4,0.7c0.2,0.2,0.4,0.4,0.6,0.5c0.3,0.1,0.6,0.2,1,0.3c0.4,0,1,0.1,1.7,0.1v1l-12.4,0
					v-1h0.5c0.6,0,1.2-0.1,1.6-0.2c0.4-0.2,0.8-0.4,1-0.8c0.2-0.4,0.4-0.8,0.5-1.4c0.1-0.6,0.1-1.3,0.1-2.2l0-9.3
					c0-3-0.1-4.8-0.2-5.5c-0.1-0.7-0.3-1.1-0.6-1.4c-0.3-0.2-0.7-0.3-1.1-0.3c-0.5,0-1.1,0.1-1.8,0.4l-0.4-1l7.5-3.1l1.2,0
					L1131.4,671.9z"/>
				<path d="M1175.4,666.5c1.8,0,3.4,0.3,4.9,1c1.5,0.7,2.7,1.6,3.8,2.8c1.1,1.2,1.9,2.5,2.5,4.1c0.6,1.6,0.9,3.2,0.9,4.9
					c0,1.8-0.3,3.5-0.9,5.2c-0.6,1.6-1.4,3.1-2.5,4.4c-1.1,1.3-2.4,2.3-3.9,3c-1.5,0.8-3.2,1.1-5,1.1c-1.8,0-3.4-0.4-4.8-1.1
					c-1.4-0.7-2.7-1.7-3.7-2.9c-1-1.2-1.8-2.6-2.4-4.2c-0.6-1.6-0.8-3.2-0.8-4.8c0-1.7,0.3-3.3,0.8-5c0.6-1.6,1.4-3.1,2.5-4.3
					c1.1-1.3,2.3-2.3,3.8-3.1C1172,666.9,1173.6,666.5,1175.4,666.5z M1174.6,668.3c-0.8,0-1.6,0.2-2.3,0.5c-0.8,0.3-1.4,0.9-2,1.6
					c-0.6,0.8-1,1.7-1.4,2.9c-0.3,1.2-0.5,2.6-0.5,4.4c0,1.8,0.2,3.5,0.6,5.1c0.4,1.6,0.9,3,1.6,4.3c0.7,1.2,1.5,2.2,2.5,2.9
					c1,0.7,2.1,1.1,3.3,1.1c0.9,0,1.7-0.2,2.4-0.5c0.7-0.3,1.4-0.9,1.9-1.7c0.5-0.8,1-1.7,1.3-3c0.3-1.2,0.5-2.8,0.5-4.6
					c0-1.8-0.2-3.5-0.5-5.1c-0.3-1.6-0.9-3-1.5-4.2c-0.7-1.2-1.5-2.1-2.5-2.8C1176.9,668.6,1175.8,668.3,1174.6,668.3z"/>
				<path d="M1201,667.2l11.7,0l0,1h-0.8c-0.7,0-1.3,0.2-1.6,0.5c-0.4,0.3-0.6,0.8-0.6,1.4c0,0.6,0.2,1.4,0.6,2.3l5.8,13.8l5.8-14.3
					c0.4-1,0.6-1.8,0.6-2.3c0-0.5-0.2-0.9-0.7-1.1c-0.4-0.2-1.2-0.3-2.2-0.3v-1l8.2,0l0,1c-0.6,0-1.1,0.2-1.4,0.3
					c-0.4,0.1-0.7,0.3-0.9,0.6c-0.3,0.3-0.5,0.6-0.7,1c-0.2,0.4-0.4,0.9-0.6,1.4l-8.8,21.5h-1.1l-9-21.1c-0.3-0.7-0.5-1.2-0.8-1.6
					c-0.3-0.4-0.5-0.8-0.9-1c-0.3-0.3-0.7-0.5-1.1-0.6c-0.4-0.2-1-0.3-1.6-0.3V667.2z"/>
				<path d="M1255.6,688.5c-2.6,2-4.2,3.2-4.8,3.4c-1,0.4-2,0.7-3.1,0.7c-0.9,0-1.6-0.1-2.4-0.5c-0.7-0.3-1.4-0.7-1.9-1.3
					c-0.5-0.6-0.9-1.2-1.2-2c-0.3-0.8-0.5-1.7-0.5-2.6c0-0.7,0.1-1.4,0.3-2c0.2-0.6,0.5-1.2,0.9-1.7c0.4-0.5,0.9-1,1.5-1.5
					c0.6-0.5,1.3-1,2.1-1.5c1.9-1.1,4.9-2.4,9.2-4v-1c0-1.3-0.1-2.3-0.3-3.1c-0.2-0.8-0.5-1.5-0.9-2c-0.4-0.5-0.9-0.8-1.5-1.1
					c-0.6-0.2-1.2-0.3-2-0.3c-0.6,0-1.1,0.1-1.6,0.3c-0.5,0.2-0.9,0.4-1.2,0.7c-0.3,0.3-0.6,0.6-0.7,1c-0.2,0.4-0.3,0.8-0.3,1.1
					l0.1,1.6c0,0.8-0.2,1.5-0.6,1.9c-0.4,0.5-1,0.7-1.7,0.7c-0.7,0-1.2-0.2-1.7-0.7c-0.4-0.5-0.6-1.1-0.6-1.9c0-0.8,0.2-1.5,0.6-2.3
					c0.4-0.7,1-1.4,1.8-2c0.8-0.6,1.7-1.1,2.9-1.5c1.1-0.4,2.4-0.5,3.9-0.6c1.9,0,3.6,0.3,4.9,0.8c1.3,0.6,2.3,1.5,2.9,2.9
					c0.3,0.8,0.5,2.4,0.5,4.8l0,8.5c0,1.2,0,2.2,0,2.9c0,0.7,0.1,1.2,0.1,1.5c0.1,0.5,0.2,0.9,0.5,1.1c0.2,0.2,0.4,0.3,0.7,0.3
					c0.2,0,0.4,0,0.5-0.1c0.2-0.1,0.4-0.2,0.6-0.3c0.2-0.2,0.5-0.4,0.8-0.7c0.3-0.3,0.7-0.6,1.1-1.1l0,1.5c-2.1,2.7-4,4.1-5.8,4.1
					c-0.9,0-1.6-0.3-2.1-0.9C1255.9,691,1255.6,689.9,1255.6,688.5z M1255.6,686.7l0-9.5c-1.4,0.5-2.5,1-3.4,1.4
					c-0.9,0.4-1.5,0.7-1.9,0.9c-1.4,0.8-2.5,1.7-3.1,2.5c-0.6,0.9-0.9,1.8-0.9,2.9c0,0.7,0.1,1.2,0.3,1.8c0.2,0.5,0.5,1,0.9,1.4
					c0.4,0.4,0.8,0.7,1.2,1c0.5,0.2,1,0.3,1.5,0.3C1251.5,689.4,1253.3,688.5,1255.6,686.7z"/>
				<path d="M1284.6,658.8l0,8.2l5.8,0v1.9h-5.8l0,16.2c0,0.8,0.1,1.5,0.2,2c0.1,0.5,0.3,1,0.5,1.3c0.2,0.3,0.5,0.5,0.8,0.6
					c0.3,0.1,0.6,0.2,1,0.2c0.6,0,1.2-0.2,1.7-0.6c0.6-0.4,1-0.9,1.3-1.7l1.1,0c-0.3,0.9-0.7,1.7-1.2,2.4c-0.5,0.7-1,1.2-1.5,1.7
					c-0.5,0.4-1.1,0.8-1.7,1c-0.6,0.2-1.2,0.4-1.9,0.4c-0.4,0-0.8-0.1-1.3-0.2c-0.4-0.1-0.8-0.3-1.2-0.5c-0.4-0.2-0.7-0.5-1-0.8
					c-0.3-0.3-0.6-0.7-0.7-1.1c-0.4-0.9-0.6-2.2-0.6-4l0-16.8l-3.9,0V668c1-0.4,2-1.1,3.1-2c1-1,2-2.1,2.8-3.4
					c0.2-0.3,0.5-0.8,0.8-1.5c0.3-0.6,0.6-1.4,1-2.3L1284.6,658.8z"/>
				<path d="M1312.7,666.2l0,20.1c0,0.8,0,1.5,0.1,2c0.1,0.5,0.1,0.9,0.3,1.2c0.1,0.3,0.2,0.5,0.4,0.7c0.2,0.2,0.4,0.3,0.6,0.4
					c0.5,0.3,1.3,0.4,2.5,0.4v1l-12.1,0v-1c0.6,0,1.1,0,1.5-0.1c0.4-0.1,0.7-0.1,1-0.3c0.2-0.1,0.4-0.3,0.6-0.5
					c0.1-0.2,0.3-0.4,0.4-0.7c0.3-0.6,0.4-1.6,0.4-3.1l0-9.6c0-1.6,0-2.8-0.1-3.7c0-0.9-0.2-1.6-0.3-2c-0.1-0.5-0.3-0.7-0.6-0.9
					c-0.3-0.1-0.6-0.2-1-0.2c-0.5,0-1.1,0.1-1.8,0.4l-0.4-1l7.5-3.1H1312.7z M1310.4,653.2c0.4,0,0.7,0.1,1.1,0.2
					c0.3,0.1,0.6,0.3,0.9,0.6c0.2,0.2,0.4,0.5,0.6,0.9c0.1,0.3,0.2,0.7,0.2,1.1c0,0.4-0.1,0.7-0.2,1.1c-0.1,0.3-0.3,0.6-0.6,0.9
					c-0.2,0.3-0.5,0.5-0.9,0.6c-0.3,0.1-0.7,0.2-1.1,0.2c-0.4,0-0.7-0.1-1.1-0.2c-0.3-0.1-0.6-0.3-0.9-0.6c-0.3-0.2-0.5-0.6-0.6-0.9
					c-0.1-0.3-0.2-0.7-0.2-1.1c0-0.4,0.1-0.7,0.2-1.1c0.1-0.3,0.3-0.6,0.6-0.9c0.2-0.2,0.5-0.4,0.9-0.6
					C1309.7,653.2,1310,653.2,1310.4,653.2z"/>
				<path d="M1343,666.2c1.8,0,3.4,0.3,4.9,1c1.5,0.7,2.7,1.6,3.8,2.8c1.1,1.2,1.9,2.5,2.5,4.1c0.6,1.6,0.9,3.2,0.9,4.9
					c0,1.8-0.3,3.5-0.9,5.2c-0.6,1.7-1.5,3.1-2.5,4.4c-1.1,1.3-2.4,2.3-3.9,3c-1.5,0.8-3.2,1.1-5,1.1c-1.8,0-3.4-0.4-4.8-1.1
					c-1.4-0.7-2.7-1.7-3.7-2.9c-1-1.2-1.8-2.6-2.4-4.2c-0.6-1.6-0.8-3.2-0.8-4.9c0-1.7,0.3-3.3,0.9-5c0.6-1.6,1.4-3.1,2.5-4.3
					c1.1-1.2,2.3-2.3,3.8-3C1339.5,666.5,1341.2,666.2,1343,666.2z M1342.1,667.9c-0.8,0-1.6,0.2-2.3,0.5c-0.7,0.3-1.4,0.9-2,1.6
					c-0.6,0.8-1,1.7-1.4,2.9c-0.3,1.2-0.5,2.6-0.5,4.3c0,1.8,0.2,3.5,0.6,5.1c0.4,1.6,0.9,3,1.6,4.3c0.7,1.2,1.5,2.2,2.5,2.9
					c1,0.7,2.1,1.1,3.3,1.1c0.9,0,1.7-0.2,2.4-0.5c0.7-0.3,1.4-0.9,1.9-1.6c0.5-0.7,1-1.7,1.3-3c0.3-1.3,0.5-2.8,0.5-4.6
					c0-1.8-0.2-3.5-0.5-5.1c-0.3-1.6-0.8-3-1.5-4.1c-0.7-1.2-1.5-2.1-2.5-2.8C1344.5,668.3,1343.4,667.9,1342.1,667.9z"/>
				<path d="M1377.2,671.4c2.9-3.5,5.7-5.3,8.4-5.3c0.9,0,1.8,0.1,2.6,0.4c0.8,0.3,1.5,0.8,2,1.6c0.6,0.7,1,1.7,1.4,2.9
					c0.3,1.2,0.5,2.7,0.5,4.5l0,10.7c0,1.1,0.1,1.9,0.2,2.5c0.1,0.6,0.3,1.1,0.6,1.4c0.3,0.3,0.7,0.5,1.2,0.6
					c0.5,0.1,1.1,0.1,1.8,0.1v1l-12.4,0v-1h0.5c0.8,0,1.5-0.1,1.9-0.2c0.5-0.1,0.8-0.4,1-0.7c0.2-0.4,0.4-0.8,0.5-1.4
					c0.1-0.6,0.1-1.4,0.1-2.3l0-10.2c0-2.3-0.3-3.9-0.9-5c-0.6-1-1.6-1.5-3-1.5c-2.2,0-4.3,1.2-6.5,3.6l0,13.2
					c0,1.7,0.1,2.7,0.3,3.1c0.1,0.3,0.3,0.5,0.4,0.7c0.2,0.2,0.4,0.3,0.6,0.5c0.3,0.1,0.6,0.2,1,0.3c0.4,0.1,1,0.1,1.7,0.1v1
					l-12.4,0v-1h0.5c0.6,0,1.2-0.1,1.6-0.2c0.4-0.1,0.8-0.4,1-0.8c0.2-0.4,0.4-0.9,0.5-1.4c0.1-0.6,0.1-1.3,0.1-2.3l0-9.3
					c0-3-0.1-4.8-0.2-5.5c-0.1-0.7-0.3-1.1-0.6-1.3c-0.3-0.2-0.7-0.4-1.1-0.4c-0.5,0-1.1,0.1-1.8,0.4l-0.4-1l7.5-3.1h1.2
					L1377.2,671.4z"/>
			</g>
			<g>
				<path class="st1" d="M967.8,579.3h33.2c-1.7,7.8-5.6,14.2-11.9,19.3c-7,5.7-15.8,8.6-26,8.6c-8.5,0-16.4-2-23.5-5.8
					c-7.1-3.9-12.7-9.2-16.7-16c-4-6.7-6-13.9-6-21.4c0-7.3,2-14.3,5.8-20.8c3.9-6.5,9.4-11.8,16.4-15.6c12.8-6.9,27-7.9,42-1.5
					c6.7,2.9,12.9,7.1,18.6,12.7l1.8,1.8l12-11.4l-2-1.9c-7.7-7.3-15.8-12.7-24-16.1c-8.2-3.3-17-5-26.3-5c-11.5,0-21.9,2.6-31,7.6
					c-9.1,5.1-16.4,12.2-21.7,21.2c-5.2,9-7.9,18.8-7.9,29.3c0,14.1,4.6,26.6,13.8,37.3c11.9,13.9,28.2,20.9,48.4,20.9
					c16.7,0,30.3-5.1,40.4-15.2c10.1-10.1,15.2-23.8,15.3-40.8l0-2.6h-50.8V579.3z"/>
				<rect x="1040.6" y="508.8" class="st1" width="15.7" height="111"/>
				<polygon class="st1" points="1191.3,619.8 1256.7,619.8 1256.7,604.2 1207.1,604.2 1207.1,567.8 1256.7,567.8 1256.7,552.3 
					1207.1,552.3 1207.1,524.3 1257.1,524.3 1257.1,508.8 1191.3,508.8 				"/>
				<polygon class="st1" points="1279.2,619.8 1344.6,619.8 1344.6,604.2 1294.9,604.2 1294.9,567.8 1344.6,567.8 1344.6,552.3 
					1294.9,552.3 1294.9,524.3 1345,524.3 1345,508.8 1279.2,508.8 				"/>
				<path class="st1" d="M1421.2,567c5.5-2.4,9.8-6.1,12.8-10.9c3-4.8,4.4-10.3,4.4-16.5c0-7.5-2.2-13.9-6.5-19.1
					c-4.3-5.1-9.9-8.6-16.7-10.1c-4.4-1-12.4-1.5-24.5-1.5h-23.7v111h15.7v-49.1h2.1l38.1,49.1h19.6l-38.2-49.3
					C1411.3,570.1,1416.9,568.9,1421.2,567z M1398.5,555.3l-15.7-0.1v-30.8h16.1c6.9,0,11.8,0.6,14.6,1.7c2.6,1.1,4.7,2.8,6.4,5.2
					c1.6,2.5,2.4,5.2,2.4,8.2c0,3.2-0.8,5.9-2.4,8.5c-1.6,2.5-3.8,4.3-6.7,5.4C1410.1,554.7,1405.1,555.3,1398.5,555.3z"/>
				<rect x="1464.7" y="508.8" class="st1" width="15.7" height="111"/>
				<path class="st1" d="M1682.6,563.9v15.4h33.2c-1.7,7.8-5.6,14.2-11.9,19.3c-7,5.7-15.8,8.6-26,8.6c-8.5,0-16.4-2-23.5-5.8
					c-7.1-3.9-12.7-9.2-16.7-16c-4-6.7-6-13.9-6-21.4c0-7.3,2-14.3,5.8-20.8c3.9-6.5,9.4-11.8,16.5-15.6c12.8-6.9,27-7.9,42-1.5
					c6.7,2.9,12.9,7.1,18.6,12.7l1.8,1.8l12-11.4l-2-1.9c-7.7-7.3-15.8-12.7-24-16.1c-8.2-3.3-17-5-26.3-5c-11.5,0-21.9,2.6-31,7.6
					c-9.1,5.1-16.4,12.2-21.7,21.2c-5.3,9-7.9,18.8-7.9,29.3c0,14.1,4.6,26.6,13.8,37.3c11.9,13.9,28.2,20.9,48.4,20.9
					c16.7,0,30.3-5.1,40.4-15.2c10.1-10.1,15.2-23.8,15.3-40.8l0-2.6H1682.6z"/>
				<g>
					<g>
						<polygon class="st1" points="722.5,525 696.3,525.2 735.5,564.5 696.2,603.9 722.5,603.9 761.9,564.3 						"/>
						<polygon class="st1" points="766.2,599.2 756.9,608.5 691.5,608.5 677.8,622.4 769.2,622.4 769.2,599.3 						"/>
						<polygon class="st1" points="766.2,529.3 756.9,520.1 691.5,520.1 677.8,506.2 769.2,506.2 769.2,529.3 						"/>
					</g>
					<polygon class="st1" points="860,582.9 796.8,509.7 796.1,508.8 787.7,508.8 787.8,550.8 801.3,564.3 787.7,577.9 787.7,619.7 
						806.1,619.7 806.1,545.8 870.7,619.7 878.5,619.7 878.5,508.8 860,508.8 					"/>
				</g>
				<polygon class="st1" points="1150.8,582.9 1087.6,509.7 1086.8,508.8 1078.4,508.8 1078.4,619.8 1096.8,619.8 1096.8,545.8 
					1161.4,619.8 1169.3,619.8 1169.3,508.8 1150.8,508.8 				"/>
				<polygon class="st1" points="1574.8,582.9 1511.6,509.7 1510.8,508.8 1502.5,508.8 1502.5,619.8 1520.9,619.8 1520.9,545.8 
					1585.5,619.8 1593.3,619.8 1593.3,508.8 1574.8,508.8 				"/>
			</g>
			<g>
				<path d="M162.2,590.6c-9.5,11.1-21.1,16.5-35.2,16.5c-12.7,0-23.4-4.1-31.7-12.2c-8.4-8.2-12.5-18.2-12.5-30.4
					c0-8,1.9-15.3,5.6-21.8c3.7-6.4,9-11.6,15.8-15.4c6.8-3.8,14.2-5.7,22.2-5.7c7.3,0,14.1,1.5,20.1,4.4
					c6.1,2.9,11.3,7.2,15.7,12.9l1.6,2l12.4-9.5l-1.5-2c-5.3-7.4-12.2-13.2-20.5-17.2c-8.3-4.1-17.7-6.1-27.9-6.1
					c-17,0-31.3,5.6-42.6,16.6c-11.3,11-17.1,24.8-17.1,41c0,15.3,4.7,28.5,14.1,39.4c11.2,12.9,26.6,19.4,45.8,19.4
					c10.1,0,19.3-1.9,27.5-5.8c8.2-3.8,15.2-9.3,20.7-16.3l1.6-2.1l-12.4-9.4L162.2,590.6z"/>
				<polygon points="264.9,553 216.2,553 216.2,508.6 200.4,508.6 200.4,619.6 216.2,619.6 216.2,568.5 264.9,568.5 264.9,619.6 
					280.6,619.6 280.6,508.6 264.9,508.6 				"/>
				<path d="M368.2,575.1c0,10.1-0.5,14.2-1,15.9c-0.9,3.4-2.3,6.3-4.2,8.6c-1.9,2.3-4.3,4.2-7.1,5.5c-6.2,2.9-13.2,2.6-19.9-0.6
					c-3.5-1.7-6.2-3.8-7.8-6.2c-1.7-2.4-2.8-5.6-3.3-9.4c-0.2-1.2-0.4-4.6-0.4-13.8v-66.5h-15.7v66.5c0,11.1,0.7,18.6,2.1,23
					c2.2,7.3,6.7,13.2,13.3,17.6c6.5,4.4,14.4,6.5,23.4,6.5c8.4,0,15.7-2.4,21.7-7c5.9-4.6,10-10.2,12-16.5c1.9-6.1,2.9-14,2.9-23.7
					v-66.5h-15.7V575.1z"/>
				<polygon points="425.9,508.6 410.2,508.6 410.2,619.6 466.6,619.6 466.6,604.2 425.9,604.2 				"/>
				<path d="M569.1,619.7h15.9l-51.8-111h-5.2l-52.4,111H492l17.4-36.7h42.5L569.1,619.7z M515.7,569.6l14.9-31.5l14.8,31.5H515.7z"
					/>
			</g>
		</g>
	</g>
</g>
</svg>
