<?xml version="1.0" encoding="utf-8"?>
<!-- Generator: Adobe Illustrator 19.1.0, SVG Export Plug-In . SVG Version: 6.00 Build 0)  -->
<svg version="1.1" id="Layer_1" xmlns="http://www.w3.org/2000/svg" xmlns:xlink="http://www.w3.org/1999/xlink" x="0px" y="0px"
	 viewBox="0 0 1800 1200" style="enable-background:new 0 0 1800 1200;" xml:space="preserve">
<style type="text/css">
	.st0{fill:none;}
	.st1{fill:#A21D2A;}
</style>
<g id="วิศว_xE2F__จุฬา_xE2F__Standard">
	<rect id="Exclusive_area" x="-7.5" y="433.5" class="st0" width="1815" height="333"/>
	<g>
		<g>
			<g>
				<path d="M426.3,657.4v14.5h6.7c0.8,0,1.4-0.1,2-0.2c0.6-0.2,1-0.4,1.4-0.8c0.4-0.4,0.7-0.9,0.9-1.6c0.2-0.7,0.4-1.5,0.5-2.5h1
					v12.5h-1c0-0.9-0.1-1.7-0.3-2.4s-0.4-1.2-0.8-1.6c-0.4-0.4-0.8-0.7-1.5-0.9c-0.6-0.2-1.4-0.3-2.3-0.3h-6.7v11.6
					c0,0.9,0,1.6,0.1,2.1c0,0.5,0.1,1,0.2,1.3c0.1,0.3,0.3,0.6,0.4,0.8c0.2,0.2,0.5,0.4,0.8,0.6c0.8,0.4,1.6,0.6,2.5,0.6h1.3v1
					h-15.9v-1h1.3c1.5,0,2.7-0.4,3.3-1.3c0.4-0.6,0.7-2,0.7-4.2l-0.1-23.9c0-0.9,0-1.6-0.1-2.1c0-0.5-0.1-1-0.2-1.3
					c-0.1-0.4-0.3-0.6-0.4-0.8c-0.2-0.2-0.4-0.4-0.8-0.6c-0.8-0.4-1.6-0.6-2.5-0.6h-1.3v-1l27.5-0.1v8.1h-0.6
					c-0.4-1.3-0.8-2.4-1.2-3.2s-1-1.4-1.6-1.9c-0.6-0.4-1.4-0.7-2.3-0.9c-0.9-0.1-1.9-0.2-3.1-0.2L426.3,657.4z"/>
				<path d="M471.1,666.6c1.8,0,3.4,0.3,4.9,1s2.7,1.6,3.8,2.8s1.9,2.5,2.5,4.1c0.6,1.5,0.9,3.2,0.9,4.9c0,1.8-0.3,3.5-0.9,5.2
					c-0.6,1.6-1.5,3.1-2.5,4.4c-1.1,1.3-2.4,2.3-3.9,3c-1.5,0.8-3.2,1.1-5,1.1s-3.4-0.4-4.8-1.1c-1.5-0.7-2.7-1.7-3.7-2.9
					s-1.8-2.6-2.4-4.2c-0.6-1.6-0.8-3.2-0.8-4.9s0.3-3.3,0.9-5c0.6-1.6,1.4-3.1,2.5-4.3c1.1-1.3,2.3-2.3,3.8-3.1
					C467.6,667,469.3,666.6,471.1,666.6z M470.2,668.3c-0.8,0-1.6,0.2-2.3,0.5s-1.4,0.9-1.9,1.7c-0.6,0.8-1,1.7-1.4,2.9
					c-0.3,1.2-0.5,2.6-0.5,4.4c0,1.8,0.2,3.4,0.6,5.1c0.4,1.6,0.9,3,1.6,4.3c0.7,1.2,1.5,2.2,2.5,2.9s2.1,1.1,3.3,1.1
					c0.9,0,1.7-0.2,2.4-0.5s1.4-0.9,1.9-1.6c0.5-0.8,1-1.8,1.3-3s0.5-2.8,0.5-4.6s-0.2-3.5-0.5-5.1c-0.4-1.6-0.9-3-1.5-4.2
					c-0.7-1.2-1.5-2.1-2.5-2.8C472.6,668.7,471.5,668.3,470.2,668.3z"/>
				<path d="M519.9,667.2v15.1c0,2.9,0.1,4.7,0.2,5.3c0.1,0.6,0.4,1.1,0.7,1.3c0.3,0.3,0.7,0.4,1.1,0.4c0.5,0,1.2-0.2,1.9-0.5
					l0.4,0.9l-7.5,3.1h-1.2v-5.3c-2.2,2.3-3.8,3.8-4.9,4.4c-1.1,0.6-2.3,0.9-3.6,0.9c-1.4,0-2.6-0.4-3.6-1.2s-1.7-1.8-2.2-3.2
					c-0.4-1.2-0.6-3-0.6-5.4v-11.2c0-0.8-0.1-1.5-0.2-2s-0.4-0.9-0.7-1.2s-0.7-0.5-1.2-0.6s-1.1-0.1-1.8-0.1h-0.3v-1h8.8v16.7
					c0,1.2,0.1,2.2,0.3,2.9s0.5,1.3,0.9,1.7s0.8,0.7,1.3,0.8s1,0.2,1.6,0.2c0.4,0,0.8,0,1.2-0.2c0.4-0.1,0.9-0.3,1.4-0.6
					s1-0.6,1.6-1.1s1.2-1,1.9-1.7v-14.2c0-0.7-0.1-1.3-0.2-1.8c-0.1-0.5-0.3-0.8-0.6-1.1s-0.7-0.5-1.2-0.6s-1.2-0.2-2-0.2v-1
					L519.9,667.2z"/>
				<path d="M544.4,671.7c2.9-3.5,5.7-5.3,8.4-5.3c0.9,0,1.8,0.2,2.6,0.5s1.5,0.8,2.1,1.6c0.6,0.7,1,1.7,1.4,2.9
					c0.3,1.2,0.5,2.7,0.5,4.5v10.7c0,1.1,0.1,1.9,0.2,2.5c0.1,0.6,0.3,1.1,0.6,1.4c0.3,0.3,0.7,0.5,1.2,0.6s1.1,0.1,1.9,0.1v1h-12.4
					v-1h0.5c0.8,0,1.5-0.1,1.9-0.2c0.5-0.1,0.8-0.4,1-0.7c0.2-0.4,0.4-0.8,0.5-1.4c0.1-0.6,0.1-1.4,0.1-2.3v-10.2
					c0-2.3-0.3-3.9-0.9-4.9c-0.6-1-1.6-1.5-3-1.5c-2.2,0-4.3,1.2-6.5,3.6v13.2c0,1.6,0.1,2.7,0.3,3.1c0.1,0.3,0.3,0.5,0.4,0.7
					c0.2,0.2,0.4,0.4,0.6,0.5c0.3,0.1,0.6,0.2,1,0.3c0.4,0,1,0.1,1.7,0.1v1h-12.4v-1h0.5c0.7,0,1.2-0.1,1.6-0.2
					c0.4-0.1,0.7-0.4,1-0.8c0.2-0.4,0.4-0.8,0.5-1.4c0.1-0.6,0.1-1.3,0.1-2.2v-9.3c0-3-0.1-4.8-0.2-5.5c-0.1-0.7-0.3-1.1-0.6-1.3
					s-0.7-0.3-1.1-0.3c-0.5,0-1.1,0.1-1.8,0.4l-0.4-1l7.5-3.1h1.2V671.7z"/>
				<path d="M593.9,689.2c-1.2,1.3-2.4,2.2-3.6,2.8c-1.1,0.6-2.4,0.8-3.8,0.8c-1.3,0-2.7-0.3-3.9-0.9c-1.2-0.6-2.3-1.5-3.3-2.5
					c-0.9-1.1-1.7-2.4-2.2-3.9c-0.6-1.5-0.8-3.1-0.8-4.9c0-3.6,1.1-6.9,3.4-9.8c2.3-3,5.2-4.5,8.7-4.5c2.2,0,4,0.7,5.5,2.1v-8.2
					c0-0.3,0-0.7,0-1.1c0-0.4,0-0.8-0.1-1.1s-0.3-0.6-0.5-0.9c-0.3-0.2-0.7-0.3-1.3-0.3c-0.5,0-1.1,0.1-1.9,0.4l-0.4-0.9l7.4-3.1
					h1.2l0.1,28.9c0,3,0.1,4.8,0.2,5.4c0.1,0.6,0.4,1.1,0.7,1.3c0.3,0.3,0.6,0.4,1,0.4c0.5,0,1.1-0.2,2-0.5l0.3,0.9l-7.4,3.1h-1.3
					L593.9,689.2L593.9,689.2z M593.9,687.3v-12.9c-0.1-1-0.3-2-0.7-2.7c-0.4-0.8-0.8-1.5-1.4-2c-0.5-0.6-1.1-1-1.8-1.3
					c-0.6-0.3-1.3-0.4-1.9-0.4c-1,0-1.9,0.2-2.7,0.8c-0.8,0.5-1.5,1.2-2.1,2.1c-0.6,0.9-1.1,2-1.4,3.3c-0.3,1.3-0.5,2.7-0.5,4.3
					c0,1.8,0.2,3.5,0.7,4.9c0.4,1.4,1,2.6,1.8,3.6c0.7,1,1.6,1.7,2.5,2.2s1.9,0.7,2.8,0.7C590.7,689.8,592.3,689,593.9,687.3z"/>
				<path d="M629.5,688.4c-2.5,2-4.2,3.2-4.8,3.4c-1,0.5-2,0.7-3.1,0.7c-0.9,0-1.6-0.2-2.4-0.5c-0.7-0.3-1.3-0.7-1.9-1.3
					c-0.5-0.6-0.9-1.2-1.2-2s-0.5-1.7-0.5-2.6c0-0.7,0.1-1.4,0.3-2s0.5-1.2,0.8-1.7c0.4-0.5,0.9-1.1,1.5-1.5c0.6-0.5,1.3-1,2.1-1.5
					c1.9-1.1,5-2.4,9.2-4v-1c0-1.2-0.1-2.3-0.3-3.1s-0.5-1.5-0.9-2s-0.9-0.9-1.5-1.1c-0.6-0.2-1.2-0.3-2-0.3c-0.6,0-1.1,0.1-1.6,0.3
					s-0.9,0.4-1.2,0.7s-0.6,0.6-0.7,1c-0.2,0.4-0.3,0.8-0.3,1.1l0.1,1.6c0,0.8-0.2,1.5-0.6,1.9c-0.4,0.4-1,0.7-1.7,0.7
					s-1.2-0.2-1.6-0.7c-0.4-0.5-0.6-1.1-0.7-1.9c0-0.8,0.2-1.5,0.6-2.3c0.4-0.8,1-1.4,1.8-2s1.7-1.1,2.9-1.5
					c1.1-0.4,2.4-0.5,3.9-0.5c1.9,0,3.6,0.3,4.9,0.8c1.3,0.6,2.3,1.5,2.9,2.9c0.3,0.8,0.5,2.4,0.5,4.8v8.5c0,1.2,0,2.2,0,2.9
					s0.1,1.2,0.1,1.5c0.1,0.5,0.2,0.9,0.5,1.1c0.2,0.2,0.4,0.3,0.7,0.3c0.2,0,0.4,0,0.5-0.1c0.2-0.1,0.3-0.2,0.6-0.3
					c0.2-0.2,0.5-0.4,0.8-0.7s0.7-0.7,1.1-1.1v1.5c-2,2.7-4,4.1-5.8,4.1c-0.9,0-1.6-0.3-2.1-0.9
					C629.8,690.9,629.5,689.9,629.5,688.4z M629.5,686.6v-9.5c-1.4,0.5-2.5,1-3.4,1.4s-1.5,0.7-1.9,0.9c-1.4,0.8-2.5,1.7-3.1,2.5
					c-0.6,0.9-0.9,1.8-0.9,2.9c0,0.6,0.1,1.3,0.3,1.8c0.2,0.6,0.5,1,0.8,1.5c0.4,0.4,0.8,0.7,1.2,0.9c0.5,0.2,1,0.3,1.5,0.3
					C625.4,689.3,627.2,688.4,629.5,686.6z"/>
				<path d="M658.5,658.7v8.2h5.8v1.9h-5.8V685c0,0.8,0.1,1.5,0.2,2c0.1,0.5,0.3,1,0.5,1.3s0.5,0.5,0.8,0.6s0.6,0.2,1,0.2
					c0.6,0,1.2-0.2,1.7-0.6c0.6-0.4,1-0.9,1.3-1.7h1.1c-0.3,0.9-0.7,1.7-1.2,2.3c-0.5,0.7-1,1.2-1.5,1.7c-0.5,0.4-1.1,0.8-1.7,1
					c-0.6,0.2-1.2,0.3-1.9,0.3c-0.4,0-0.8-0.1-1.3-0.2c-0.4-0.1-0.8-0.3-1.2-0.5s-0.7-0.5-1-0.8s-0.6-0.7-0.7-1.2
					c-0.4-0.9-0.6-2.2-0.6-4v-16.8h-4v-0.9c1-0.4,2-1.1,3.1-2c1-1,2-2.1,2.8-3.4c0.2-0.3,0.5-0.8,0.8-1.5c0.3-0.6,0.6-1.4,1-2.3h0.8
					L658.5,658.7L658.5,658.7z"/>
				<path d="M686.6,666.1v20.1c0,0.8,0,1.4,0.1,1.9s0.1,0.9,0.3,1.2c0.1,0.3,0.2,0.5,0.4,0.7s0.4,0.3,0.6,0.4
					c0.5,0.3,1.3,0.4,2.5,0.4v1h-12.1v-1c0.6,0,1.1,0,1.5-0.1s0.7-0.1,1-0.3c0.2-0.1,0.4-0.3,0.6-0.5c0.1-0.2,0.3-0.4,0.4-0.7
					c0.3-0.6,0.4-1.6,0.4-3.1v-9.6c0-1.6,0-2.8-0.1-3.7s-0.2-1.6-0.3-2c-0.1-0.5-0.3-0.7-0.6-0.9c-0.3-0.1-0.6-0.2-1-0.2
					c-0.5,0-1.1,0.1-1.9,0.4l-0.4-1l7.5-3.1L686.6,666.1L686.6,666.1z M684.3,653.1c0.4,0,0.7,0.1,1.1,0.2c0.3,0.1,0.6,0.3,0.9,0.6
					c0.2,0.2,0.4,0.5,0.6,0.9c0.1,0.3,0.2,0.7,0.2,1.1s-0.1,0.7-0.2,1.1c-0.1,0.3-0.3,0.6-0.6,0.9c-0.2,0.3-0.5,0.5-0.9,0.6
					c-0.3,0.2-0.7,0.2-1.1,0.2c-0.4,0-0.7-0.1-1.1-0.2c-0.3-0.1-0.6-0.3-0.9-0.6c-0.3-0.3-0.5-0.6-0.6-0.9c-0.1-0.3-0.2-0.7-0.2-1.1
					s0.1-0.7,0.2-1.1c0.2-0.3,0.3-0.6,0.6-0.9c0.2-0.2,0.5-0.4,0.9-0.6C683.5,653.1,683.9,653.1,684.3,653.1z"/>
				<path d="M716.9,666.1c1.8,0,3.4,0.3,4.8,1c1.5,0.7,2.8,1.6,3.8,2.8c1.1,1.2,1.9,2.5,2.5,4.1c0.6,1.5,0.9,3.2,0.9,4.9
					c0,1.8-0.3,3.5-0.9,5.2c-0.6,1.6-1.4,3.1-2.5,4.4c-1.1,1.3-2.4,2.3-3.9,3.1s-3.1,1.1-5,1.1c-1.8,0-3.4-0.4-4.8-1.1
					c-1.5-0.7-2.7-1.7-3.7-2.9s-1.8-2.6-2.4-4.2c-0.6-1.6-0.9-3.2-0.9-4.9s0.3-3.3,0.9-5c0.6-1.6,1.4-3.1,2.5-4.3
					c1.1-1.3,2.3-2.3,3.8-3C713.4,666.5,715.1,666.1,716.9,666.1z M716,667.9c-0.8,0-1.6,0.2-2.3,0.5s-1.4,0.9-2,1.6
					c-0.6,0.8-1,1.7-1.4,2.9c-0.3,1.2-0.5,2.6-0.5,4.3c0,1.8,0.2,3.5,0.6,5.1c0.4,1.6,0.9,3,1.6,4.3c0.7,1.2,1.5,2.2,2.5,2.9
					s2.1,1.1,3.3,1.1c0.9,0,1.7-0.2,2.4-0.5s1.4-0.9,1.9-1.6c0.5-0.8,1-1.7,1.3-3c0.3-1.2,0.5-2.7,0.5-4.6c0-1.8-0.2-3.5-0.5-5.1
					c-0.4-1.6-0.9-3-1.5-4.2c-0.7-1.2-1.5-2.1-2.5-2.8C718.4,668.2,717.3,667.9,716,667.9z"/>
				<path d="M751,671.3c2.9-3.5,5.7-5.3,8.4-5.3c0.9,0,1.8,0.1,2.6,0.5c0.8,0.3,1.5,0.8,2,1.5c0.6,0.7,1,1.7,1.4,2.9
					c0.3,1.2,0.5,2.7,0.5,4.5v10.7c0,1.1,0.1,1.9,0.2,2.5s0.3,1.1,0.6,1.4c0.3,0.3,0.7,0.5,1.2,0.6s1.1,0.1,1.9,0.1v1h-12.4v-1h0.5
					c0.8,0,1.5-0.1,1.9-0.2c0.5-0.1,0.8-0.4,1-0.7c0.2-0.4,0.4-0.8,0.4-1.4c0.1-0.6,0.1-1.4,0.1-2.3v-10.2c0-2.3-0.3-3.9-0.9-5
					c-0.6-1-1.6-1.5-3-1.5c-2.2,0-4.3,1.2-6.5,3.6v13.2c0,1.6,0.1,2.7,0.3,3.1c0.1,0.3,0.3,0.5,0.4,0.7c0.2,0.2,0.4,0.4,0.6,0.5
					c0.3,0.1,0.6,0.2,1,0.2c0.4,0.1,1,0.1,1.7,0.1v1h-12.4v-1h0.5c0.7,0,1.2-0.1,1.6-0.2c0.4-0.1,0.7-0.4,1-0.8
					c0.2-0.4,0.4-0.8,0.5-1.4c0.1-0.6,0.1-1.3,0.1-2.3v-9.3c0-3-0.1-4.8-0.2-5.5c-0.1-0.6-0.3-1.1-0.6-1.3c-0.3-0.2-0.7-0.4-1.1-0.4
					c-0.5,0-1.1,0.2-1.8,0.4l-0.4-1l7.5-3.1h1.2L751,671.3z"/>
				<path d="M815.2,658.4v8.2h5.8v1.9h-5.8v16.2c0,0.8,0.1,1.5,0.2,2s0.3,1,0.5,1.3s0.5,0.5,0.8,0.6s0.6,0.2,1,0.2
					c0.6,0,1.2-0.2,1.7-0.6c0.6-0.4,1-0.9,1.3-1.7h1.1c-0.3,0.9-0.7,1.7-1.2,2.4s-1,1.2-1.5,1.7c-0.5,0.4-1.1,0.8-1.7,1
					s-1.2,0.3-1.9,0.3c-0.4,0-0.8,0-1.3-0.2c-0.4-0.1-0.8-0.3-1.2-0.5s-0.7-0.5-1-0.8s-0.6-0.7-0.7-1.1c-0.4-0.9-0.6-2.2-0.6-4
					v-16.8h-4v-0.8c1-0.4,2-1.1,3.1-2.1c1-1,2-2.1,2.8-3.4c0.2-0.3,0.5-0.8,0.8-1.5c0.3-0.6,0.6-1.4,1-2.3H815.2z"/>
				<path d="M846.9,665.8c1.8,0,3.4,0.3,4.9,1s2.8,1.6,3.8,2.8c1.1,1.2,1.9,2.5,2.5,4c0.6,1.6,0.9,3.2,0.9,4.9
					c0,1.8-0.3,3.5-0.9,5.2c-0.6,1.6-1.5,3.1-2.5,4.4c-1.1,1.3-2.4,2.3-3.9,3.1s-3.2,1.1-5,1.1s-3.4-0.4-4.8-1.1
					c-1.4-0.7-2.7-1.7-3.7-2.9s-1.8-2.6-2.4-4.2c-0.6-1.6-0.9-3.2-0.9-4.9s0.3-3.3,0.9-5c0.6-1.6,1.4-3.1,2.5-4.3
					c1.1-1.3,2.3-2.3,3.8-3C843.5,666.2,845.1,665.8,846.9,665.8z M846.1,667.6c-0.8,0-1.6,0.2-2.3,0.5c-0.7,0.3-1.4,0.9-2,1.6
					c-0.6,0.8-1,1.7-1.4,2.9c-0.3,1.2-0.5,2.6-0.5,4.4c0,1.8,0.2,3.5,0.6,5.1s0.9,3,1.6,4.3c0.7,1.2,1.5,2.2,2.5,2.9
					s2.1,1.1,3.3,1.1c0.9,0,1.7-0.2,2.4-0.5s1.4-0.9,1.9-1.6c0.5-0.8,1-1.7,1.3-3c0.3-1.2,0.5-2.8,0.5-4.6s-0.2-3.5-0.5-5.1
					c-0.4-1.6-0.9-3-1.5-4.2c-0.7-1.2-1.5-2.1-2.5-2.8C848.4,667.9,847.3,667.6,846.1,667.6z"/>
				<path d="M872.4,666.5h10.5v1c-1,0.1-1.6,0.2-1.9,0.5s-0.4,0.7-0.4,1.2s0.2,1.2,0.5,2.1l5.4,14.4l5.3-11.7l-1.4-3.7
					c-0.2-0.5-0.4-0.8-0.6-1.2c-0.2-0.3-0.4-0.6-0.7-0.8c-0.3-0.2-0.7-0.4-1.1-0.5s-1-0.2-1.6-0.2v-1h11.9v1
					c-1.1,0.1-1.9,0.2-2.5,0.5s-0.8,0.8-0.8,1.6c0,0.4,0.1,0.8,0.2,1.1l5.7,14.3l5.2-13.8c0.4-1,0.5-1.8,0.5-2.3
					c0-0.4-0.2-0.7-0.5-0.9c-0.4-0.3-1.1-0.4-2.1-0.5v-1h7.9v1c-1.6,0.3-2.8,1.3-3.5,3.2l-8.3,21.5H899l-6.3-16l-7.3,16h-1l-8.1-21
					c-0.2-0.7-0.5-1.2-0.7-1.6c-0.2-0.4-0.5-0.8-0.8-1c-0.3-0.3-0.6-0.5-1-0.6s-0.9-0.3-1.4-0.4L872.4,666.5z"/>
				<path d="M939.5,687.8c-2.6,2-4.2,3.2-4.8,3.4c-1,0.5-2,0.7-3.1,0.7c-0.9,0-1.6-0.2-2.4-0.5c-0.7-0.3-1.4-0.7-1.9-1.3
					s-0.9-1.2-1.2-2s-0.5-1.7-0.5-2.6c0-0.7,0.1-1.4,0.3-2c0.2-0.6,0.5-1.2,0.9-1.7s0.9-1.1,1.5-1.5c0.6-0.5,1.3-1,2.1-1.5
					c1.9-1.1,4.9-2.4,9.2-4v-1c0-1.2-0.1-2.3-0.3-3.1c-0.2-0.8-0.5-1.5-0.9-2s-0.9-0.9-1.5-1.1c-0.6-0.2-1.2-0.3-2-0.3
					c-0.6,0-1.1,0.1-1.6,0.3s-0.9,0.4-1.2,0.7s-0.6,0.6-0.8,1c-0.2,0.4-0.2,0.7-0.2,1.1v1.6c0,0.8-0.2,1.5-0.6,1.9
					c-0.4,0.5-1,0.7-1.7,0.7s-1.2-0.2-1.6-0.7s-0.7-1.1-0.7-1.9c0-0.8,0.2-1.5,0.6-2.3c0.4-0.7,1-1.4,1.8-2s1.7-1.1,2.9-1.5
					c1.1-0.4,2.4-0.5,3.9-0.6c1.9,0,3.6,0.3,4.9,0.8c1.3,0.6,2.3,1.5,2.9,2.9c0.3,0.8,0.5,2.4,0.5,4.8v8.5c0,1.2,0,2.2,0.1,2.9
					c0,0.7,0.1,1.2,0.1,1.5c0.1,0.5,0.2,0.9,0.5,1.1c0.2,0.2,0.4,0.3,0.7,0.3c0.2,0,0.4,0,0.5-0.1c0.2-0.1,0.4-0.2,0.6-0.3
					c0.2-0.2,0.5-0.4,0.8-0.7s0.7-0.6,1.1-1.1v1.5c-2,2.7-4,4.1-5.8,4.1c-0.9,0-1.6-0.3-2.1-0.9
					C939.8,690.3,939.5,689.3,939.5,687.8z M939.5,686v-9.5c-1.4,0.6-2.5,1-3.4,1.4s-1.5,0.7-1.9,0.9c-1.4,0.8-2.5,1.7-3.1,2.5
					c-0.6,0.9-0.9,1.8-0.9,2.9c0,0.6,0.1,1.3,0.3,1.8c0.2,0.6,0.5,1,0.9,1.4s0.8,0.7,1.2,1c0.5,0.2,1,0.3,1.5,0.3
					C935.4,688.7,937.3,687.8,939.5,686z"/>
				<path d="M968.6,665.6v5.6c2.1-3.8,4.3-5.6,6.4-5.6c0.5,0,0.9,0.1,1.4,0.2c0.4,0.2,0.8,0.4,1.1,0.7s0.6,0.6,0.7,1
					c0.2,0.4,0.3,0.8,0.3,1.1c0,0.7-0.2,1.3-0.7,1.8s-1,0.7-1.7,0.7c-0.3,0-0.7-0.1-1-0.3c-0.4-0.2-0.8-0.4-1.1-0.6
					c-0.4-0.2-0.7-0.4-1-0.6c-0.3-0.2-0.5-0.3-0.7-0.3s-0.5,0.1-0.8,0.3s-0.6,0.5-0.9,0.9s-0.6,0.8-1,1.3c-0.3,0.5-0.6,1.1-1,1.7v12
					c0,0.7,0.1,1.4,0.1,2c0.1,0.6,0.3,1.1,0.6,1.5s0.7,0.7,1.3,1c0.6,0.2,1.4,0.3,2.3,0.3v1h-12.8v-1c0.8,0,1.5-0.1,2-0.2
					c0.5-0.1,0.9-0.3,1.2-0.7c0.3-0.3,0.5-0.8,0.6-1.4c0.1-0.6,0.2-1.4,0.2-2.4v-9.7c0-3-0.1-4.7-0.2-5.2c-0.2-1.1-0.9-1.6-1.8-1.6
					c-0.6,0-1.2,0.1-1.9,0.4l-0.3-1l7.6-3.1L968.6,665.6z"/>
				<path d="M1008.7,688.4c-1.2,1.3-2.4,2.2-3.5,2.7c-1.2,0.5-2.4,0.8-3.8,0.8s-2.7-0.3-3.9-0.9c-1.2-0.6-2.3-1.5-3.2-2.5
					c-0.9-1.1-1.7-2.4-2.2-3.9c-0.6-1.5-0.8-3.1-0.8-4.9c0-3.6,1.1-6.9,3.4-9.8c2.3-3,5.2-4.5,8.7-4.5c2.2,0,4,0.7,5.5,2.1v-8.2
					c0-0.3,0-0.7,0-1.1c0-0.4,0-0.8-0.1-1.1s-0.3-0.6-0.5-0.8c-0.3-0.2-0.7-0.3-1.3-0.3c-0.5,0-1.1,0.2-1.9,0.4l-0.4-1l7.4-3.1h1.2
					l0.1,28.9c0,3,0.1,4.8,0.2,5.4c0.1,0.6,0.4,1.1,0.7,1.3c0.3,0.2,0.6,0.4,1.1,0.4s1.1-0.1,2-0.5l0.3,0.9l-7.4,3.1h-1.3
					L1008.7,688.4z M1008.7,686.5v-12.9c-0.1-1-0.3-2-0.7-2.8c-0.4-0.8-0.8-1.5-1.4-2c-0.5-0.6-1.1-1-1.8-1.3s-1.3-0.4-1.9-0.4
					c-1,0-1.9,0.3-2.7,0.8c-0.8,0.5-1.5,1.2-2.1,2.1c-0.6,0.9-1.1,2-1.4,3.3s-0.5,2.7-0.5,4.3c0,1.8,0.2,3.5,0.7,4.9
					c0.4,1.4,1,2.6,1.8,3.6c0.7,1,1.6,1.7,2.5,2.2s1.9,0.7,2.8,0.7C1005.6,689,1007.2,688.2,1008.7,686.5z"/>
				<path d="M1070.9,690.1v1h-15.8v-1h1.3c1.5,0,2.7-0.4,3.3-1.3c0.4-0.6,0.7-2,0.6-4.2l-0.1-23.9c0-0.9,0-1.6-0.1-2.1
					c0-0.6-0.1-1-0.2-1.4c-0.1-0.3-0.2-0.6-0.4-0.8c-0.2-0.2-0.5-0.4-0.8-0.6c-0.8-0.4-1.6-0.7-2.5-0.7h-1.3v-1h15.8v1h-1.3
					c-1.5,0-2.6,0.4-3.3,1.3c-0.4,0.6-0.7,2-0.7,4.2l0.1,23.9c0,0.9,0,1.6,0.1,2.1c0,0.5,0.1,1,0.2,1.3s0.3,0.6,0.5,0.8
					s0.5,0.4,0.8,0.6c0.8,0.4,1.6,0.7,2.5,0.7L1070.9,690.1z"/>
				<path d="M1092.4,670.6c2.9-3.5,5.7-5.3,8.4-5.3c0.9,0,1.8,0.2,2.6,0.5c0.8,0.3,1.5,0.8,2,1.6c0.6,0.7,1,1.7,1.4,2.9
					c0.3,1.2,0.5,2.7,0.5,4.5v10.7c0,1.1,0.1,1.9,0.2,2.5s0.3,1.1,0.6,1.4c0.3,0.3,0.7,0.5,1.2,0.6s1.1,0.1,1.9,0.1v1h-12.4v-1h0.5
					c0.8,0,1.5-0.1,1.9-0.2c0.5-0.2,0.8-0.4,1-0.8c0.2-0.4,0.4-0.8,0.5-1.4c0.1-0.6,0.1-1.3,0.1-2.3v-10.2c0-2.3-0.3-3.9-0.9-5
					c-0.6-1-1.6-1.5-3-1.5c-2.2,0-4.3,1.2-6.5,3.6v13.2c0,1.7,0.1,2.7,0.3,3.1c0.1,0.3,0.3,0.5,0.4,0.7c0.2,0.2,0.4,0.4,0.6,0.5
					c0.3,0.1,0.6,0.2,1,0.2s1,0.1,1.7,0.1v1H1084v-1h0.5c0.7,0,1.2-0.1,1.6-0.2c0.4-0.1,0.8-0.4,1-0.8c0.2-0.4,0.4-0.8,0.5-1.4
					c0.1-0.6,0.1-1.3,0.1-2.3v-9.3c0-3-0.1-4.8-0.2-5.5c-0.1-0.6-0.3-1.1-0.6-1.3c-0.3-0.2-0.7-0.4-1.1-0.4c-0.5,0-1.1,0.1-1.8,0.4
					l-0.4-1l7.5-3.1h1.2L1092.4,670.6z"/>
				<path d="M1131.5,670.6c2.9-3.5,5.7-5.3,8.4-5.3c0.9,0,1.8,0.2,2.6,0.5c0.8,0.3,1.5,0.8,2.1,1.5s1,1.7,1.4,2.9
					c0.3,1.2,0.5,2.7,0.5,4.5v10.7c0,1.1,0.1,1.9,0.2,2.5s0.3,1.1,0.6,1.4c0.3,0.3,0.7,0.5,1.2,0.6s1.1,0.1,1.9,0.1v1H1138v-1h0.5
					c0.8,0,1.5-0.1,1.9-0.2c0.5-0.2,0.8-0.4,1-0.8c0.2-0.4,0.4-0.8,0.4-1.4c0.1-0.6,0.1-1.3,0.1-2.3v-10.2c0-2.3-0.3-3.9-0.9-5
					c-0.6-1-1.6-1.5-3-1.5c-2.2,0-4.3,1.2-6.5,3.6v13.2c0,1.6,0.1,2.7,0.3,3.1c0.1,0.3,0.3,0.5,0.4,0.7c0.2,0.2,0.4,0.4,0.6,0.5
					c0.3,0.1,0.6,0.2,1,0.3c0.4,0,1,0.1,1.7,0.1v1h-12.4v-1h0.5c0.6,0,1.2-0.1,1.6-0.2c0.4-0.2,0.8-0.4,1-0.8
					c0.2-0.4,0.4-0.8,0.5-1.4c0.1-0.6,0.1-1.3,0.1-2.2v-9.3c0-3-0.1-4.8-0.2-5.5s-0.3-1.1-0.6-1.4c-0.3-0.2-0.7-0.3-1.1-0.3
					c-0.5,0-1.1,0.1-1.8,0.4l-0.4-1l7.5-3.1h1.2L1131.5,670.6z"/>
				<path d="M1175.5,665.2c1.8,0,3.4,0.3,4.9,1s2.7,1.6,3.8,2.8c1.1,1.2,1.9,2.5,2.5,4.1s0.9,3.2,0.9,4.9c0,1.8-0.3,3.5-0.9,5.2
					c-0.6,1.6-1.4,3.1-2.5,4.4c-1.1,1.3-2.4,2.3-3.9,3c-1.5,0.8-3.2,1.1-5,1.1s-3.4-0.4-4.8-1.1c-1.4-0.7-2.7-1.7-3.7-2.9
					s-1.8-2.6-2.4-4.2c-0.6-1.6-0.8-3.2-0.8-4.8c0-1.7,0.3-3.3,0.8-5c0.6-1.6,1.4-3.1,2.5-4.3c1.1-1.3,2.3-2.3,3.8-3.1
					C1172.1,665.6,1173.7,665.2,1175.5,665.2z M1174.7,667c-0.8,0-1.6,0.2-2.3,0.5c-0.8,0.3-1.4,0.9-2,1.6c-0.6,0.8-1,1.7-1.4,2.9
					c-0.3,1.2-0.5,2.6-0.5,4.4c0,1.8,0.2,3.5,0.6,5.1s0.9,3,1.6,4.3c0.7,1.2,1.5,2.2,2.5,2.9s2.1,1.1,3.3,1.1c0.9,0,1.7-0.2,2.4-0.5
					c0.7-0.3,1.4-0.9,1.9-1.7s1-1.7,1.3-3c0.3-1.2,0.5-2.8,0.5-4.6s-0.2-3.5-0.5-5.1s-0.9-3-1.5-4.2c-0.7-1.2-1.5-2.1-2.5-2.8
					C1177,667.3,1175.9,667,1174.7,667z"/>
				<path d="M1201.1,665.9h11.7v1h-0.8c-0.7,0-1.3,0.2-1.6,0.5c-0.4,0.3-0.6,0.8-0.6,1.4c0,0.6,0.2,1.4,0.6,2.3l5.8,13.8l5.8-14.3
					c0.4-1,0.6-1.8,0.6-2.3s-0.2-0.9-0.7-1.1c-0.4-0.2-1.2-0.3-2.2-0.3v-1h8.2v1c-0.6,0-1.1,0.2-1.4,0.3c-0.4,0.1-0.7,0.3-0.9,0.6
					c-0.3,0.3-0.5,0.6-0.7,1s-0.4,0.9-0.6,1.4l-8.8,21.5h-1.1l-9-21.1c-0.3-0.7-0.5-1.2-0.8-1.6c-0.3-0.4-0.5-0.8-0.9-1
					c-0.3-0.3-0.7-0.5-1.1-0.6c-0.4-0.2-1-0.3-1.6-0.3L1201.1,665.9L1201.1,665.9z"/>
				<path d="M1255.7,687.2c-2.6,2-4.2,3.2-4.8,3.4c-1,0.4-2,0.7-3.1,0.7c-0.9,0-1.6-0.1-2.4-0.5c-0.7-0.3-1.4-0.7-1.9-1.3
					s-0.9-1.2-1.2-2c-0.3-0.8-0.5-1.7-0.5-2.6c0-0.7,0.1-1.4,0.3-2c0.2-0.6,0.5-1.2,0.9-1.7s0.9-1,1.5-1.5s1.3-1,2.1-1.5
					c1.9-1.1,4.9-2.4,9.2-4v-1c0-1.3-0.1-2.3-0.3-3.1c-0.2-0.8-0.5-1.5-0.9-2s-0.9-0.8-1.5-1.1c-0.6-0.2-1.2-0.3-2-0.3
					c-0.6,0-1.1,0.1-1.6,0.3s-0.9,0.4-1.2,0.7c-0.3,0.3-0.6,0.6-0.7,1c-0.2,0.4-0.3,0.8-0.3,1.1l0.1,1.6c0,0.8-0.2,1.5-0.6,1.9
					c-0.4,0.5-1,0.7-1.7,0.7s-1.2-0.2-1.7-0.7c-0.4-0.5-0.6-1.1-0.6-1.9c0-0.8,0.2-1.5,0.6-2.3c0.4-0.7,1-1.4,1.8-2s1.7-1.1,2.9-1.5
					c1.1-0.4,2.4-0.5,3.9-0.6c1.9,0,3.6,0.3,4.9,0.8c1.3,0.6,2.3,1.5,2.9,2.9c0.3,0.8,0.5,2.4,0.5,4.8v8.5c0,1.2,0,2.2,0,2.9
					s0.1,1.2,0.1,1.5c0.1,0.5,0.2,0.9,0.5,1.1c0.2,0.2,0.4,0.3,0.7,0.3c0.2,0,0.4,0,0.5-0.1c0.2-0.1,0.4-0.2,0.6-0.3
					c0.2-0.2,0.5-0.4,0.8-0.7s0.7-0.6,1.1-1.1v1.5c-2.1,2.7-4,4.1-5.8,4.1c-0.9,0-1.6-0.3-2.1-0.9
					C1256,689.7,1255.7,688.6,1255.7,687.2z M1255.7,685.4v-9.5c-1.4,0.5-2.5,1-3.4,1.4s-1.5,0.7-1.9,0.9c-1.4,0.8-2.5,1.7-3.1,2.5
					c-0.6,0.9-0.9,1.8-0.9,2.9c0,0.7,0.1,1.2,0.3,1.8c0.2,0.5,0.5,1,0.9,1.4s0.8,0.7,1.2,1c0.5,0.2,1,0.3,1.5,0.3
					C1251.6,688.1,1253.4,687.2,1255.7,685.4z"/>
				<path d="M1284.7,657.5v8.2h5.8v1.9h-5.8v16.2c0,0.8,0.1,1.5,0.2,2s0.3,1,0.5,1.3s0.5,0.5,0.8,0.6s0.6,0.2,1,0.2
					c0.6,0,1.2-0.2,1.7-0.6c0.6-0.4,1-0.9,1.3-1.7h1.1c-0.3,0.9-0.7,1.7-1.2,2.4s-1,1.2-1.5,1.7c-0.5,0.4-1.1,0.8-1.7,1
					s-1.2,0.4-1.9,0.4c-0.4,0-0.8-0.1-1.3-0.2c-0.4-0.1-0.8-0.3-1.2-0.5c-0.4-0.2-0.7-0.5-1-0.8s-0.6-0.7-0.7-1.1
					c-0.4-0.9-0.6-2.2-0.6-4v-16.8h-3.9v-1c1-0.4,2-1.1,3.1-2c1-1,2-2.1,2.8-3.4c0.2-0.3,0.5-0.8,0.8-1.5c0.3-0.6,0.6-1.4,1-2.3
					H1284.7z"/>
				<path d="M1312.8,664.9V685c0,0.8,0,1.5,0.1,2s0.1,0.9,0.3,1.2c0.1,0.3,0.2,0.5,0.4,0.7c0.2,0.2,0.4,0.3,0.6,0.4
					c0.5,0.3,1.3,0.4,2.5,0.4v1h-12.1v-1c0.6,0,1.1,0,1.5-0.1s0.7-0.1,1-0.3c0.2-0.1,0.4-0.3,0.6-0.5c0.1-0.2,0.3-0.4,0.4-0.7
					c0.3-0.6,0.4-1.6,0.4-3.1v-9.6c0-1.6,0-2.8-0.1-3.7c0-0.9-0.2-1.6-0.3-2c-0.1-0.5-0.3-0.7-0.6-0.9c-0.3-0.1-0.6-0.2-1-0.2
					c-0.5,0-1.1,0.1-1.8,0.4l-0.4-1l7.5-3.1L1312.8,664.9L1312.8,664.9z M1310.5,651.9c0.4,0,0.7,0.1,1.1,0.2
					c0.3,0.1,0.6,0.3,0.9,0.6c0.2,0.2,0.4,0.5,0.6,0.9c0.1,0.3,0.2,0.7,0.2,1.1c0,0.4-0.1,0.7-0.2,1.1c-0.1,0.3-0.3,0.6-0.6,0.9
					c-0.2,0.3-0.5,0.5-0.9,0.6c-0.3,0.1-0.7,0.2-1.1,0.2s-0.7-0.1-1.1-0.2c-0.3-0.1-0.6-0.3-0.9-0.6c-0.3-0.2-0.5-0.6-0.6-0.9
					s-0.2-0.7-0.2-1.1c0-0.4,0.1-0.7,0.2-1.1c0.1-0.3,0.3-0.6,0.6-0.9c0.2-0.2,0.5-0.4,0.9-0.6
					C1309.8,651.9,1310.1,651.9,1310.5,651.9z"/>
				<path d="M1343.1,664.9c1.8,0,3.4,0.3,4.9,1s2.7,1.6,3.8,2.8c1.1,1.2,1.9,2.5,2.5,4.1s0.9,3.2,0.9,4.9c0,1.8-0.3,3.5-0.9,5.2
					s-1.5,3.1-2.5,4.4c-1.1,1.3-2.4,2.3-3.9,3c-1.5,0.8-3.2,1.1-5,1.1s-3.4-0.4-4.8-1.1c-1.4-0.7-2.7-1.7-3.7-2.9s-1.8-2.6-2.4-4.2
					c-0.6-1.6-0.8-3.2-0.8-4.9s0.3-3.3,0.9-5c0.6-1.6,1.4-3.1,2.5-4.3s2.3-2.3,3.8-3C1339.6,665.2,1341.3,664.9,1343.1,664.9z
					 M1342.2,666.6c-0.8,0-1.6,0.2-2.3,0.5c-0.7,0.3-1.4,0.9-2,1.6c-0.6,0.8-1,1.7-1.4,2.9c-0.3,1.2-0.5,2.6-0.5,4.3
					c0,1.8,0.2,3.5,0.6,5.1s0.9,3,1.6,4.3c0.7,1.2,1.5,2.2,2.5,2.9s2.1,1.1,3.3,1.1c0.9,0,1.7-0.2,2.4-0.5c0.7-0.3,1.4-0.9,1.9-1.6
					c0.5-0.7,1-1.7,1.3-3s0.5-2.8,0.5-4.6s-0.2-3.5-0.5-5.1s-0.8-3-1.5-4.1c-0.7-1.2-1.5-2.1-2.5-2.8
					C1344.6,667,1343.5,666.6,1342.2,666.6z"/>
				<path d="M1377.3,670.1c2.9-3.5,5.7-5.3,8.4-5.3c0.9,0,1.8,0.1,2.6,0.4c0.8,0.3,1.5,0.8,2,1.6c0.6,0.7,1,1.7,1.4,2.9
					c0.3,1.2,0.5,2.7,0.5,4.5v10.7c0,1.1,0.1,1.9,0.2,2.5s0.3,1.1,0.6,1.4c0.3,0.3,0.7,0.5,1.2,0.6s1.1,0.1,1.8,0.1v1h-12.4v-1h0.5
					c0.8,0,1.5-0.1,1.9-0.2c0.5-0.1,0.8-0.4,1-0.7c0.2-0.4,0.4-0.8,0.5-1.4c0.1-0.6,0.1-1.4,0.1-2.3v-10.2c0-2.3-0.3-3.9-0.9-5
					c-0.6-1-1.6-1.5-3-1.5c-2.2,0-4.3,1.2-6.5,3.6V685c0,1.7,0.1,2.7,0.3,3.1c0.1,0.3,0.3,0.5,0.4,0.7c0.2,0.2,0.4,0.3,0.6,0.5
					c0.3,0.1,0.6,0.2,1,0.3s1,0.1,1.7,0.1v1h-12.4v-1h0.5c0.6,0,1.2-0.1,1.6-0.2c0.4-0.1,0.8-0.4,1-0.8c0.2-0.4,0.4-0.9,0.5-1.4
					c0.1-0.6,0.1-1.3,0.1-2.3v-9.3c0-3-0.1-4.8-0.2-5.5s-0.3-1.1-0.6-1.3c-0.3-0.2-0.7-0.4-1.1-0.4c-0.5,0-1.1,0.1-1.8,0.4l-0.4-1
					l7.5-3.1h1.2L1377.3,670.1z"/>
			</g>
			<g>
				<path class="st1" d="M967.9,578h33.2c-1.7,7.8-5.6,14.2-11.9,19.3c-7,5.7-15.8,8.6-26,8.6c-8.5,0-16.4-2-23.5-5.8
					c-7.1-3.9-12.7-9.2-16.7-16c-4-6.7-6-13.9-6-21.4c0-7.3,2-14.3,5.8-20.8c3.9-6.5,9.4-11.8,16.4-15.6c12.8-6.9,27-7.9,42-1.5
					c6.7,2.9,12.9,7.1,18.6,12.7l1.8,1.8l12-11.4l-2-1.9c-7.7-7.3-15.8-12.7-24-16.1c-8.2-3.3-17-5-26.3-5c-11.5,0-21.9,2.6-31,7.6
					c-9.1,5.1-16.4,12.2-21.7,21.2c-5.2,9-7.9,18.8-7.9,29.3c0,14.1,4.6,26.6,13.8,37.3c11.9,13.9,28.2,20.9,48.4,20.9
					c16.7,0,30.3-5.1,40.4-15.2s15.2-23.8,15.3-40.8v-2.6h-50.8L967.9,578L967.9,578z"/>
				<rect x="1040.7" y="507.5" class="st1" width="15.7" height="111"/>
				<polygon class="st1" points="1191.4,618.5 1256.8,618.5 1256.8,602.9 1207.2,602.9 1207.2,566.5 1256.8,566.5 1256.8,551 
					1207.2,551 1207.2,523 1257.2,523 1257.2,507.5 1191.4,507.5 				"/>
				<polygon class="st1" points="1279.3,618.5 1344.7,618.5 1344.7,602.9 1295,602.9 1295,566.5 1344.7,566.5 1344.7,551 1295,551 
					1295,523 1345.1,523 1345.1,507.5 1279.3,507.5 				"/>
				<path class="st1" d="M1421.3,565.7c5.5-2.4,9.8-6.1,12.8-10.9c3-4.8,4.4-10.3,4.4-16.5c0-7.5-2.2-13.9-6.5-19.1
					c-4.3-5.1-9.9-8.6-16.7-10.1c-4.4-1-12.4-1.5-24.5-1.5h-23.7v111h15.7v-49.1h2.1l38.1,49.1h19.6l-38.2-49.3
					C1411.4,568.8,1417,567.6,1421.3,565.7z M1398.6,554l-15.7-0.1v-30.8h16.1c6.9,0,11.8,0.6,14.6,1.7c2.6,1.1,4.7,2.8,6.4,5.2
					c1.6,2.5,2.4,5.2,2.4,8.2c0,3.2-0.8,5.9-2.4,8.5c-1.6,2.5-3.8,4.3-6.7,5.4C1410.2,553.4,1405.2,554,1398.6,554z"/>
				<rect x="1464.8" y="507.5" class="st1" width="15.7" height="111"/>
				<path class="st1" d="M1682.7,562.6V578h33.2c-1.7,7.8-5.6,14.2-11.9,19.3c-7,5.7-15.8,8.6-26,8.6c-8.5,0-16.4-2-23.5-5.8
					c-7.1-3.9-12.7-9.2-16.7-16c-4-6.7-6-13.9-6-21.4c0-7.3,2-14.3,5.8-20.8c3.9-6.5,9.4-11.8,16.5-15.6c12.8-6.9,27-7.9,42-1.5
					c6.7,2.9,12.9,7.1,18.6,12.7l1.8,1.8l12-11.4l-2-1.9c-7.7-7.3-15.8-12.7-24-16.1c-8.2-3.3-17-5-26.3-5c-11.5,0-21.9,2.6-31,7.6
					c-9.1,5.1-16.4,12.2-21.7,21.2c-5.3,9-7.9,18.8-7.9,29.3c0,14.1,4.6,26.6,13.8,37.3c11.9,13.9,28.2,20.9,48.4,20.9
					c16.7,0,30.3-5.1,40.4-15.2s15.2-23.8,15.3-40.8v-2.6H1682.7z"/>
				<g>
					<g>
						<polygon class="st1" points="722.6,523.7 696.4,523.9 735.6,563.2 696.3,602.6 722.6,602.6 762,563 						"/>
						<polygon class="st1" points="766.3,597.9 757,607.2 691.6,607.2 677.9,621.1 769.3,621.1 769.3,598 						"/>
						<polygon class="st1" points="766.3,528 757,518.8 691.6,518.8 677.9,504.9 769.3,504.9 769.3,528 						"/>
					</g>
					<polygon class="st1" points="860.1,581.6 796.9,508.4 796.2,507.5 787.8,507.5 787.9,549.5 801.4,563 787.8,576.6 787.8,618.4 
						806.2,618.4 806.2,544.5 870.8,618.4 878.6,618.4 878.6,507.5 860.1,507.5 					"/>
				</g>
				<polygon class="st1" points="1150.9,581.6 1087.7,508.4 1086.9,507.5 1078.5,507.5 1078.5,618.5 1096.9,618.5 1096.9,544.5 
					1161.5,618.5 1169.4,618.5 1169.4,507.5 1150.9,507.5 				"/>
				<polygon class="st1" points="1574.9,581.6 1511.7,508.4 1510.9,507.5 1502.6,507.5 1502.6,618.5 1521,618.5 1521,544.5 
					1585.6,618.5 1593.4,618.5 1593.4,507.5 1574.9,507.5 				"/>
			</g>
			<g>
				<path d="M162.3,589.3c-9.5,11.1-21.1,16.5-35.2,16.5c-12.7,0-23.4-4.1-31.7-12.2c-8.4-8.2-12.5-18.2-12.5-30.4
					c0-8,1.9-15.3,5.6-21.8c3.7-6.4,9-11.6,15.8-15.4c6.8-3.8,14.2-5.7,22.2-5.7c7.3,0,14.1,1.5,20.1,4.4
					c6.1,2.9,11.3,7.2,15.7,12.9l1.6,2l12.4-9.5l-1.5-2c-5.3-7.4-12.2-13.2-20.5-17.2c-8.3-4.1-17.7-6.1-27.9-6.1
					c-17,0-31.3,5.6-42.6,16.6c-11.3,11-17.1,24.8-17.1,41c0,15.3,4.7,28.5,14.1,39.4c11.2,12.9,26.6,19.4,45.8,19.4
					c10.1,0,19.3-1.9,27.5-5.8c8.2-3.8,15.2-9.3,20.7-16.3l1.6-2.1l-12.4-9.4L162.3,589.3z"/>
				<polygon points="265,551.7 216.3,551.7 216.3,507.3 200.5,507.3 200.5,618.3 216.3,618.3 216.3,567.2 265,567.2 265,618.3 
					280.7,618.3 280.7,507.3 265,507.3 				"/>
				<path d="M368.3,573.8c0,10.1-0.5,14.2-1,15.9c-0.9,3.4-2.3,6.3-4.2,8.6c-1.9,2.3-4.3,4.2-7.1,5.5c-6.2,2.9-13.2,2.6-19.9-0.6
					c-3.5-1.7-6.2-3.8-7.8-6.2c-1.7-2.4-2.8-5.6-3.3-9.4c-0.2-1.2-0.4-4.6-0.4-13.8v-66.5h-15.7v66.5c0,11.1,0.7,18.6,2.1,23
					c2.2,7.3,6.7,13.2,13.3,17.6c6.5,4.4,14.4,6.5,23.4,6.5c8.4,0,15.7-2.4,21.7-7c5.9-4.6,10-10.2,12-16.5c1.9-6.1,2.9-14,2.9-23.7
					v-66.5h-15.7v66.6H368.3z"/>
				<polygon points="426,507.3 410.3,507.3 410.3,618.3 466.7,618.3 466.7,602.9 426,602.9 				"/>
				<path d="M569.2,618.4h15.9l-51.8-111h-5.2l-52.4,111h16.4l17.4-36.7H552L569.2,618.4z M515.8,568.3l14.9-31.5l14.8,31.5H515.8z"
					/>
			</g>
		</g>
	</g>
</g>
</svg>
