<?xml version="1.0" encoding="utf-8"?>
<!-- Generator: Adobe Illustrator 19.1.0, SVG Export Plug-In . SVG Version: 6.00 Build 0)  -->
<svg version="1.1" id="Layer_1" xmlns="http://www.w3.org/2000/svg" xmlns:xlink="http://www.w3.org/1999/xlink" x="0px" y="0px"
	 viewBox="0 0 2199.5 403.6" style="enable-background:new 0 0 2199.5 403.6;" xml:space="preserve">
<style type="text/css">
	.Arched_x0020_Green{fill:url(#SVGID_1_);stroke:#FFFFFF;stroke-width:0.25;stroke-miterlimit:1;}
	.st0{fill:none;}
	.st1{fill:#A21D2A;}
</style>
<linearGradient id="SVGID_1_" gradientUnits="userSpaceOnUse" x1="0" y1="403.5801" x2="0.7071" y2="402.873">
	<stop  offset="0" style="stop-color:#20AC4B"/>
	<stop  offset="0.9831" style="stop-color:#19361A"/>
</linearGradient>
<g id="วิศว_xE2F__จุฬา_xE2F__Standard">
	<rect id="Exclusive_area" x="0.5" y="0.6" class="st0" width="2199.5" height="403.6"/>
	<g>
		<g>
			<g>
				<path d="M526.2,271.9l0,17.6l8.2,0c0.9,0,1.8-0.1,2.4-0.3c0.7-0.2,1.2-0.5,1.7-1c0.5-0.5,0.8-1.1,1.1-1.9c0.3-0.8,0.5-1.8,0.6-3
					l1.2,0l0,15.2l-1.2,0c0-1.1-0.1-2.1-0.3-2.9c-0.2-0.8-0.5-1.4-1-2c-0.4-0.5-1-0.9-1.8-1.1c-0.7-0.2-1.7-0.3-2.8-0.3l-8.2,0
					l0,14.1c0,1.1,0,1.9,0.1,2.6c0,0.7,0.1,1.2,0.2,1.6c0.1,0.4,0.3,0.7,0.5,1c0.3,0.3,0.6,0.5,1,0.7c0.9,0.5,2,0.8,3.1,0.8l1.6,0
					v1.2l-19.2,0v-1.2l1.6,0c1.9,0,3.2-0.5,4-1.6c0.5-0.7,0.8-2.4,0.8-5.1l-0.1-29c0-1,0-1.9-0.1-2.6c0-0.7-0.1-1.2-0.3-1.6
					c-0.1-0.4-0.3-0.8-0.5-1c-0.2-0.2-0.5-0.5-0.9-0.7c-1-0.5-2-0.8-3-0.8h-1.6l0-1.2l33.4-0.1l0,9.8h-0.7c-0.5-1.6-0.9-2.9-1.5-3.9
					c-0.5-1-1.2-1.7-2-2.2c-0.8-0.5-1.7-0.9-2.8-1c-1.1-0.2-2.3-0.2-3.8-0.2L526.2,271.9z"/>
				<path d="M580.5,283c2.1,0,4.1,0.4,5.9,1.2c1.8,0.8,3.3,1.9,4.6,3.4c1.3,1.4,2.3,3,3,4.9c0.7,1.9,1.1,3.8,1.1,5.9
					c0,2.2-0.4,4.3-1.1,6.3c-0.7,2-1.8,3.8-3.1,5.3c-1.3,1.5-2.9,2.8-4.7,3.7c-1.8,0.9-3.8,1.4-6,1.4c-2.1,0-4.1-0.4-5.8-1.3
					c-1.8-0.9-3.3-2.1-4.5-3.5c-1.3-1.5-2.2-3.1-2.9-5c-0.7-1.9-1-3.9-1-5.9c0-2,0.3-4.1,1-6c0.7-2,1.7-3.7,3-5.2
					c1.3-1.5,2.8-2.8,4.6-3.7C576.3,283.5,578.3,283,580.5,283z M579.4,285.2c-1,0-1.9,0.2-2.8,0.6c-0.9,0.4-1.7,1.1-2.4,2
					c-0.7,0.9-1.3,2.1-1.7,3.5c-0.4,1.4-0.6,3.2-0.6,5.3c0,2.1,0.2,4.2,0.7,6.1c0.5,2,1.1,3.7,1.9,5.2c0.8,1.5,1.8,2.7,3,3.6
					c1.2,0.9,2.5,1.3,3.9,1.3c1.1,0,2-0.2,2.9-0.6c0.9-0.4,1.7-1.1,2.3-2c0.7-0.9,1.2-2.1,1.5-3.6c0.4-1.5,0.6-3.3,0.5-5.5
					c0-2.2-0.2-4.2-0.6-6.1c-0.4-1.9-1-3.6-1.8-5c-0.8-1.4-1.8-2.6-3-3.4C582.3,285.6,580.9,285.2,579.4,285.2z"/>
				<path d="M639.6,283.8l0,18.3c0,3.5,0.1,5.7,0.2,6.4c0.2,0.8,0.4,1.3,0.8,1.6c0.4,0.3,0.8,0.5,1.3,0.5c0.7,0,1.4-0.2,2.3-0.5
					l0.5,1.1l-9.1,3.7h-1.5l0-6.4c-2.6,2.8-4.6,4.6-5.9,5.3c-1.4,0.7-2.8,1.1-4.3,1.1c-1.7,0-3.2-0.5-4.4-1.4
					c-1.2-1-2.1-2.2-2.6-3.8c-0.5-1.5-0.7-3.7-0.7-6.5l0-13.5c0-1-0.1-1.8-0.3-2.4c-0.2-0.6-0.4-1.1-0.8-1.4
					c-0.4-0.3-0.9-0.6-1.5-0.7c-0.6-0.1-1.3-0.2-2.2-0.2H611l0-1.2l10.6,0l0,20.3c0,1.5,0.1,2.6,0.4,3.5c0.3,0.9,0.7,1.6,1.1,2.1
					c0.5,0.5,1,0.8,1.6,1c0.6,0.2,1.2,0.3,1.9,0.2c0.5,0,1-0.1,1.5-0.2c0.5-0.1,1.1-0.4,1.7-0.7c0.6-0.3,1.3-0.8,2-1.3
					c0.7-0.6,1.5-1.3,2.3-2.1l0-17.2c0-0.9-0.1-1.6-0.2-2.1c-0.1-0.6-0.4-1-0.8-1.4c-0.4-0.3-0.9-0.6-1.5-0.7
					c-0.6-0.1-1.4-0.2-2.4-0.2v-1.2L639.6,283.8z"/>
				<path d="M669.3,289.3c3.5-4.3,6.9-6.4,10.1-6.4c1.1,0,2.2,0.2,3.1,0.6c0.9,0.4,1.8,1,2.5,1.9c0.7,0.9,1.2,2,1.7,3.5
					c0.4,1.5,0.6,3.3,0.6,5.5l0,12.9c0,1.3,0.1,2.3,0.2,3.1c0.1,0.8,0.4,1.3,0.7,1.7c0.4,0.4,0.8,0.6,1.4,0.7
					c0.6,0.1,1.3,0.1,2.2,0.1v1.2l-15,0v-1.2h0.6c1,0,1.8-0.1,2.3-0.3c0.6-0.2,1-0.5,1.3-0.9c0.3-0.4,0.5-1,0.5-1.7
					c0.1-0.7,0.1-1.6,0.1-2.7l0-12.4c0-2.8-0.4-4.8-1.1-6c-0.7-1.2-1.9-1.9-3.6-1.9c-2.6,0-5.2,1.4-7.8,4.3l0,16
					c0,2,0.1,3.3,0.4,3.8c0.2,0.3,0.3,0.6,0.5,0.9c0.2,0.2,0.5,0.4,0.8,0.6c0.3,0.1,0.7,0.2,1.2,0.3c0.5,0.1,1.2,0.1,2,0.1v1.2
					l-15,0v-1.2h0.7c0.8,0,1.4-0.1,2-0.3c0.5-0.2,0.9-0.5,1.2-0.9c0.3-0.4,0.5-1,0.6-1.7c0.1-0.7,0.2-1.6,0.1-2.7l0-11.3
					c0-3.6-0.1-5.8-0.3-6.6c-0.2-0.8-0.4-1.3-0.7-1.6c-0.3-0.3-0.8-0.4-1.4-0.4c-0.6,0-1.4,0.2-2.2,0.5l-0.5-1.2l9.1-3.7h1.4
					L669.3,289.3z"/>
				<path d="M729.3,310.5c-1.5,1.6-2.9,2.7-4.3,3.3c-1.4,0.7-2.9,1-4.6,1c-1.6,0-3.2-0.4-4.7-1.1c-1.5-0.7-2.8-1.8-3.9-3.1
					c-1.1-1.3-2-2.9-2.7-4.7c-0.7-1.8-1-3.8-1-5.9c0-4.3,1.3-8.3,4.1-11.9c2.7-3.6,6.3-5.4,10.5-5.4c2.6,0,4.8,0.8,6.6,2.5l0-9.9
					c0-0.4,0-0.8,0-1.3c0-0.5,0-0.9-0.1-1.3c-0.1-0.4-0.3-0.8-0.7-1c-0.3-0.3-0.9-0.4-1.6-0.4c-0.6,0-1.3,0.2-2.3,0.5l-0.4-1.1
					l9-3.7h1.5l0.1,35c0,3.6,0.1,5.8,0.2,6.5c0.2,0.8,0.5,1.3,0.8,1.6c0.4,0.3,0.8,0.5,1.3,0.5c0.6,0,1.4-0.2,2.4-0.6l0.4,1.2
					l-9,3.8h-1.5V310.5z M729.3,308.2l0-15.6c-0.1-1.3-0.4-2.4-0.8-3.3c-0.5-1-1-1.8-1.7-2.5c-0.6-0.7-1.4-1.2-2.1-1.5
					c-0.8-0.3-1.6-0.5-2.3-0.5c-1.2,0-2.2,0.3-3.2,0.9c-1,0.6-1.9,1.5-2.6,2.6c-0.7,1.1-1.3,2.4-1.7,4c-0.4,1.6-0.6,3.3-0.6,5.2
					c0,2.2,0.3,4.2,0.8,5.9c0.5,1.7,1.2,3.2,2.1,4.3c0.9,1.2,1.9,2,3,2.6c1.1,0.6,2.3,0.9,3.4,0.9
					C725.4,311.2,727.4,310.2,729.3,308.2z"/>
				<path d="M772.4,309.4c-3.1,2.4-5,3.8-5.8,4.2c-1.2,0.6-2.4,0.8-3.8,0.8c-1,0-2-0.2-2.9-0.6c-0.9-0.4-1.6-0.9-2.3-1.6
					c-0.6-0.7-1.1-1.5-1.5-2.5c-0.4-1-0.5-2-0.6-3.2c0-0.9,0.1-1.7,0.3-2.4c0.2-0.7,0.6-1.4,1-2.1c0.5-0.7,1.1-1.3,1.8-1.9
					c0.7-0.6,1.6-1.2,2.5-1.8c2.3-1.3,6-3,11.2-4.8v-1.2c0-1.5-0.1-2.8-0.4-3.8c-0.3-1-0.6-1.8-1.1-2.4c-0.5-0.6-1.1-1-1.8-1.3
					c-0.7-0.2-1.5-0.4-2.4-0.4c-0.7,0-1.3,0.1-1.9,0.3c-0.6,0.2-1,0.5-1.4,0.8c-0.4,0.3-0.7,0.7-0.9,1.2c-0.2,0.5-0.3,0.9-0.3,1.4
					l0.1,1.9c0,1-0.3,1.8-0.8,2.4c-0.5,0.5-1.2,0.8-2,0.8c-0.8,0-1.5-0.3-2-0.9c-0.5-0.6-0.8-1.4-0.8-2.4c0-0.9,0.2-1.8,0.8-2.7
					c0.5-0.9,1.2-1.7,2.1-2.5c0.9-0.7,2.1-1.3,3.5-1.8c1.4-0.4,2.9-0.7,4.7-0.7c2.3,0,4.3,0.3,6,1c1.6,0.7,2.8,1.9,3.5,3.5
					c0.4,1,0.6,2.9,0.6,5.8l0,10.3c0,1.5,0,2.6,0.1,3.5c0,0.9,0.1,1.5,0.1,1.8c0.1,0.6,0.3,1.1,0.5,1.3c0.3,0.2,0.5,0.3,0.9,0.3
					c0.2,0,0.4,0,0.6-0.1c0.2-0.1,0.4-0.2,0.7-0.4c0.3-0.2,0.6-0.5,0.9-0.8c0.4-0.3,0.8-0.8,1.4-1.3v1.8c-2.5,3.3-4.8,5-7,5
					c-1.1,0-1.9-0.4-2.6-1.1C772.7,312.5,772.4,311.3,772.4,309.4z M772.4,307.3l0-11.5c-1.7,0.7-3.1,1.2-4.1,1.7
					c-1.1,0.5-1.9,0.8-2.3,1.1c-1.7,1-3,2-3.7,3.1c-0.7,1-1.1,2.2-1.1,3.5c0,0.8,0.1,1.5,0.4,2.2c0.3,0.7,0.6,1.3,1,1.8
					c0.4,0.5,0.9,0.9,1.5,1.1c0.6,0.3,1.2,0.4,1.8,0.4C767.5,310.6,769.7,309.5,772.4,307.3z"/>
				<path d="M807.6,273.5l0,9.9l7.1,0l0,2.3l-7.1,0l0,19.6c0,1,0.1,1.8,0.2,2.5c0.2,0.7,0.4,1.2,0.6,1.5c0.3,0.4,0.6,0.6,0.9,0.8
					c0.4,0.1,0.8,0.2,1.2,0.2c0.7,0,1.4-0.2,2.1-0.7c0.7-0.5,1.2-1.1,1.6-2h1.3c-0.4,1.1-0.9,2-1.4,2.8c-0.6,0.8-1.2,1.5-1.8,2
					c-0.7,0.5-1.4,1-2.1,1.2c-0.7,0.3-1.5,0.4-2.3,0.4c-0.5,0-1-0.1-1.5-0.2c-0.5-0.1-1-0.4-1.5-0.6c-0.5-0.3-0.9-0.6-1.2-1
					c-0.4-0.4-0.7-0.9-0.9-1.4c-0.5-1.1-0.7-2.7-0.7-4.8l0-20.4l-4.8,0v-1.1c1.2-0.5,2.4-1.3,3.7-2.5c1.3-1.2,2.4-2.5,3.4-4.1
					c0.3-0.4,0.6-1,0.9-1.8c0.4-0.8,0.8-1.7,1.2-2.8H807.6z"/>
				<path d="M841.6,282.5l0.1,24.3c0,1,0,1.8,0.1,2.4c0.1,0.6,0.2,1.1,0.3,1.5c0.1,0.4,0.3,0.6,0.5,0.8c0.2,0.2,0.5,0.4,0.7,0.5
					c0.6,0.3,1.6,0.5,3,0.5v1.2l-14.7,0v-1.2c0.7,0,1.3,0,1.8-0.1c0.5-0.1,0.9-0.2,1.2-0.3c0.3-0.1,0.5-0.3,0.7-0.6
					c0.2-0.2,0.3-0.5,0.5-0.8c0.3-0.7,0.5-2,0.5-3.8l0-11.7c0-1.9,0-3.4-0.1-4.5c-0.1-1.1-0.2-1.9-0.4-2.5c-0.2-0.6-0.4-0.9-0.7-1
					c-0.3-0.1-0.7-0.2-1.2-0.2c-0.6,0-1.4,0.2-2.3,0.5l-0.5-1.2l9.1-3.7H841.6z M838.8,266.7c0.5,0,0.9,0.1,1.3,0.3
					c0.4,0.2,0.8,0.4,1.1,0.7c0.3,0.3,0.5,0.6,0.7,1.1c0.2,0.4,0.3,0.8,0.3,1.3c0,0.5-0.1,0.9-0.3,1.3c-0.2,0.4-0.4,0.8-0.7,1.1
					c-0.3,0.3-0.7,0.6-1.1,0.7c-0.4,0.2-0.8,0.3-1.3,0.3c-0.5,0-0.9-0.1-1.3-0.3c-0.4-0.2-0.8-0.4-1.1-0.7c-0.3-0.3-0.6-0.7-0.7-1.1
					c-0.2-0.4-0.3-0.8-0.3-1.3c0-0.4,0.1-0.9,0.3-1.3c0.2-0.4,0.4-0.8,0.7-1.1c0.3-0.3,0.7-0.5,1.1-0.7
					C837.9,266.8,838.4,266.7,838.8,266.7z"/>
				<path d="M878.3,282.4c2.1,0,4.1,0.4,5.9,1.2c1.8,0.9,3.3,2,4.6,3.4c1.3,1.4,2.3,3,3,4.9c0.7,1.9,1.1,3.8,1.1,5.9
					c0,2.2-0.4,4.3-1.1,6.3c-0.7,2-1.8,3.8-3.1,5.3c-1.3,1.5-2.9,2.8-4.7,3.7c-1.8,0.9-3.8,1.4-6,1.4c-2.1,0-4.1-0.4-5.8-1.3
					c-1.8-0.9-3.3-2-4.5-3.5c-1.3-1.5-2.2-3.1-2.9-5c-0.7-1.9-1-3.9-1-5.9c0-2,0.3-4,1-6c0.7-2,1.7-3.7,3-5.3
					c1.3-1.5,2.8-2.8,4.6-3.7C874.1,282.9,876.1,282.4,878.3,282.4z M877.3,284.6c-1,0-1.9,0.2-2.8,0.6c-0.9,0.4-1.7,1.1-2.4,2
					c-0.7,0.9-1.2,2.1-1.7,3.6c-0.4,1.4-0.6,3.2-0.6,5.3c0,2.1,0.2,4.2,0.7,6.2c0.5,2,1.1,3.7,1.9,5.2c0.8,1.5,1.8,2.7,3,3.6
					c1.2,0.9,2.5,1.3,4,1.3c1.1,0,2-0.2,2.9-0.6c0.9-0.4,1.7-1.1,2.3-2c0.7-0.9,1.2-2.1,1.5-3.6c0.4-1.5,0.6-3.3,0.6-5.5
					c0-2.2-0.2-4.2-0.6-6.1c-0.4-1.9-1-3.6-1.8-5c-0.8-1.4-1.8-2.6-3-3.4C880.1,285,878.8,284.6,877.3,284.6z"/>
				<path d="M919.7,288.8c3.5-4.3,6.9-6.4,10.1-6.4c1.1,0,2.2,0.2,3.1,0.6c0.9,0.4,1.8,1,2.5,1.9c0.7,0.9,1.2,2,1.7,3.5
					c0.4,1.5,0.6,3.3,0.6,5.5l0,12.9c0,1.3,0.1,2.3,0.2,3.1c0.1,0.7,0.4,1.3,0.7,1.7c0.4,0.4,0.8,0.6,1.4,0.7
					c0.6,0.1,1.3,0.1,2.2,0.1v1.2l-15,0v-1.2h0.6c1,0,1.8-0.1,2.3-0.3c0.6-0.2,1-0.5,1.3-0.9c0.3-0.4,0.5-1,0.5-1.7
					c0.1-0.7,0.1-1.6,0.1-2.7l0-12.4c0-2.8-0.4-4.8-1.1-6c-0.7-1.2-1.9-1.9-3.6-1.9c-2.6,0-5.2,1.4-7.8,4.3l0,16
					c0,2,0.1,3.3,0.4,3.8c0.2,0.3,0.3,0.6,0.5,0.9c0.2,0.2,0.4,0.4,0.8,0.6c0.3,0.1,0.7,0.2,1.3,0.3c0.5,0.1,1.2,0.1,2,0.1v1.2
					l-15,0v-1.2h0.7c0.8,0,1.4-0.1,1.9-0.3c0.5-0.2,0.9-0.5,1.2-0.9c0.3-0.4,0.5-1,0.6-1.7c0.1-0.7,0.2-1.6,0.2-2.7l0-11.2
					c0-3.6-0.1-5.8-0.3-6.6c-0.1-0.8-0.4-1.3-0.7-1.6c-0.3-0.3-0.8-0.4-1.4-0.4c-0.6,0-1.4,0.2-2.2,0.5l-0.5-1.2l9.1-3.7l1.4,0
					L919.7,288.8z"/>
				<path d="M997.5,273.1l0,9.9l7.1,0l0,2.3l-7.1,0l0,19.6c0,1,0.1,1.8,0.2,2.5c0.2,0.6,0.4,1.2,0.6,1.5c0.3,0.4,0.6,0.6,0.9,0.8
					c0.4,0.1,0.8,0.2,1.2,0.2c0.7,0,1.4-0.2,2.1-0.7c0.7-0.5,1.2-1.1,1.6-2l1.3,0c-0.4,1.1-0.9,2-1.4,2.9c-0.6,0.8-1.2,1.5-1.8,2
					c-0.7,0.5-1.4,0.9-2.1,1.2c-0.7,0.3-1.5,0.4-2.2,0.4c-0.5,0-1-0.1-1.5-0.2c-0.5-0.2-1-0.3-1.5-0.6c-0.4-0.3-0.9-0.6-1.2-1
					c-0.4-0.4-0.7-0.9-0.9-1.4c-0.5-1.1-0.7-2.7-0.7-4.9l0-20.4l-4.8,0v-1.1c1.2-0.5,2.4-1.3,3.7-2.5c1.3-1.2,2.4-2.5,3.4-4.1
					c0.3-0.4,0.6-1,0.9-1.8c0.4-0.8,0.8-1.7,1.2-2.8H997.5z"/>
				<path d="M1035.9,282.1c2.1,0,4.1,0.4,5.9,1.2c1.8,0.8,3.3,2,4.6,3.4c1.3,1.4,2.3,3,3,4.9c0.7,1.9,1.1,3.8,1.1,5.9
					c0,2.2-0.3,4.3-1.1,6.3c-0.7,2-1.8,3.8-3.1,5.3c-1.3,1.5-2.9,2.8-4.7,3.7c-1.8,0.9-3.8,1.4-6,1.4c-2.1,0-4.1-0.4-5.8-1.3
					c-1.8-0.9-3.3-2-4.5-3.5c-1.3-1.5-2.2-3.1-2.9-5c-0.7-1.9-1-3.9-1-5.9c0-2,0.3-4,1-6c0.7-2,1.7-3.7,3-5.2
					c1.3-1.5,2.8-2.8,4.6-3.7C1031.7,282.6,1033.7,282.1,1035.9,282.1z M1034.9,284.3c-1,0-1.9,0.2-2.8,0.6c-0.9,0.4-1.7,1.1-2.4,2
					c-0.7,0.9-1.2,2.1-1.7,3.5c-0.4,1.4-0.6,3.2-0.6,5.3c0,2.1,0.2,4.2,0.7,6.2c0.5,2,1.1,3.7,1.9,5.2c0.8,1.5,1.9,2.7,3,3.5
					c1.2,0.9,2.5,1.3,3.9,1.3c1.1,0,2-0.2,2.9-0.6c0.9-0.4,1.7-1.1,2.3-2c0.7-0.9,1.2-2.1,1.5-3.6c0.4-1.5,0.5-3.3,0.5-5.5
					c0-2.2-0.2-4.2-0.6-6.2c-0.4-1.9-1-3.6-1.8-5c-0.8-1.4-1.8-2.6-3-3.4C1037.7,284.7,1036.4,284.3,1034.9,284.3z"/>
				<path d="M1066.8,283l12.7,0v1.2c-1.2,0.1-1.9,0.3-2.3,0.6c-0.4,0.3-0.5,0.8-0.5,1.4c0,0.7,0.2,1.5,0.6,2.5l6.5,17.4l6.5-14.2
					l-1.7-4.5c-0.2-0.6-0.4-1-0.7-1.4c-0.2-0.4-0.5-0.7-0.9-1c-0.4-0.3-0.8-0.5-1.3-0.6c-0.5-0.1-1.2-0.2-1.9-0.3l0-1.2l14.4,0v1.2
					c-1.3,0.1-2.3,0.3-3,0.6c-0.7,0.4-1,1-1,1.9c0,0.5,0.1,0.9,0.3,1.3l6.9,17.4l6.3-16.8c0.4-1.2,0.7-2.1,0.7-2.8
					c0-0.4-0.2-0.8-0.6-1.1c-0.4-0.3-1.3-0.5-2.5-0.6v-1.2l9.5,0v1.2c-1.9,0.3-3.3,1.6-4.2,3.9l-10.1,26.1l-1.3,0l-7.6-19.3
					l-8.8,19.4h-1.2l-9.8-25.4c-0.3-0.8-0.6-1.5-0.9-2c-0.3-0.5-0.6-0.9-1-1.3c-0.4-0.3-0.8-0.6-1.2-0.8c-0.5-0.2-1-0.3-1.7-0.5
					L1066.8,283z"/>
				<path d="M1148.1,308.7c-3.1,2.4-5,3.8-5.8,4.2c-1.2,0.6-2.4,0.8-3.8,0.8c-1,0-2-0.2-2.9-0.6c-0.9-0.4-1.6-0.9-2.3-1.6
					c-0.7-0.7-1.1-1.5-1.5-2.5c-0.4-1-0.6-2-0.6-3.2c0-0.8,0.1-1.6,0.3-2.4c0.2-0.7,0.6-1.4,1-2.1c0.5-0.7,1.1-1.3,1.8-1.9
					c0.7-0.6,1.5-1.2,2.5-1.8c2.3-1.3,6-3,11.2-4.8v-1.2c0-1.5-0.1-2.8-0.4-3.8c-0.2-1-0.6-1.8-1.1-2.4c-0.5-0.6-1.1-1-1.8-1.3
					c-0.7-0.2-1.5-0.4-2.4-0.4c-0.7,0-1.4,0.1-1.9,0.3c-0.6,0.2-1,0.5-1.4,0.8c-0.4,0.3-0.7,0.7-0.9,1.2c-0.2,0.5-0.3,0.9-0.3,1.4
					l0.1,1.9c0,1-0.2,1.8-0.8,2.3c-0.5,0.6-1.2,0.8-2,0.8c-0.8,0-1.5-0.3-2-0.9c-0.5-0.6-0.8-1.4-0.8-2.3c0-0.9,0.2-1.8,0.7-2.8
					c0.5-0.9,1.2-1.7,2.1-2.4c0.9-0.7,2.1-1.3,3.5-1.8c1.4-0.4,2.9-0.7,4.7-0.7c2.3,0,4.3,0.3,5.9,1c1.6,0.7,2.8,1.9,3.5,3.5
					c0.4,1,0.6,2.9,0.6,5.8l0,10.3c0,1.5,0,2.6,0.1,3.5c0,0.9,0.1,1.5,0.1,1.8c0.1,0.6,0.3,1.1,0.6,1.3c0.3,0.2,0.5,0.3,0.9,0.3
					c0.2,0,0.4,0,0.6-0.1c0.2-0.1,0.4-0.2,0.7-0.4c0.3-0.2,0.6-0.5,0.9-0.8c0.4-0.3,0.8-0.8,1.4-1.3v1.8c-2.5,3.3-4.8,5-7.1,5
					c-1.1,0-1.9-0.4-2.6-1.1C1148.5,311.8,1148.1,310.5,1148.1,308.7z M1148.1,306.6l0-11.5c-1.7,0.7-3,1.2-4.1,1.7
					c-1.1,0.5-1.8,0.8-2.3,1.1c-1.7,1-3,2-3.7,3.1c-0.8,1-1.1,2.2-1.1,3.5c0,0.8,0.1,1.5,0.4,2.2c0.3,0.7,0.6,1.3,1,1.7
					c0.4,0.5,0.9,0.9,1.5,1.2c0.6,0.3,1.2,0.4,1.8,0.4C1143.2,309.9,1145.4,308.8,1148.1,306.6z"/>
				<path d="M1183.4,281.8l0,6.8c2.6-4.5,5.2-6.8,7.8-6.8c0.6,0,1.1,0.1,1.6,0.3c0.5,0.2,1,0.5,1.3,0.8c0.4,0.3,0.7,0.7,0.9,1.2
					c0.2,0.4,0.3,0.9,0.3,1.4c0,0.9-0.3,1.6-0.9,2.2c-0.6,0.6-1.3,0.9-2,0.9c-0.4,0-0.8-0.1-1.3-0.4c-0.5-0.2-0.9-0.5-1.4-0.8
					c-0.4-0.3-0.9-0.5-1.2-0.8c-0.4-0.2-0.7-0.4-0.9-0.4c-0.3,0-0.6,0.1-1,0.4c-0.4,0.3-0.7,0.6-1.1,1.1c-0.4,0.4-0.8,1-1.2,1.6
					c-0.4,0.6-0.8,1.3-1.2,2.1l0,14.5c0,0.9,0.1,1.7,0.2,2.4c0.1,0.7,0.4,1.3,0.7,1.9c0.4,0.5,0.9,0.9,1.6,1.2
					c0.7,0.3,1.6,0.4,2.8,0.4v1.2l-15.5,0v-1.2c1,0,1.8-0.1,2.4-0.2c0.6-0.1,1.1-0.4,1.4-0.8c0.4-0.4,0.6-1,0.7-1.7
					c0.1-0.7,0.2-1.7,0.2-2.9l0-11.7c0-3.6-0.1-5.7-0.2-6.3c-0.3-1.3-1-1.9-2.2-1.9c-0.7,0-1.5,0.2-2.3,0.5l-0.4-1.2l9.2-3.7
					L1183.4,281.8z"/>
				<path d="M1232,309.5c-1.5,1.6-2.9,2.7-4.3,3.3c-1.4,0.7-2.9,1-4.6,1c-1.7,0-3.2-0.4-4.7-1.1c-1.5-0.7-2.8-1.8-3.9-3.1
					c-1.1-1.3-2-2.9-2.7-4.7c-0.7-1.8-1-3.8-1-6c0-4.3,1.3-8.3,4.1-11.9c2.8-3.6,6.3-5.4,10.5-5.4c2.6,0,4.8,0.9,6.6,2.5l0-9.9
					c0-0.4,0-0.8,0-1.3c0-0.5,0-0.9-0.1-1.3c-0.1-0.4-0.3-0.8-0.7-1c-0.3-0.3-0.9-0.4-1.6-0.4c-0.6,0-1.4,0.2-2.3,0.5l-0.4-1.2
					l9-3.7h1.5l0.1,35c0,3.6,0.1,5.8,0.2,6.5c0.2,0.8,0.4,1.3,0.8,1.6c0.4,0.3,0.8,0.5,1.3,0.4c0.6,0,1.4-0.2,2.4-0.5l0.4,1.2
					l-9,3.8h-1.5L1232,309.5z M1232,307.2l0-15.6c-0.1-1.3-0.4-2.4-0.8-3.3c-0.5-1-1-1.8-1.7-2.5c-0.7-0.7-1.4-1.2-2.2-1.5
					c-0.8-0.3-1.6-0.5-2.4-0.5c-1.2,0-2.2,0.3-3.2,0.9c-1,0.6-1.9,1.5-2.6,2.6c-0.7,1.1-1.3,2.5-1.7,4c-0.4,1.6-0.6,3.3-0.6,5.2
					c0,2.2,0.3,4.2,0.8,5.9c0.5,1.7,1.2,3.1,2.1,4.3c0.9,1.2,1.9,2.1,3,2.6c1.1,0.6,2.3,0.9,3.4,0.9
					C1228.2,310.2,1230.1,309.2,1232,307.2z"/>
				<path d="M1307.3,311.5v1.2l-19.2,0v-1.2h1.6c1.9,0,3.2-0.5,4-1.6c0.5-0.7,0.8-2.4,0.8-5.1l-0.1-29c0-1.1,0-1.9-0.1-2.6
					c0-0.7-0.1-1.2-0.3-1.6c-0.1-0.4-0.3-0.8-0.5-1c-0.2-0.2-0.5-0.5-0.9-0.7c-1-0.5-2-0.8-3-0.8h-1.6l0-1.2l19.2,0l0,1.2h-1.6
					c-1.8,0-3.2,0.5-4,1.6c-0.5,0.7-0.8,2.4-0.8,5.1l0.1,29c0,1.1,0,1.9,0.1,2.6c0,0.7,0.1,1.2,0.2,1.6c0.1,0.4,0.3,0.8,0.5,1
					c0.2,0.3,0.6,0.5,1,0.7c1,0.5,1.9,0.8,3,0.8L1307.3,311.5z"/>
				<path d="M1333.4,288c3.5-4.3,6.9-6.4,10.1-6.4c1.1,0,2.2,0.2,3.1,0.6c0.9,0.4,1.8,1,2.5,1.9c0.7,0.9,1.3,2,1.7,3.5
					c0.4,1.5,0.6,3.3,0.6,5.5l0,12.9c0,1.3,0.1,2.3,0.2,3.1c0.1,0.8,0.4,1.3,0.8,1.7c0.4,0.4,0.8,0.6,1.4,0.7
					c0.6,0.1,1.3,0.1,2.2,0.1v1.2l-15,0v-1.2h0.6c1,0,1.8-0.1,2.3-0.3c0.6-0.2,1-0.5,1.3-0.9c0.3-0.4,0.5-1,0.6-1.7
					c0.1-0.7,0.1-1.6,0.1-2.7l0-12.4c0-2.8-0.4-4.8-1.1-6c-0.7-1.2-1.9-1.9-3.6-1.9c-2.6,0-5.2,1.4-7.8,4.3l0,16
					c0,2,0.1,3.3,0.4,3.8c0.2,0.3,0.3,0.6,0.5,0.9c0.2,0.2,0.5,0.4,0.8,0.6c0.3,0.1,0.7,0.2,1.3,0.3c0.5,0.1,1.2,0.1,2,0.1v1.2
					l-15,0v-1.2h0.7c0.8,0,1.4-0.1,2-0.3c0.5-0.2,0.9-0.5,1.2-0.9c0.3-0.4,0.5-1,0.6-1.7c0.1-0.7,0.2-1.6,0.2-2.7l0-11.2
					c0-3.6-0.1-5.8-0.3-6.6c-0.1-0.8-0.4-1.3-0.7-1.6c-0.3-0.3-0.8-0.4-1.4-0.4c-0.6,0-1.4,0.2-2.2,0.5l-0.5-1.2l9.1-3.7h1.4
					L1333.4,288z"/>
				<path d="M1380.7,287.9c3.5-4.3,6.9-6.4,10.1-6.4c1.1,0,2.2,0.2,3.1,0.6c1,0.4,1.8,1,2.5,1.9c0.7,0.9,1.3,2.1,1.7,3.5
					c0.4,1.5,0.6,3.3,0.6,5.5l0,12.9c0,1.3,0.1,2.3,0.2,3.1c0.1,0.8,0.4,1.3,0.7,1.7c0.3,0.4,0.8,0.6,1.4,0.7
					c0.6,0.1,1.3,0.1,2.2,0.1v1.2l-15,0v-1.2h0.6c1,0,1.8-0.1,2.3-0.3c0.6-0.2,1-0.5,1.3-0.9c0.3-0.4,0.5-1,0.5-1.7
					c0.1-0.7,0.1-1.6,0.1-2.7l0-12.4c0-2.8-0.4-4.8-1.1-6c-0.7-1.2-1.9-1.9-3.6-1.9c-2.6,0-5.2,1.4-7.8,4.3l0,16
					c0,2,0.1,3.3,0.4,3.8c0.1,0.3,0.3,0.6,0.5,0.9c0.2,0.2,0.4,0.4,0.8,0.6c0.3,0.1,0.7,0.2,1.3,0.3c0.5,0.1,1.2,0.1,2,0.1v1.2
					l-15,0v-1.2h0.7c0.8,0,1.4-0.1,2-0.3c0.5-0.2,0.9-0.5,1.2-0.9c0.3-0.4,0.5-1,0.6-1.7c0.1-0.7,0.2-1.6,0.2-2.7l0-11.2
					c0-3.6-0.1-5.8-0.3-6.6c-0.2-0.8-0.4-1.3-0.8-1.6c-0.3-0.3-0.8-0.4-1.4-0.4c-0.6,0-1.4,0.2-2.2,0.5l-0.5-1.2l9.1-3.7l1.4,0
					L1380.7,287.9z"/>
				<path d="M1434.1,281.3c2.1,0,4.1,0.4,5.9,1.2c1.8,0.8,3.3,2,4.6,3.4c1.3,1.4,2.3,3,3,4.9c0.7,1.9,1.1,3.9,1.1,5.9
					c0,2.2-0.4,4.3-1.1,6.3c-0.7,2-1.8,3.8-3.1,5.3c-1.3,1.5-2.9,2.8-4.7,3.7c-1.8,0.9-3.8,1.4-6,1.4c-2.1,0-4.1-0.4-5.8-1.3
					c-1.8-0.9-3.3-2.1-4.5-3.5c-1.2-1.5-2.2-3.1-2.9-5c-0.7-1.9-1-3.9-1-5.9c0-2.1,0.3-4.1,1-6c0.7-2,1.7-3.7,3-5.2
					c1.3-1.5,2.8-2.8,4.6-3.7C1429.9,281.8,1431.9,281.3,1434.1,281.3z M1433.1,283.5c-1,0-1.9,0.2-2.8,0.6c-0.9,0.4-1.7,1.1-2.4,2
					c-0.7,0.9-1.2,2.1-1.7,3.5c-0.4,1.4-0.6,3.2-0.6,5.3c0,2.1,0.2,4.2,0.7,6.1c0.4,2,1.1,3.7,1.9,5.2c0.8,1.5,1.8,2.7,3,3.5
					c1.2,0.9,2.5,1.3,4,1.3c1.1,0,2-0.2,2.9-0.6c0.9-0.4,1.7-1.1,2.3-2c0.7-0.9,1.2-2.1,1.5-3.6c0.4-1.5,0.5-3.3,0.5-5.5
					c0-2.2-0.2-4.2-0.6-6.1c-0.4-1.9-1-3.6-1.8-5c-0.8-1.4-1.8-2.6-3-3.4C1435.9,283.9,1434.6,283.5,1433.1,283.5z"/>
				<path d="M1465.1,282.2l14.2,0l0,1.2h-0.9c-0.9,0-1.5,0.2-2,0.6c-0.4,0.4-0.7,1-0.7,1.7c0,0.8,0.2,1.7,0.7,2.7l7.1,16.7l7-17.4
					c0.5-1.3,0.8-2.2,0.7-2.8c0-0.6-0.3-1.1-0.8-1.3c-0.5-0.2-1.4-0.3-2.7-0.3v-1.2l9.9,0l0,1.2c-0.7,0.1-1.3,0.2-1.7,0.4
					c-0.5,0.2-0.8,0.4-1.1,0.7c-0.3,0.3-0.6,0.7-0.8,1.2c-0.2,0.5-0.5,1-0.8,1.7l-10.7,26h-1.4l-10.9-25.5c-0.3-0.8-0.6-1.5-0.9-2
					c-0.3-0.5-0.6-0.9-1-1.3c-0.4-0.3-0.8-0.6-1.3-0.8c-0.5-0.2-1.2-0.3-2-0.4V282.2z"/>
				<path d="M1531.3,308c-3.1,2.4-5,3.8-5.8,4.2c-1.2,0.5-2.4,0.8-3.8,0.8c-1,0-2-0.2-2.9-0.6c-0.9-0.4-1.6-0.9-2.3-1.6
					c-0.6-0.7-1.1-1.5-1.5-2.5c-0.4-1-0.6-2-0.6-3.2c0-0.9,0.1-1.7,0.3-2.4c0.2-0.7,0.6-1.4,1-2.1c0.5-0.7,1-1.3,1.8-1.9
					c0.7-0.6,1.6-1.2,2.5-1.8c2.3-1.3,6-3,11.1-4.8v-1.2c0-1.5-0.1-2.8-0.4-3.8c-0.3-1-0.6-1.8-1.1-2.4c-0.5-0.6-1.1-1-1.8-1.3
					c-0.7-0.3-1.5-0.4-2.4-0.4c-0.7,0-1.3,0.1-1.9,0.3c-0.6,0.2-1,0.5-1.5,0.8c-0.4,0.4-0.7,0.7-0.9,1.2c-0.2,0.5-0.3,0.9-0.3,1.4
					l0.1,1.9c0,1-0.3,1.8-0.8,2.3c-0.5,0.6-1.2,0.8-2,0.8c-0.8,0-1.5-0.3-2-0.9c-0.5-0.6-0.8-1.4-0.8-2.3c0-0.9,0.2-1.8,0.7-2.7
					c0.5-0.9,1.2-1.7,2.1-2.4c0.9-0.7,2.1-1.3,3.5-1.8c1.4-0.5,3-0.7,4.7-0.7c2.3,0,4.3,0.3,5.9,1c1.6,0.7,2.8,1.9,3.5,3.5
					c0.4,1,0.6,2.9,0.6,5.8l0,10.3c0,1.5,0,2.6,0.1,3.5c0,0.9,0.1,1.5,0.1,1.8c0.1,0.6,0.3,1.1,0.6,1.3c0.2,0.2,0.5,0.3,0.9,0.3
					c0.2,0,0.4,0,0.6-0.1c0.2-0.1,0.4-0.2,0.7-0.4c0.3-0.2,0.6-0.5,0.9-0.8c0.4-0.3,0.8-0.8,1.4-1.3l0,1.9c-2.5,3.3-4.8,5-7.1,5
					c-1.1,0-1.9-0.4-2.6-1.1C1531.6,311.1,1531.3,309.8,1531.3,308z M1531.3,305.8l0-11.5c-1.7,0.7-3.1,1.2-4.1,1.7
					c-1.1,0.5-1.8,0.8-2.3,1.1c-1.7,1-3,2-3.7,3.1c-0.7,1-1.1,2.2-1.1,3.5c0,0.8,0.1,1.5,0.4,2.2c0.3,0.7,0.6,1.3,1,1.7
					c0.4,0.5,0.9,0.9,1.5,1.2c0.6,0.3,1.2,0.4,1.8,0.4C1526.4,309.1,1528.5,308,1531.3,305.8z"/>
				<path d="M1566.4,272l0,9.9l7.1,0v2.3h-7.1l0,19.6c0,1,0.1,1.8,0.2,2.5c0.2,0.6,0.4,1.2,0.6,1.5c0.3,0.4,0.6,0.6,1,0.8
					c0.3,0.1,0.8,0.2,1.2,0.2c0.7,0,1.4-0.2,2.1-0.7c0.7-0.4,1.2-1.1,1.6-2l1.3,0c-0.4,1.1-0.9,2-1.4,2.9c-0.6,0.8-1.2,1.5-1.8,2
					c-0.7,0.5-1.4,0.9-2.1,1.2c-0.7,0.3-1.5,0.4-2.2,0.4c-0.5,0-1-0.1-1.5-0.2c-0.5-0.1-1-0.3-1.5-0.6c-0.4-0.3-0.9-0.6-1.2-1
					c-0.4-0.4-0.7-0.9-0.9-1.4c-0.5-1.1-0.7-2.7-0.7-4.9l0-20.4l-4.8,0v-1.1c1.2-0.5,2.4-1.3,3.7-2.5c1.3-1.2,2.4-2.5,3.4-4.1
					c0.3-0.4,0.5-1,0.9-1.8c0.4-0.8,0.8-1.7,1.2-2.8L1566.4,272z"/>
				<path d="M1600.5,281l0,24.3c0,1,0,1.8,0.1,2.4c0.1,0.6,0.2,1.1,0.3,1.5c0.1,0.4,0.3,0.7,0.5,0.8c0.2,0.2,0.5,0.4,0.7,0.5
					c0.6,0.3,1.6,0.5,3,0.5v1.2l-14.7,0V311c0.8,0,1.4,0,1.8-0.1c0.5-0.1,0.9-0.2,1.2-0.3c0.3-0.2,0.5-0.4,0.7-0.6
					c0.2-0.2,0.3-0.5,0.5-0.8c0.3-0.7,0.5-1.9,0.4-3.8l0-11.7c0-1.9,0-3.4-0.1-4.5c-0.1-1.1-0.2-1.9-0.3-2.5c-0.2-0.6-0.4-0.9-0.7-1
					c-0.3-0.1-0.7-0.2-1.2-0.2c-0.6,0-1.4,0.2-2.2,0.5l-0.5-1.2l9.1-3.7H1600.5z M1597.7,265.2c0.4,0,0.9,0.1,1.3,0.3
					c0.4,0.2,0.8,0.4,1.1,0.7c0.3,0.3,0.5,0.6,0.7,1.1c0.2,0.4,0.3,0.8,0.3,1.3c0,0.5-0.1,0.9-0.3,1.3c-0.2,0.4-0.4,0.8-0.7,1.1
					c-0.3,0.3-0.6,0.6-1,0.7c-0.4,0.2-0.8,0.3-1.3,0.3c-0.5,0-0.9-0.1-1.3-0.3c-0.4-0.2-0.8-0.4-1.1-0.7c-0.3-0.3-0.6-0.7-0.7-1.1
					c-0.2-0.4-0.3-0.8-0.3-1.3c0-0.5,0.1-0.9,0.3-1.3c0.2-0.4,0.4-0.8,0.7-1.1c0.3-0.3,0.6-0.5,1.1-0.7
					C1596.8,265.3,1597.2,265.2,1597.7,265.2z"/>
				<path d="M1637.2,281c2.1,0,4.1,0.4,5.9,1.2c1.8,0.8,3.3,2,4.6,3.4c1.3,1.4,2.3,3.1,3,4.9c0.7,1.9,1.1,3.8,1.1,5.9
					c0,2.2-0.4,4.3-1.1,6.3c-0.7,2-1.8,3.8-3.1,5.3c-1.3,1.5-2.9,2.8-4.7,3.7c-1.8,0.9-3.8,1.4-6,1.4c-2.1,0-4.1-0.4-5.8-1.3
					c-1.8-0.9-3.3-2-4.5-3.5c-1.2-1.5-2.2-3.1-2.9-5c-0.7-1.9-1-3.9-1-5.9c0-2,0.3-4,1-6c0.7-2,1.7-3.7,3-5.3
					c1.3-1.5,2.8-2.8,4.6-3.7C1633,281.4,1635,281,1637.2,281z M1636.2,283.1c-1,0-1.9,0.2-2.8,0.6c-0.9,0.4-1.7,1.1-2.4,2
					c-0.7,0.9-1.2,2.1-1.7,3.5c-0.4,1.4-0.6,3.2-0.6,5.3c0,2.1,0.2,4.2,0.7,6.2c0.4,2,1.1,3.7,1.9,5.2c0.8,1.5,1.8,2.7,3,3.6
					c1.2,0.9,2.5,1.3,4,1.3c1,0,2-0.2,2.9-0.6c0.9-0.4,1.7-1.1,2.3-2c0.7-0.9,1.2-2.1,1.5-3.6c0.4-1.5,0.5-3.3,0.5-5.5
					c0-2.2-0.2-4.2-0.6-6.1c-0.4-1.9-1-3.6-1.8-5c-0.8-1.5-1.8-2.6-3-3.4C1639,283.5,1637.7,283.1,1636.2,283.1z"/>
				<path d="M1678.6,287.3c3.5-4.3,6.9-6.4,10.1-6.4c1.1,0,2.2,0.2,3.1,0.5c0.9,0.4,1.8,1,2.5,1.9c0.7,0.9,1.3,2,1.7,3.5
					c0.4,1.5,0.6,3.3,0.6,5.5l0,12.9c0,1.3,0.1,2.3,0.2,3.1c0.2,0.8,0.4,1.3,0.8,1.7c0.3,0.4,0.8,0.6,1.4,0.7
					c0.6,0.1,1.3,0.1,2.2,0.1v1.2l-15,0v-1.2h0.6c1,0,1.8-0.1,2.3-0.3c0.6-0.2,1-0.5,1.3-0.9c0.3-0.4,0.5-1,0.6-1.7
					c0.1-0.7,0.1-1.6,0.1-2.7l0-12.4c0-2.8-0.4-4.8-1.1-6c-0.7-1.2-1.9-1.9-3.6-1.9c-2.6,0-5.2,1.4-7.8,4.3l0,16
					c0,2,0.1,3.3,0.4,3.8c0.2,0.3,0.3,0.6,0.5,0.9c0.2,0.2,0.4,0.4,0.8,0.6c0.3,0.1,0.8,0.2,1.3,0.3c0.5,0.1,1.2,0.1,2,0.1v1.2
					l-15,0v-1.2h0.7c0.8,0,1.5-0.1,2-0.3c0.5-0.2,0.9-0.5,1.2-0.9c0.3-0.5,0.5-1,0.6-1.7c0.1-0.7,0.2-1.6,0.2-2.7l0-11.2
					c0-3.6-0.1-5.8-0.3-6.6c-0.2-0.8-0.4-1.3-0.8-1.6c-0.3-0.3-0.8-0.4-1.4-0.4c-0.6,0-1.4,0.2-2.2,0.5l-0.5-1.2l9.1-3.7h1.4
					L1678.6,287.3z"/>
			</g>
			<g>
				<path class="st1" d="M1182.5,175.7h40.3c-2.1,9.5-6.8,17.2-14.4,23.4c-8.5,6.9-19.1,10.5-31.5,10.5c-10.3,0-19.9-2.4-28.5-7.1
					c-8.6-4.7-15.4-11.2-20.3-19.3c-4.9-8.2-7.3-16.9-7.3-25.9c0-8.8,2.4-17.3,7.1-25.2c4.7-7.9,11.4-14.3,19.9-18.9
					c15.5-8.4,32.7-9.6,50.9-1.8c8.1,3.5,15.7,8.6,22.5,15.3l2.2,2.1l14.5-13.8l-2.4-2.3c-9.4-8.9-19.1-15.4-29-19.5
					c-9.9-4.1-20.6-6.1-31.9-6.1c-13.9,0-26.5,3.1-37.6,9.2c-11.1,6.1-19.9,14.8-26.3,25.7c-6.3,10.9-9.6,22.8-9.6,35.5
					c0,17,5.6,32.2,16.7,45.2c14.4,16.8,34.1,25.3,58.7,25.3c20.3,0,36.8-6.2,49-18.4c12.2-12.2,18.4-28.8,18.6-49.4l0-3.1h-61.5
					V175.7z"/>
				<rect x="1270.8" y="90.3" class="st1" width="19.1" height="134.5"/>
				<polygon class="st1" points="1453.4,224.7 1532.6,224.7 1532.6,205.9 1472.5,205.9 1472.5,161.8 1532.6,161.8 1532.6,143 
					1472.5,143 1472.5,109.1 1533.1,109.1 1533.1,90.3 1453.4,90.3 				"/>
				<polygon class="st1" points="1559.9,224.7 1639.1,224.7 1639.1,205.9 1579,205.9 1579,161.8 1639.1,161.8 1639.1,143 1579,143 
					1579,109.1 1639.6,109.1 1639.6,90.3 1559.9,90.3 				"/>
				<path class="st1" d="M1731.9,160.8c6.7-3,11.9-7.4,15.5-13.2c3.6-5.8,5.4-12.5,5.4-20.1c0-9.1-2.6-16.9-7.9-23.2
					c-5.2-6.2-12-10.4-20.3-12.3c-5.3-1.2-15-1.8-29.6-1.8h-28.7v134.5h19.1v-59.5h2.6l46.1,59.5h23.8l-46.3-59.7
					C1719.9,164.5,1726.7,163.1,1731.9,160.8z M1704.4,146.6l-19-0.1v-37.3h19.5c8.3,0,14.3,0.7,17.7,2c3.2,1.3,5.7,3.4,7.7,6.4
					c2,3,3,6.3,3,10c0,3.8-1,7.2-2.9,10.3c-2,3-4.6,5.2-8.1,6.6C1718.5,145.8,1712.5,146.6,1704.4,146.6z"/>
				<rect x="1784.6" y="90.3" class="st1" width="19.1" height="134.5"/>
				<path class="st1" d="M2048.7,157v18.6h40.3c-2.1,9.5-6.8,17.2-14.4,23.4c-8.5,6.9-19.1,10.5-31.5,10.5
					c-10.3,0-19.9-2.4-28.5-7.1c-8.6-4.7-15.4-11.2-20.3-19.3c-4.8-8.2-7.3-16.9-7.3-25.9c0-8.8,2.4-17.3,7.1-25.2
					c4.7-7.9,11.4-14.3,19.9-18.9c15.5-8.4,32.7-9.6,50.9-1.8c8.1,3.5,15.7,8.6,22.5,15.3l2.2,2.1l14.5-13.8l-2.4-2.3
					c-9.4-8.9-19.1-15.4-29-19.5c-9.9-4.1-20.6-6.1-31.9-6.1c-13.9,0-26.5,3.1-37.6,9.2c-11.1,6.1-19.9,14.8-26.3,25.7
					c-6.4,10.9-9.6,22.8-9.6,35.5c0,17,5.6,32.2,16.7,45.2c14.4,16.8,34.1,25.3,58.7,25.3c20.3,0,36.8-6.2,49-18.4
					c12.2-12.2,18.4-28.8,18.6-49.4l0-3.1H2048.7z"/>
				<g>
					<g>
						<polygon class="st1" points="885.2,110 853.5,110.1 901.1,157.7 853.4,205.5 885.2,205.5 932.9,157.5 						"/>
						<polygon class="st1" points="938.3,199.9 926.9,211.1 847.7,211 831,227.9 941.8,227.9 941.8,199.9 						"/>
						<polygon class="st1" points="938.3,115.2 926.9,103.9 847.7,104 831,87.1 941.8,87.1 941.8,115.1 						"/>
					</g>
					<polygon class="st1" points="1051.9,180 975.3,91.3 974.4,90.2 964.2,90.2 964.3,141.1 980.7,157.5 964.2,174 964.2,224.7 
						986.6,224.7 986.6,135 1064.9,224.7 1074.4,224.7 1074.4,90.2 1051.9,90.2 					"/>
				</g>
				<polygon class="st1" points="1404.3,180 1327.7,91.3 1326.7,90.3 1316.6,90.3 1316.6,224.8 1338.9,224.8 1338.9,135.1 
					1417.2,224.8 1426.7,224.8 1426.7,90.3 1404.3,90.3 				"/>
				<polygon class="st1" points="1918.1,180 1841.5,91.3 1840.6,90.3 1830.4,90.3 1830.4,224.8 1852.8,224.8 1852.8,135.1 
					1931,224.8 1940.5,224.8 1940.5,90.3 1918.1,90.3 				"/>
			</g>
			<g>
				<path d="M206.2,189.4c-11.6,13.5-25.5,20-42.7,20c-15.4,0-28.3-5-38.4-14.8c-10.2-9.9-15.1-22-15.1-36.9
					c0-9.7,2.3-18.6,6.8-26.4c4.5-7.7,10.9-14,19.1-18.6c8.2-4.6,17.2-7,26.9-7c8.8,0,17,1.8,24.4,5.3c7.3,3.5,13.7,8.8,19,15.6
					l1.9,2.5l15-11.5l-1.8-2.5c-6.4-8.9-14.8-15.9-24.9-20.9c-10-4.9-21.4-7.4-33.8-7.4c-20.6,0-38,6.8-51.7,20.1
					c-13.7,13.4-20.7,30.1-20.7,49.6c0,18.5,5.7,34.6,17.1,47.7c13.5,15.6,32.2,23.5,55.4,23.5c12.2,0,23.4-2.3,33.4-7
					c10-4.6,18.4-11.3,25.1-19.8l2-2.5l-15-11.4L206.2,189.4z"/>
				<polygon points="330.7,143.8 271.7,143.8 271.7,90 252.6,90 252.6,224.5 271.7,224.5 271.7,162.6 330.7,162.6 330.7,224.5 
					349.8,224.5 349.8,90 330.7,90 				"/>
				<path d="M456,170.6c0,12.2-0.6,17.2-1.2,19.2c-1.1,4.1-2.8,7.6-5.1,10.4c-2.3,2.8-5.2,5-8.7,6.6c-7.5,3.5-16,3.1-24.1-0.7
					c-4.3-2-7.5-4.6-9.5-7.5c-2-3-3.4-6.8-3.9-11.4c-0.2-1.5-0.5-5.5-0.5-16.7V90h-19.1v80.5c0,13.5,0.8,22.6,2.5,27.9
					c2.7,8.8,8.1,16,16.1,21.3c7.9,5.3,17.4,7.9,28.3,7.9c10.2,0,19.1-2.9,26.3-8.5c7.2-5.6,12.1-12.3,14.5-20
					c2.3-7.3,3.5-17,3.5-28.7V90H456V170.6z"/>
				<polygon points="525.9,90 506.8,90 506.8,224.5 575.2,224.5 575.2,205.9 525.9,205.9 				"/>
				<path d="M699.4,224.7h19.3L656,90.2h-6.2l-63.6,134.5h19.8l21-44.4h51.5L699.4,224.7z M634.7,163.9l18.1-38.2l18,38.2H634.7z"/>
			</g>
		</g>
	</g>
</g>
</svg>
