<?xml version="1.0" encoding="utf-8"?>
<!-- Generator: Adobe Illustrator 19.1.0, SVG Export Plug-In . SVG Version: 6.00 Build 0)  -->
<svg version="1.1" id="Layer_1" xmlns="http://www.w3.org/2000/svg" xmlns:xlink="http://www.w3.org/1999/xlink" x="0px" y="0px"
	 viewBox="0 0 1800 1200" style="enable-background:new 0 0 1800 1200;" xml:space="preserve">
<style type="text/css">
	.st0{fill:#EB2D2E;}
	.st1{fill:#FFFFFF;}
	.st2{fill:#F1A42B;}
</style>
<g>
	<g>
		<g>
			<path class="st0" d="M1332.5,720.6c0,0,72.3-50.8,199.2-56.6c39.1,50.8,68.4,103.5,68.4,103.5s-123,35.2-205.1,109.4
				C1361.8,792.9,1332.5,720.6,1332.5,720.6z"/>
			<path d="M1389.9,878.9c-16.6-42-32.2-81-43.7-109.6l0,0c-11.5-28.6-18.8-46.6-18.8-46.6l0,0l5.1-2.1l3.2,4.5l-3.2-4.5l-5.1,2.1
				l-1.6-4.1l3.6-2.5c0.6-0.4,73.8-51.7,202.1-57.6l0,0l2.9-0.1l1.8,2.3c39.4,51.2,68.7,104,68.8,104.2l0,0l3.4,6.1l-6.7,1.9
				c0,0-7.5,2.1-20.2,6.6l0,0c-12.7,4.4-30.5,11.1-50.9,20l0,0c-40.7,17.9-91.5,45.1-131.8,81.6l0,0l-5.9,5.3L1389.9,878.9
				L1389.9,878.9z M1397.2,867.5c71.5-61.6,168.5-95,194.6-103.3l0,0c-0.5-0.9-1.1-1.9-1.7-3l0,0c-3.3-5.7-8.2-13.8-14.3-23.5l0,0
				c-11.8-18.8-28.1-43.6-46.8-68.1l0,0c-106.9,5.5-173.9,43.2-189.8,53.1l0,0C1345.8,738.8,1369.9,798.5,1397.2,867.5L1397.2,867.5
				z"/>
		</g>
		<g>
			<path class="st1" d="M1338.1,698c0,0,72.3-50.8,199.2-56.6c39,50.8,68.3,103.5,68.3,103.5s-123,35.2-205.1,109.4
				C1367.4,770.3,1338.1,698,1338.1,698z"/>
			<path d="M1395.5,856.3c-16.6-42-32.2-81-43.7-109.6l0,0c-11.5-28.6-18.8-46.6-18.8-46.6l0,0l5.1-2.1l3.2,4.5l-3.2-4.5l-5.1,2.1
				l-1.7-4.1l3.6-2.5c0.6-0.4,73.8-51.7,202.1-57.6l0,0l2.9-0.1l1.8,2.3c39.3,51.2,68.7,104,68.8,104.2l0,0l3.4,6.1l-6.7,1.9
				c0,0-7.5,2.1-20.2,6.6l0,0c-12.7,4.4-30.5,11.1-50.8,20l0,0c-40.7,17.9-91.5,45.1-131.8,81.6l0,0l-5.9,5.3L1395.5,856.3
				L1395.5,856.3z M1402.9,844.9c71.5-61.6,168.5-95,194.6-103.3l0,0c-0.5-0.9-1.1-1.9-1.7-3l0,0c-3.3-5.7-8.2-13.8-14.3-23.5l0,0
				c-11.8-18.8-28.1-43.6-46.8-68.1l0,0c-107,5.5-173.9,43.2-189.8,53.1l0,0C1351.4,716.2,1375.6,776,1402.9,844.9L1402.9,844.9z"/>
		</g>
		<g>
			<polygon points="1430.6,660.1 1440.2,654.6 1511.7,778.8 1502.2,784.3 1430.6,660.1 			"/>
		</g>
		<g>
			<path d="M1331.6,629.4c-14-6-32.9-6.9-54-9.3l0,0h0l4.8-40c18.5,2.4,41.2,2.6,64.6,12.1l0,0c30.9,13,61.4,36.7,83.3,60.1l0,0
				l-29.5,27.5C1382.9,660.2,1354.6,638.7,1331.6,629.4L1331.6,629.4z"/>
		</g>
		<g>
			<path d="M1070.2,549.7c-10.9-6.1-19-15.4-24-25.3l0,0c-10-19.9-10.6-41.2-10.7-61.1l0,0c0-10.3,0.3-20.2,0.3-29.1l0,0
				c0-2.9,0-5.7-0.1-8.3l0,0l40.3-1.2c0.1,3.2,0.1,6.4,0.1,9.6l0,0c0,9.8-0.3,19.6-0.3,29.1l0,0c0,10.2,0.4,19.8,1.7,27.7l0,0
				c1.3,8,3.6,14,6.2,17.7l0,0c1.8,2.5,3.6,4.3,6.3,5.8l0,0c3.6,2,9.2,3.8,18.7,3.8l0,0c1.9,0,3.8-0.1,6-0.2l0,0l2.9,40.2
				c-3,0.2-6,0.3-8.8,0.3l0,0c0,0-0.1,0-0.1,0l0,0C1094.1,558.8,1081.1,555.9,1070.2,549.7L1070.2,549.7z"/>
		</g>
		<g>
			<path class="st2" d="M1462.6,665.9c0,19.8-16,35.8-35.8,35.8c-19.7,0-35.8-16-35.8-35.8c0-19.7,16-35.8,35.8-35.8
				C1446.6,630.1,1462.6,646.1,1462.6,665.9z"/>
			<path d="M1383.2,665.9c0-24.1,19.5-43.6,43.6-43.6l0,0c24.1,0,43.6,19.5,43.6,43.6l0,0c0,24.1-19.5,43.6-43.6,43.6l0,0
				C1402.8,709.5,1383.2,690,1383.2,665.9L1383.2,665.9z M1399,665.9c0,15.4,12.5,27.9,27.9,27.9l0,0c15.4,0,27.9-12.5,27.9-27.9
				l0,0c0-15.4-12.5-27.9-27.9-27.9l0,0C1411.5,638,1399,650.5,1399,665.9L1399,665.9z"/>
		</g>
		<g>
			<g>
				<polygon class="st0" points="955.6,398.8 1153.8,310.4 1164.8,334.7 966.6,423.5 				"/>
				<path d="M950.6,401.1l5-2.3l2.2,5l-2.2-5L950.6,401.1l-2.3-5l208.3-93l15.4,34.4l-208.2,93.3L950.6,401.1L950.6,401.1z
					 M969.4,416.2l188-84.3l-6.4-14.3l-188.2,84L969.4,416.2L969.4,416.2z"/>
			</g>
			<g>
				<polygon points="981.6,401.5 991.7,397 996.5,407.8 986.4,412.3 981.6,401.5 				"/>
			</g>
			<g>
				<polygon points="1002.5,392.2 1012.5,387.6 1017.4,398.5 1007.3,403 1002.5,392.2 				"/>
			</g>
			<g>
				<polygon points="1025,382 1035.1,377.5 1040,388.3 1029.9,392.9 1025,382 				"/>
			</g>
			<g>
				<polygon points="1046.5,372.4 1056.6,367.9 1061.4,378.7 1051.3,383.2 1046.5,372.4 				"/>
			</g>
			<g>
				<polygon points="1068.5,362.6 1078.6,358 1083.4,368.9 1073.4,373.4 1068.5,362.6 				"/>
			</g>
			<g>
				<polygon points="1091.1,352.4 1101.1,347.9 1106,358.7 1095.9,363.3 1091.1,352.4 				"/>
			</g>
			<g>
				<polygon points="1111.1,344.1 1121.2,339.6 1126,350.4 1115.9,354.9 1111.1,344.1 				"/>
			</g>
			<g>
				<polygon points="1133.1,334.2 1143.2,329.7 1148,340.6 1137.9,345.1 1133.1,334.2 				"/>
			</g>
		</g>
		<g>
			<path class="st2" d="M1097.3,404.7c0,19.7-16,35.8-35.8,35.8c-19.8,0-35.8-16-35.8-35.8c0-19.8,16-35.8,35.8-35.8
				C1081.3,368.9,1097.3,384.9,1097.3,404.7z"/>
			<path d="M1017.9,404.7c0-24.1,19.5-43.6,43.6-43.6l0,0c24.1,0,43.6,19.5,43.6,43.6l0,0c0,24.1-19.5,43.6-43.6,43.6l0,0
				C1037.4,448.3,1017.9,428.8,1017.9,404.7L1017.9,404.7z M1033.6,404.7c0,15.4,12.5,27.9,27.9,27.9l0,0
				c15.4,0,27.9-12.5,27.9-27.9l0,0c0-15.4-12.5-27.9-27.9-27.9l0,0C1046.1,376.8,1033.7,389.3,1033.6,404.7L1033.6,404.7z"/>
		</g>
		<g>
			<g>
				<path class="st2" d="M1337.8,585.9c-8.2,48.9-28.5,85.1-60.9,108.7c-29.3,20.8-66.7,31.2-112.2,31.2h-94.1l46.5-278.1h94.1
					c48.3,0,82.6,9.4,102.9,28.3C1338.5,497.8,1346.4,534.5,1337.8,585.9z M1263.3,587.1c8.5-50.8-15.2-76.2-61.5-76.2H1179
					l-25.4,151.8h22.8C1222.7,662.7,1254.9,637.5,1263.3,587.1z"/>
				<path d="M1164.7,733.7h-103.4l49.1-293.9h100.7c49.2,0.1,85.5,9.4,108.1,30.3l0,0c20.1,17.9,29.7,44.9,29.7,78.6l0,0
					c0,11.9-1.2,24.7-3.5,38.5l0,0l-7.8-1.3l7.7,1.3c-8.4,50.3-29.7,88.8-64.1,113.8l0,0c-30.9,21.9-70.1,32.7-116.7,32.7l0,0
					C1164.7,733.7,1164.7,733.7,1164.7,733.7L1164.7,733.7z M1079.9,718h84.8c44.3,0,79.9-10.1,107.6-29.7l0,0
					c30.4-22.2,49.7-56.2,57.7-103.6l0,0l0,0c2.2-13.1,3.3-25.1,3.3-35.9l0,0c-0.1-31-8.5-52.5-24.5-66.9l0,0
					c-17.9-16.7-50.2-26.2-97.5-26.2l0,0h-87.4L1079.9,718L1079.9,718z M1176.5,670.5h-32.1l28-167.5h29.4c21.2,0,39.1,5,51.8,16.2
					l0,0c12.8,11.2,19.3,28.2,19.2,48.7l0,0c0,6.4-0.6,13.2-1.8,20.4l0,0l-7.8-1.3l7.7,1.3c-4.4,26.6-15.4,47.4-31.9,61.4l0,0
					c-16.5,14-38.1,20.8-62.6,20.8l0,0C1176.6,670.5,1176.5,670.5,1176.5,670.5L1176.5,670.5z M1162.9,654.8h13.5
					c21.8,0,39.3-5.8,52.5-17l0,0c13.2-11.2,22.6-28.2,26.6-52l0,0l0,0c1.1-6.5,1.6-12.4,1.6-17.8l0,0c-0.1-17.5-5.1-29.1-13.9-36.9
					l0,0c-8.8-7.8-22.6-12.3-41.4-12.3l0,0h-16.1L1162.9,654.8L1162.9,654.8z"/>
			</g>
		</g>
		<g>
			<g>
				<path d="M1164.7,735.2h-105.1l49.6-296.9h102c49.4,0.1,86,9.4,109.1,30.7l0,0c20.5,18.3,30.3,45.7,30.2,79.7l0,0
					c0,12-1.2,24.9-3.5,38.8l0,0l-9.3-1.5l9.3,1.5c-8.4,50.6-29.9,89.5-64.7,114.8l0,0c-31.2,22.2-70.7,33-117.6,33l0,0
					C1164.7,735.2,1164.7,735.2,1164.7,735.2L1164.7,735.2z M1081.7,716.5h83c44.1,0,79.4-10.1,106.7-29.4l0,0
					c30.1-22,49.1-55.4,57.1-102.7l0,0h0c2.2-13,3.2-24.9,3.2-35.7l0,0c-0.1-30.7-8.4-51.7-24.1-65.8l0,0
					c-17.4-16.3-49.3-25.8-96.5-25.8l0,0h-86.2L1081.7,716.5L1081.7,716.5z M1176.5,672.1h-33.9l28.5-170.6h30.7
					c21.4,0,39.7,5.1,52.8,16.6l0,0c13.2,11.5,19.8,29,19.8,49.8l0,0c0,6.5-0.6,13.4-1.8,20.7l0,0l-9.3-1.5l9.3,1.5
					c-4.5,26.8-15.6,48.1-32.4,62.3l0,0c-16.8,14.3-38.8,21.1-63.5,21.1l0,0C1176.6,672.1,1176.5,672.1,1176.5,672.1L1176.5,672.1z
					 M1164.7,653.3h11.7c21.5,0,38.7-5.8,51.6-16.7l0,0c12.9-10.9,22.1-27.5,26.1-51.1l0,0l0,0c1.1-6.4,1.6-12.3,1.6-17.6l0,0
					c-0.1-17.2-5-28.3-13.4-35.8l0,0c-8.4-7.5-21.8-11.9-40.4-11.9l0,0H1187L1164.7,653.3L1164.7,653.3z"/>
			</g>
		</g>
		<g>
			<path class="st1" d="M1298.8,439.6c0,21.8-17.7,39.5-39.5,39.5c-21.8,0-39.5-17.7-39.5-39.5c0-21.8,17.7-39.5,39.5-39.5
				C1281.1,400.1,1298.8,417.7,1298.8,439.6z"/>
			<path d="M1213.3,439.6c0-25.4,20.6-46,46-46l0,0c25.4,0,46,20.6,46,46l0,0c0,25.4-20.6,45.9-46,45.9l0,0
				C1233.9,485.5,1213.3,465,1213.3,439.6L1213.3,439.6z M1226.2,439.6c0,18.3,14.8,33,33.1,33.1l0,0c18.3,0,33.1-14.8,33.1-33.1
				l0,0c0-18.3-14.8-33.1-33.1-33.1l0,0C1241,406.5,1226.2,421.3,1226.2,439.6L1226.2,439.6z"/>
		</g>
		<g>
			<path d="M1278.1,448c0,6.8-5.5,12.2-12.2,12.2c-6.7,0-12.2-5.5-12.2-12.2c0-6.8,5.5-12.2,12.2-12.2
				C1272.6,435.8,1278.1,441.3,1278.1,448z"/>
		</g>
		<g>
			<g>
				<path class="st1" d="M1375,511.1c0,21.8-17.7,39.5-39.5,39.5c-21.8,0-39.5-17.7-39.5-39.5c0-21.8,17.7-39.5,39.5-39.5
					C1357.3,471.6,1375,489.3,1375,511.1z"/>
				<path d="M1289.5,511.1c0-25.4,20.6-46,45.9-46l0,0c25.4,0,46,20.6,46,46l0,0c0,25.4-20.6,45.9-46,45.9l0,0
					C1310.1,557,1289.5,536.5,1289.5,511.1L1289.5,511.1z M1302.4,511.1c0,18.3,14.8,33.1,33.1,33.1l0,0c18.3,0,33.1-14.8,33.1-33.1
					l0,0c0-18.3-14.8-33.1-33.1-33.1l0,0C1317.2,478,1302.4,492.8,1302.4,511.1L1302.4,511.1z"/>
			</g>
			<g>
				<path d="M1352.4,517.7c0,6.8-5.5,12.2-12.2,12.2c-6.8,0-12.2-5.5-12.2-12.2c0-6.8,5.5-12.2,12.2-12.2
					C1347,505.5,1352.4,510.9,1352.4,517.7z"/>
			</g>
		</g>
		<g>
			<g>
				<path class="st1" d="M465.1,578.7c-7.8,45.9-25.2,81.3-52.3,106.2c-27.1,24.8-60.9,37.2-101.5,37.2H197.7l48.3-284.2h113.6
					c41,0,70.7,12.9,89.3,38.6C467,501.4,472.4,535.5,465.1,578.7z M395.7,578.7c8.8-51.6-11.1-77.4-59.6-77.4H304l-26.7,157h32.1
					c26.5,0,46.3-6.3,59.5-18.8C382,626.8,391,606.6,395.7,578.7z"/>
				<path d="M311.3,731.9H186.1l51.6-303.7h121.9c42.8-0.2,76.6,13.9,97.2,42.6l0,0c14.4,19.7,21.3,44.4,21.2,72.9l0,0
					c0,11.5-1.1,23.8-3.3,36.7l0,0c-8,47.4-26.3,85.1-55.3,111.7l0,0c-28.8,26.5-65.3,39.8-107.7,39.8l0,0
					C311.6,731.9,311.4,731.9,311.3,731.9L311.3,731.9z M209.2,712.4h102.1c38.6-0.1,69.6-11.6,94.9-34.7l0,0
					c25.1-23.1,41.7-56.2,49.3-100.6l0,0h0c2-12,3-23.1,3-33.4l0,0c0-25.5-6-45.6-17.5-61.5l0,0c-16.5-22.7-42.3-34.4-81.4-34.5l0,0
					H254.2L209.2,712.4L209.2,712.4z M309.5,668h-43.7l30-176.5h40.4c21.9,0,39.9,4.9,52.7,16.4l0,0c12.8,11.5,18.7,28.7,18.6,48.9
					l0,0c0,7.3-0.7,15.2-2.2,23.6l0,0c-5,29-14.3,51.3-29.7,66.1l0,0C360,661.3,337.4,668,309.5,668L309.5,668
					C309.5,668,309.5,668,309.5,668L309.5,668z M288.9,648.5h20.6c25.1,0,42.1-5.9,52.7-16.1l0,0c10.9-10.4,19.4-28.5,23.9-55.3l0,0
					c1.3-7.5,1.9-14.2,1.9-20.3l0,0c-0.1-16.8-4.5-27.4-12.2-34.4l0,0c-7.7-7-20.5-11.4-39.7-11.4l0,0h-23.9L288.9,648.5
					L288.9,648.5z"/>
			</g>
			<g>
				<path class="st1" d="M684.4,635.2h-141c-5.3,31.4,6.5,47.1,35.4,47.1c16.9,0,30.1-7.6,39.7-23h58.9
					c-9.7,22.6-24.4,39.8-44.3,51.8c-18.4,11.2-39.3,16.8-62.6,16.8c-32.1,0-56.1-9.9-72-29.6c-15.8-19.7-20.9-46.4-15.2-79.9
					c5.2-30.8,19.7-56.6,43.3-77.5c23.6-20.8,50-31.2,79.2-31.2c32.7,0,55.8,12.1,69.4,36.2C687.7,568,690.7,597.7,684.4,635.2z
					 M628.5,597.2c1.9-11.4,0.1-21.2-5.5-29.6c-5.6-8.3-13.9-12.5-24.8-12.5c-22.8,0-38.9,14.1-48.3,42.1H628.5z"/>
				<path d="M490.9,704.5c-13.2-16.4-19.6-37.2-19.6-60.8l0,0c0-8.5,0.8-17.5,2.4-26.9l0,0c5.5-32.9,21.3-61,46.5-83.1l0,0
					c25.1-22.2,54.1-33.7,85.6-33.6l0,0c17.5,0,33.1,3.2,46.4,10.2l0,0c13.3,6.9,23.9,17.5,31.5,31l0,0
					c9.2,16.4,13.6,36.1,13.6,58.6l0,0c0,11.6-1.1,23.9-3.4,37.1l0,0l-1.4,8.1H552c-0.1,1.3-0.1,2.6-0.1,3.8l0,0
					c0.1,9.6,2.4,14.7,6,18l0,0c3.6,3.3,10.1,5.8,20.9,5.8l0,0c13.9-0.3,23-5.4,31.4-18.4l0,0l2.9-4.6h79.1l-5.8,13.6
					c-10.3,24.2-26.6,43.4-48.2,56.3l0,0c-20,12.1-42.8,18.2-67.7,18.2l0,0c-0.2,0-0.4,0-0.6,0l0,0
					C536.2,737.7,508.7,726.8,490.9,704.5L490.9,704.5z M533.1,548.3c-22.1,19.5-35.2,43-40.2,71.8l0,0c-1.4,8.4-2.1,16.3-2.1,23.6
					l0,0c0,20.3,5.2,36,15.3,48.6l0,0c13.8,17,34.1,25.8,64.3,26l0,0c21.7,0,40.7-5.2,57.6-15.4l0,0c14-8.4,25-19.5,33.5-33.7l0,0
					h-37.8c-10.8,14.8-26.8,23.2-44.9,23l0,0c-13.6,0-25.5-3.1-34.1-11l0,0c-8.7-7.9-12.4-19.6-12.3-32.4l0,0
					c0-4.8,0.5-9.8,1.4-15.1l0,0l1.4-8.1H676c1.2-9.2,1.9-17.7,1.9-25.7l0,0c0-20.1-3.9-36.3-11.1-49l0,0
					c-6-10.6-13.7-18.1-23.5-23.3l0,0c-9.9-5.2-22.2-7.9-37.4-8l0,0C579.1,519.6,555.3,528.8,533.1,548.3L533.1,548.3z M684.4,635.2
					v-9.8V635.2L684.4,635.2z M536.2,607l4.3-12.9c5.1-15.1,12.2-27.3,22-35.8l0,0c9.7-8.6,22.2-13,35.6-12.9l0,0
					c13.3-0.2,25.7,5.9,32.9,16.8l0,0c5.3,7.8,8,17,8,26.6l0,0c0,3.3-0.3,6.7-0.9,10.1l0,0l-1.4,8.1H536.2L536.2,607z M628.5,597.2
					v-9.8V597.2L628.5,597.2z M619.5,587.5c-0.2-5.6-1.7-10.1-4.6-14.4l0,0c-4.1-5.7-8.3-8-16.7-8.2l0,0c-9.4,0.1-16.4,2.7-22.7,8.1
					l0,0c-4,3.4-7.7,8.2-10.9,14.5l0,0H619.5L619.5,587.5z"/>
			</g>
			<g>
				<path class="st1" d="M903.3,722.1h-75.8l-32.7-83.4l-19.5,17.1L764,722.1h-62.3l48.3-284.2h62.3l-24.9,146.7l69-69.2h73.3
					l-83.8,78.3L903.3,722.1z"/>
				<path d="M820.8,731.9l-30-76.6l-6.5,5.7l-12.1,71h-82.1l51.6-303.7h82.1L802.1,556l50.2-50.4h102.1l-96.8,90.5l54.6,122l-8.9,4
					v-9.8v9.8l8.9-4l6.2,13.7H820.8L820.8,731.9z M834.1,712.4h54.1l-54.1-121l70.8-66.2h-44.5l-87.8,88.1l28.1-165.5h-42.5
					l-44.9,264.7h42.5l10.5-61.6l32.6-28.5L834.1,712.4L834.1,712.4z"/>
			</g>
			<g>
				<path class="st1" d="M1045.4,639.6h-115l8.7-51.2h115L1045.4,639.6z"/>
				<path d="M918.8,649.3l12-70.8h134.8l-10.6,62.6l-1.4,8.1H918.8L918.8,649.3z M1045.4,639.6v-9.8V639.6L1045.4,639.6z
					 M941.9,629.8h95.3l5.4-31.7h-95.2L941.9,629.8L941.9,629.8z"/>
			</g>
		</g>
	</g>
	<g>
		<path d="M440.6,882.6c-2.1,0.2-3.7-1.2-4.6-4l-1.9-7.9l-7.3,10c-2.8,3.3-5.6,4.9-8.5,4.9c-3.2,0-6.5-2.1-10-6.3
			c-6.4-6.8-11.9-20.5-16.5-41.1l-1.4-8.6c0.2-2.6,1.3-4.6,3.3-6l3.3-2c2.8,0.9,3.9,4.7,3.3,11.2c0.8,18.5,3.9,31.5,9.2,39.1
			c4.7,5.9,11-0.7,19.1-19.8L436,821c1.6-2.4,3.4-3.5,5.3-3.2l0.7-5.4l-1.4-1.9c0.8-2.6,2.6-3.7,5.3-3.3c1.6,1.4,2.1,3.8,1.4,7.3
			l-6.6,32.1c2.3,0.2,2.1,2.8-0.5,7.9c-2.6,5.1-2.7,11.2-0.2,18.2c3.2,5.2,10.7-16.9,22.6-66.3l-0.7-1.9c1.1-3.7,3.1-5.5,6.1-5.5
			c1,0.7,1.5,1.9,1.5,3.6c0,0.8-2.7,13.1-8,37C456,863.4,449.1,877.8,440.6,882.6z M432,856.1c-1.8,5.3-4.2,10.3-7.5,15
			c-3.2,4.7-5.1,7.9-5.7,9.5c8.6-9,13.3-16.6,13.9-22.6v-2H432z"/>
		<path d="M522.2,882.6c-2.1,0.2-3.7-1.2-4.6-4l-1.9-7.9l-7.3,10c-2.8,3.3-5.6,4.9-8.5,4.9c-3.2,0-6.5-2.1-10-6.3
			c-6.4-6.8-11.9-20.5-16.5-41.1l-1.4-8.6c0.2-2.6,1.3-4.6,3.3-6l3.3-2c2.8,0.9,3.9,4.7,3.3,11.2c0.8,18.5,3.9,31.5,9.2,39.1
			c4.7,5.9,11-0.7,19.1-19.8l7.3-31.2c1.6-2.4,3.4-3.5,5.3-3.2l0.7-5.4l-1.4-1.9c0.8-2.6,2.6-3.7,5.3-3.3c1.6,1.4,2.1,3.8,1.4,7.3
			l-6.7,32.1c2.3,0.2,2.1,2.8-0.5,7.9c-2.6,5.1-2.7,11.2-0.2,18.2c3.2,5.2,10.7-16.9,22.6-66.3l-0.7-1.9c1.1-3.7,3.1-5.5,6.1-5.5
			c1,0.7,1.5,1.9,1.5,3.6c0,0.8-2.7,13.1-8,37C537.6,863.4,530.7,877.8,522.2,882.6z M513.6,856.1c-1.8,5.3-4.2,10.3-7.5,15
			c-3.2,4.7-5.1,7.9-5.7,9.5c8.6-9,13.3-16.6,13.9-22.6v-2H513.6z"/>
		<path d="M603.8,882.6c-2.1,0.2-3.7-1.2-4.6-4l-1.9-7.9l-7.3,10c-2.8,3.3-5.6,4.9-8.5,4.9c-3.2,0-6.5-2.1-10-6.3
			c-6.4-6.8-11.9-20.5-16.5-41.1l-1.4-8.6c0.2-2.6,1.3-4.6,3.3-6l3.3-2c2.8,0.9,3.9,4.7,3.3,11.2c0.8,18.5,3.9,31.5,9.2,39.1
			c4.7,5.9,11-0.7,19.1-19.8l7.3-31.2c1.6-2.4,3.4-3.5,5.3-3.2l0.7-5.4l-1.4-1.9c0.8-2.6,2.6-3.7,5.3-3.3c1.6,1.4,2.1,3.8,1.4,7.3
			l-6.6,32.1c2.3,0.2,2.1,2.8-0.5,7.9c-2.6,5.1-2.7,11.2-0.2,18.2c3.2,5.2,10.7-16.9,22.6-66.3l-0.7-1.9c1.1-3.7,3.1-5.5,6.1-5.5
			c1,0.7,1.5,1.9,1.5,3.6c0,0.8-2.7,13.1-8,37C619.2,863.4,612.3,877.8,603.8,882.6z M595.2,856.1c-1.8,5.3-4.2,10.3-7.5,15
			c-3.2,4.7-5.1,7.9-5.7,9.5c8.6-9,13.3-16.6,13.9-22.6v-2H595.2z"/>
		<path d="M647.2,868.2c1.5-1.1,2.5-1.7,3.1-1.7h0.2c0.5,0.2,1.1,0.7,1.9,1.5l-0.3,3c0.8,0.7,1.6,1.4,2.3,2.3c0,1.1-0.2,2.3-0.5,3.5
			c-3.2,5.5-6.3,8.3-9.3,8.3l-3.2,0.2l-0.8-0.2c-0.9-0.7-1.4-1.7-1.5-3l4.2-8.8c0.5-0.9,1-1.8,1.7-2.8L647.2,868.2z"/>
		<path d="M739,758.9c1.6,0.2,2.4,2.6,2.4,7.1c0,3.3-0.5,7.8-1.4,13.4c-2.1,13.3-4,35.8-5.8,67.4c0.3,1.1,1,2,2.1,2.8l-3.4,8.8
			c0.2,4.5,0.8,9.3,2.1,14.4c1.5,3.7,2.7,7.8,3.4,12.4c-2.4-0.4-4.7-1.8-6.9-4.1l-1.4,2.8l-2.8,0.7c-2.5-2.9-2.8-9.6-0.7-19.9
			l-4,4.1c-2.1,2.8-4.9,5.6-8.3,8.3c-4.4,3.4-9.6,6-15.7,7.6c-1.5,0.4-3.1,0.6-4.8,0.6c-4.9,0-10.4-1.8-16.5-5.4
			c-2.7-2.1-5.4-4.9-8.3-8.3c-3.4-4.5-5-10.8-5-18.9c0-2.1,0.1-4.2,0.2-6.4c3.6-13.8,12.3-22.9,26-27.5c9.3-1.9,18-0.8,26.1,3.4
			c6.2,4.8,10.1,12.4,11.6,22.7c2.8-34.9,4.1-61.2,4.1-79C732.8,763.2,735,760.9,739,758.9z M671.8,844.1
			c-2.2,12.2,0.8,20.7,8.9,25.3c13.2,5.5,28.1,0.9,44.5-13.8c-3.3-11.5-7.6-19-13-22.6C694.7,821.4,681.2,825,671.8,844.1z
			 M710.9,872.2c-8.9,6-19.4,6.9-31.5,2.8c7,4.1,13.9,5.5,20.5,4.1l7.6-3.4L710.9,872.2z M697.2,821.4l6.2,2.1l10.3,4.8
			c0.2-2.1-1-3.7-3.4-4.8C706.3,822.2,701.9,821.5,697.2,821.4z"/>
		<path d="M776.6,813.7c11.2,0.8,18.9,5.2,23.2,13.2c0.9,2.1,0.5,3.8-1.1,5.3c-1.6,5-6.6,8.1-15,9.5l-5.7,0.6
			c-8.6,0.9-16.7,2.4-24.5,4.6v1.5c0,12.8,1.7,20.9,5.2,24.2c3.7,3.9,8,5.8,12.7,5.8c7.9,0,17.3-5.4,28-16.2l1.7-0.9
			c0.6,0.5,1.2,1.2,1.7,2.1l-1.1,2.5l1.4-0.8c0.8-0.3,1.5-0.5,2.3-0.6c0.4,0.5,0.7,1.2,0.9,1.9c-0.6,1.3-1.6,2.5-2.9,3.6
			c-13.1,10.5-24.2,15.7-33.4,15.7c-5.4,0-10-1.8-14-5.4c-5-3.2-7.6-11.7-7.6-25.3c0-3.4,0.2-7,0.5-11l1.1-2.3
			c2-8.4,5-15.6,9.2-21.4c4.4-4.4,9.6-6.6,15.6-6.6C775.3,813.6,775.9,813.6,776.6,813.7z M756.8,835.2l-2.6,7.2
			c17.9-2.6,30.2-5.7,36.9-9.2l2.6-1.5c-3.9-8.9-8.8-13.5-14.7-13.5C768.3,818.3,760.8,823.9,756.8,835.2z"/>
		<path d="M818.9,781l-0.6,4.4c0,1.1,0.4,2.4,1.3,3.7v-3.1l3-1.8l1.8,2.5l-1.8,15.4v8.6l3.1,22.7l11.7-4.9
			c14.6-9.3,25.6-14.6,33.1-15.9c0.8,1.6,0.9,2.7,0.1,3.3c-0.8,0.6-2.2,1.3-4.4,2.2l-11.1,6.2c-1.8,0.7-3.7,1.7-5.5,3l-15.4,10.4
			c-0.8,0.5-1.6,1.4-2.4,2.5l2.4,0.6c18.3,9.1,31,16.7,38.1,22.8l4.4,4.2c-0.1,2.4-1.3,3.9-3.7,4.4l-3.7,0.6l-6.8-3.7l-25.2-17.9
			l-9.9-4.9l-0.6,1.3c1.5,15.4,1.5,28.9,0,40.5c-1.1,0.9-2.3,1.6-3.7,1.9l-0.7-3.1c-2.3-0.9-3.5-2.8-3.7-5.5
			c1.1-6.4,1.1-17.5,0-33.1c-2.7,0.6-4.5,0-5.5-1.9c0.5-1.6,2.1-3.4,4.7-5.3l-0.3-31c-2.1-10.5-3.1-18.4-3.1-23.7
			C814.5,782.7,816,781,818.9,781z M847.8,852.3c2.4,2.4,8.6,6.8,18.5,13C858.3,858.6,852.2,854.2,847.8,852.3z"/>
		<path d="M886.8,833.4c0.2-0.2,0.4-0.2,0.8-0.2c0.8,0,1.6,0.2,2.5,0.5c0.9,0.3,6,0.4,15.3,0.2c9.3-0.2,17.5,0.4,24.7,1.7h0.6v-0.2
			l4.4-0.9c1.5,0.9,2.2,1.8,2.2,2.5c0,0.7-0.7,1.3-2.1,1.8l0.6,0.7c0.7,0.8,1,1.6,1,2.4c0,0.4-0.1,0.7-0.2,1c-1.1,0.6-3.6,0.6-7.4,0
			c-3.8-0.6-6.5-1-8.3-1c-1.7-0.1-13.6,1.2-35.6,3.9c-1.1-0.3-1.6-0.8-1.6-1.6c0-0.5,0.3-1.2,0.8-1.9l1.4-1.4l8.6-1.8l1.1-0.5
			l-3.4-0.1c-2.6-0.9-4.2-1.5-4.8-1.8c-0.6-0.3-0.9-0.6-1-0.9c-0.1-0.3-0.2-0.7-0.2-1C886.1,834.3,886.4,833.9,886.8,833.4z"/>
		<path d="M1024.3,758.9c1.6,0.2,2.4,2.6,2.4,7.1c0,3.3-0.5,7.8-1.4,13.4c-2.1,13.3-4,35.8-5.8,67.4c0.3,1.1,1,2,2.1,2.8l-3.4,8.8
			c0.2,4.5,0.8,9.3,2.1,14.4c1.5,3.7,2.7,7.8,3.4,12.4c-2.4-0.4-4.7-1.8-6.9-4.1l-1.4,2.8l-2.8,0.7c-2.5-2.9-2.8-9.6-0.7-19.9
			l-4,4.1c-2.1,2.8-4.9,5.6-8.3,8.3c-4.4,3.4-9.6,6-15.7,7.6c-1.5,0.4-3.1,0.6-4.8,0.6c-4.9,0-10.4-1.8-16.5-5.4
			c-2.7-2.1-5.4-4.9-8.3-8.3c-3.4-4.5-5-10.8-5-18.9c0-2.1,0.1-4.2,0.2-6.4c3.6-13.8,12.3-22.9,26-27.5c9.3-1.9,18-0.8,26.1,3.4
			c6.2,4.8,10.1,12.4,11.6,22.7c2.8-34.9,4.1-61.2,4.1-79C1018,763.2,1020.3,760.9,1024.3,758.9z M957.1,844.1
			c-2.2,12.2,0.8,20.7,8.9,25.3c13.2,5.5,28.1,0.9,44.5-13.8c-3.3-11.5-7.6-19-13-22.6C979.9,821.4,966.4,825,957.1,844.1z
			 M996.2,872.2c-8.9,6-19.4,6.9-31.5,2.8c7,4.1,13.9,5.5,20.5,4.1l7.6-3.4L996.2,872.2z M982.4,821.4l6.2,2.1l10.3,4.8
			c0.2-2.1-1-3.7-3.4-4.8C991.5,822.2,987.2,821.5,982.4,821.4z"/>
		<path d="M1043.1,868.2c1.5-1.1,2.5-1.7,3.1-1.7h0.2c0.5,0.2,1.1,0.7,1.9,1.5l-0.3,3c0.8,0.7,1.6,1.4,2.3,2.3
			c0,1.1-0.2,2.3-0.5,3.5c-3.2,5.5-6.3,8.3-9.3,8.3l-3.2,0.2l-0.8-0.2c-0.9-0.7-1.4-1.7-1.5-3l4.2-8.8c0.5-0.9,1-1.8,1.7-2.8
			L1043.1,868.2z"/>
		<path d="M1102.6,810.7c9.3,0.3,14.9,4.1,16.7,11.5c0.1,6.6-0.6,10.8-2.1,12.7c-1.6,1.9-2.9,1.5-4-1.1c-0.7-6.6-3-11.2-7-14
			c-7.3-4.2-15.8-1.8-25.5,7.3c-7.9,9.2-12.3,16.4-13.3,21.8c-2.8,17.9,1,27.4,11.2,28.4c1.9,0.4,4,0.6,6.3,0.7
			c10.7-1.2,19.8-6.2,27.3-14.9l3.3-3.7c0.8-0.6,1.8-1.1,3-1.5c0.5,0.5,1,1.1,1.3,1.8c-0.5,1.4-1.3,2.7-2.4,3.9l-5.2,5.5l1.5,1.8
			c-0.7,1.4-1.8,2.7-3.3,3.9c-6.9,6.9-15.1,10.3-24.8,10.3c-2.1,0-5.7-0.5-10.8-1.5c-5.1-1-9.6-4.9-13.4-11.8
			c-1.4-2.5-2.1-5.7-2.1-9.5c0-6.6,2.1-15,6.2-25.3c8.3-12.8,18.6-21.1,31.2-25.1L1102.6,810.7z M1108.7,816.2l3.7,3.3l2.8,3.6
			c-0.3-1.7-1-3.3-2.2-4.8C1111.7,817.4,1110.3,816.7,1108.7,816.2z"/>
		<path d="M1168.5,814.2c6.4-2.8,11-4.2,13.6-4.2c0.4,0,0.8,0,1.1,0.1c2.4,0.5,4.2,1.2,5.4,2.3c-0.4,1.1-1,2.3-2,3.3l-4.8-0.7
			l-5.7,0.3l-4.1,1.5l-3.4,2.3c8.2-1.8,14.8-1.5,19.7,0.8c6.1,3.1,9.2,8.8,9.2,17.3c0,3.6-0.5,7.6-1.6,12.2
			c-3.3,12.4-11.5,21.7-24.6,28c-0.8,0.5-2,1.1-3.6,2.1c4.1-0.3,7.6-1.4,10.8-3.2c2-0.5,3.4,0.2,4.1,1.8c-0.5,1.3-1.2,2.6-2.3,3.8
			c-4,2.1-9.4,3.2-16.2,3.2h-2.5c-2.8,0-5.1-0.2-7-0.6l-5.3,0.8h-1.4c-9.7,0-15.9-3-18.7-9.1c-1.1-2.6-1.7-5.4-1.7-8.4
			c1.5-10.9,6.4-21.6,14.7-32C1150.6,825.4,1159.3,818.2,1168.5,814.2z M1137.7,855.4c-3.7,6.2-5,11.4-4.1,15.7
			c0.9,4.3,3.6,7.1,7.9,8.5C1138,872.9,1136.8,864.8,1137.7,855.4z M1173.8,823.2c-20,6.6-30.2,17.5-30.5,32.9
			c-0.9,7.2-0.4,12.8,1.4,16.9c1.9,4.1,4.8,5.9,8.8,5.5l5.7-1.1c14.8-6.1,24.5-14.2,29.1-24.2c4.5-8.6,5-17.4,1.5-26.5l-2.3-1.1
			c-0.1,2.9-1.5,3.8-4.1,2.6l-1.1-1.8C1181.9,824,1179.1,823,1173.8,823.2z"/>
		<path d="M1212.2,810.3c2.3,1.2,3.5,3.4,3.6,6.5l1.7,27.6l0.7,1.8l0.6,10l2.3-4.1l5.4-15.9c2.8-8.3,7.1-14.7,13-19.4
			c2.1-2.1,4.2-3.1,6.4-3c2.8,1.4,4.3,3.5,4.7,6.4l0.7,16.5l1.7-1.7l4.1-6.5c1.4-2.6,3.3-4.4,5.8-5.3c6.3-0.5,9.9,1.9,10.7,7.1v0.8
			c0,7.5-1,13.5-3,18l-1.7,18.9c-0.2,2.8-0.9,6.1-1.9,10.1c-1.1,4-3,6.1-5.7,6.4l1.7-5.8l1.3-8.9c-1.6,4.7-3.2,6.3-4.7,4.8l-0.7-4.1
			l6.5-21.3c0.8-2.8,1.6-6.5,2.5-11.2c0.9-4.7,0.1-7.2-2.5-7.6c-1.7,0.3-3.2,0.9-4.7,1.7c-5,5.9-8.6,13.9-10.8,23.9
			c-2.3,10.1-3.7,16.1-4.2,18.2c-0.6,2.1-1.9,3.2-3.8,3.3l-2.3-1.1c1.9-10.2,3.3-25.6,4.1-46c-0.3-3.7-1.9-5.5-4.7-5.3
			c-2.8,0.6-4.9,5.5-6.5,14.7c-5.1,37.8-9.6,56.8-13.5,57.2l-0.6-7.7l-4.1,1.1l-1.3-4.7l0.6-4.7c-2.1-26.6-3.2-45.7-3.2-57.3
			c0-8.9,0.6-13.4,2-13.4H1212.2z M1220.5,873.9c0.8-1.5,1.4-4.2,1.8-8.1C1220.3,868.4,1219.7,871.1,1220.5,873.9z M1244.1,817.9
			l-2.1,2.1l3.2,2.1C1246,820,1245.6,818.6,1244.1,817.9z M1269.4,827.9v-1.1h-0.6L1269.4,827.9z"/>
	</g>
</g>
</svg>
