<?xml version="1.0" encoding="utf-8"?>
<!-- Generator: Adobe Illustrator 19.1.0, SVG Export Plug-In . SVG Version: 6.00 Build 0)  -->
<svg version="1.1" id="Layer_1" xmlns="http://www.w3.org/2000/svg" xmlns:xlink="http://www.w3.org/1999/xlink" x="0px" y="0px"
	 viewBox="0 0 999.3 607.3" style="enable-background:new 0 0 999.3 607.3;" xml:space="preserve">
<style type="text/css">
	.st0{opacity:0.9;}
	.st1{fill:#FFFFFF;}
	.st2{fill:none;stroke:#FFFFFF;stroke-miterlimit:10;}
	.st3{fill:#F6F6F6;}
</style>
<g class="st0">
	<g>
		
			<rect x="84.7" y="201.5" transform="matrix(0.7916 0.611 -0.611 0.7916 167.8423 -1.7209)" class="st1" width="3.6" height="87.4"/>
		
			<rect x="47.1" y="326.8" transform="matrix(0.8738 0.4862 -0.4862 0.8738 178.3312 -30.2098)" class="st1" width="200.5" height="3.6"/>
		
			<rect x="174.6" y="322.1" transform="matrix(0.1225 0.9925 -0.9925 0.1225 521.9083 57.552)" class="st1" width="107.5" height="3.6"/>
		
			<rect x="278" y="244.9" transform="matrix(0.7946 0.6072 -0.6072 0.7946 250.9512 -104.4184)" class="st1" width="3.6" height="147.6"/>
		
			<rect x="267.2" y="227.9" transform="matrix(0.5645 0.8255 -0.8255 0.5645 321.9739 -150.7727)" class="st1" width="73.4" height="3.6"/>
		
			<rect x="46.9" y="74.6" transform="matrix(0.4628 0.8865 -0.8865 0.4628 135.171 22.9682)" class="st1" width="3.6" height="96.8"/>
		
			<rect x="46.9" y="23.6" transform="matrix(0.7792 0.6268 -0.6268 0.7792 68.4374 -10.159)" class="st1" width="3.6" height="136.9"/>
		
			<rect x="127.7" y="-19.2" transform="matrix(0.3977 0.9175 -0.9175 0.3977 98.3809 -105.4375)" class="st1" width="3.6" height="82.8"/>
		<rect x="81" y="73.8" transform="matrix(0.8488 0.5287 -0.5287 0.8488 62.75 -68.2767)" class="st1" width="139.6" height="3.6"/>
		
			<rect x="229.4" y="49.3" transform="matrix(0.7967 0.6044 -0.6044 0.7967 98.0567 -122.5749)" class="st1" width="3.6" height="70.3"/>
	</g>
	<g>
		<polygon class="st1" points="221,272.1 112.3,212.2 114,209.1 222.7,269 		"/>
		
			<rect x="250.7" y="188" transform="matrix(0.7579 0.6524 -0.6524 0.7579 214.4417 -107.8202)" class="st1" width="3.6" height="93.9"/>
		
			<rect x="46.3" y="153.8" transform="matrix(0.1926 0.9813 -0.9813 0.1926 235.3129 25.2298)" class="st1" width="112.1" height="3.6"/>
		
			<rect x="127.7" y="-7.6" transform="matrix(0.7805 0.6252 -0.6252 0.7805 61.6713 -69.2859)" class="st1" width="3.6" height="121.5"/>
		
			<rect x="160.5" y="29.3" transform="matrix(0.8587 0.5124 -0.5124 0.8587 45.6016 -103.1999)" class="st1" width="99" height="3.6"/>
	</g>
</g>
<g class="st0">
	
		<rect x="322.8" y="54" transform="matrix(0.8194 0.5733 -0.5733 0.8194 120.1062 -166.6922)" class="st1" width="3.6" height="106.5"/>
	
		<rect x="280.5" y="188.7" transform="matrix(0.7896 0.6136 -0.6136 0.7896 189.4737 -171.6207)" class="st1" width="129" height="3.6"/>
	
		<rect x="425.8" y="125.2" transform="matrix(0.8333 0.5529 -0.5529 0.8333 172.1446 -205.9738)" class="st1" width="3.6" height="114.4"/>
	
		<rect x="344.1" y="97.4" transform="matrix(0.8256 0.5643 -0.5643 0.8256 126.9804 -212.4445)" class="st1" width="126.1" height="3.6"/>
	<polygon class="st1" points="374.4,288.2 371.1,286.9 394.3,229.4 397.6,230.7 	"/>
	
		<rect x="382.3" y="253.1" transform="matrix(0.5375 0.8433 -0.8433 0.5375 405.3398 -229.3273)" class="st1" width="58.8" height="3.6"/>
	
		<rect x="398.4" y="255.9" transform="matrix(0.1425 0.9898 -0.9898 0.1425 623.8457 -152.8487)" class="st1" width="3.6" height="55.4"/>
	
		<rect x="454.1" y="174.8" transform="matrix(0.8639 0.5037 -0.5037 0.8639 178.4242 -198.1718)" class="st1" width="3.6" height="112.6"/>
	
		<rect x="444.8" y="156.8" transform="matrix(0.465 0.8853 -0.8853 0.465 392.7274 -332.7487)" class="st1" width="53.8" height="3.6"/>
</g>
<g class="st0">
	<rect x="503" y="154.3" transform="matrix(0.66 0.7513 -0.7513 0.66 325.961 -408.0636)" class="st1" width="221.6" height="3.6"/>
	<rect x="519.6" y="71" transform="matrix(0.9815 0.1914 -0.1914 0.9815 42.525 -96.618)" class="st1" width="3.6" height="201.6"/>
	
		<rect x="492.2" y="131.7" transform="matrix(0.2188 0.9758 -0.9758 0.2188 563.236 -436.5967)" class="st1" width="124.2" height="3.6"/>
	
		<rect x="533.1" y="181.8" transform="matrix(0.7583 0.6519 -0.6519 0.7583 280.7899 -292.5589)" class="st1" width="3.6" height="101.1"/>
	
		<rect x="563.7" y="214.9" transform="matrix(0.9347 0.3555 -0.3555 0.9347 118.0119 -208.8828)" class="st1" width="127.4" height="3.6"/>
	
		<rect x="596.6" y="154.3" transform="matrix(8.187330e-02 0.9966 -0.9966 8.187330e-02 779.995 -534.5029)" class="st1" width="167" height="3.6"/>
</g>
<g class="st0">
	
		<rect x="289.9" y="403.5" transform="matrix(0.5783 0.8158 -0.8158 0.5783 499.5615 -155.9761)" class="st1" width="221.6" height="3.6"/>
	
		<rect x="492.5" y="298.5" transform="matrix(0.9562 0.2927 -0.2927 0.9562 138.5205 -127.1924)" class="st1" width="3.6" height="201.6"/>
	
		<rect x="395.4" y="432.2" transform="matrix(0.1161 0.9932 -0.9932 0.1161 835.4272 -70.8594)" class="st1" width="124.2" height="3.6"/>
	<polygon class="st1" points="451.5,373.6 449.1,371 522.6,301.6 525,304.2 	"/>
	
		<rect x="329.8" y="341.8" transform="matrix(0.8927 0.4507 -0.4507 0.8927 197.1017 -140.4599)" class="st1" width="127.4" height="3.6"/>
	
		<rect x="333" y="314.9" transform="matrix(0.9998 2.147942e-02 -2.147942e-02 0.9998 8.6341 -7.0981)" class="st1" width="3.6" height="167"/>
</g>
<g class="st0">
	
		<rect x="676.4" y="419.3" transform="matrix(0.4759 0.8795 -0.8795 0.4759 736.5349 -393.8427)" class="st1" width="44.6" height="3.6"/>
	
		<rect x="534.7" y="375.7" transform="matrix(0.9487 0.3162 -0.3162 0.9487 152.8128 -149.3271)" class="st1" width="3.6" height="41"/>
	
		<rect x="573" y="275.6" transform="matrix(0.8197 0.5728 -0.5728 0.8197 293.3497 -269.5518)" class="st1" width="3.6" height="111.1"/>
	
		<rect x="528.8" y="416.2" transform="matrix(0.7896 0.6136 -0.6136 0.7896 381.9406 -277.8542)" class="st1" width="134.6" height="3.6"/>
	
		<rect x="588.6" y="324.5" transform="matrix(9.766626e-02 0.9952 -0.9952 9.766626e-02 902.9866 -251.7682)" class="st1" width="3.6" height="95.1"/>
	
		<rect x="666.9" y="395.5" transform="matrix(0.8305 0.557 -0.557 0.8305 353.0078 -299.4977)" class="st1" width="3.6" height="69.7"/>
	
		<rect x="600.3" y="304.8" transform="matrix(0.8291 0.5591 -0.5591 0.8291 280.3674 -304.1319)" class="st1" width="74.8" height="3.6"/>
	
		<rect x="620.6" y="488.8" transform="matrix(8.615322e-02 0.9963 -0.9963 8.615322e-02 1084.5723 -201.2445)" class="st1" width="62.8" height="3.6"/>
	
		<rect x="680.2" y="432.2" transform="matrix(0.8242 0.5664 -0.5664 0.8242 392.0129 -301.7862)" class="st1" width="3.6" height="96.5"/>
	
		<rect x="511" y="466.1" transform="matrix(0.7663 0.6425 -0.6425 0.7663 439.0251 -271.2259)" class="st1" width="162.7" height="3.6"/>
</g>
<g class="st0">
	
		<rect x="558.4" y="414" transform="matrix(6.369857e-02 0.998 -0.998 6.369857e-02 1112.057 -353.7096)" class="st1" width="372.3" height="3.6"/>
	
		<rect x="800.4" y="210.9" transform="matrix(0.7924 0.6099 -0.6099 0.7924 354.6806 -425.2372)" class="st1" width="3.6" height="195.2"/>
	
		<rect x="790.2" y="333" transform="matrix(7.027592e-02 0.9975 -0.9975 7.027592e-02 1117.8375 -434.4696)" class="st1" width="3.6" height="99"/>
	
		<rect x="899.1" y="204" transform="matrix(0.7924 0.6099 -0.6099 0.7924 370.9734 -486.8975)" class="st1" width="3.6" height="195.2"/>
	<path class="st2" d="M864.2,230"/>
	<path class="st2" d="M960.4,224.3"/>
	
		<rect x="805.6" y="459.2" transform="matrix(0.6803 0.7329 -0.7329 0.6803 631.1335 -525.0526)" class="st1" width="223.7" height="3.6"/>
	
		<rect x="797.1" y="371.2" transform="matrix(0.9339 0.3575 -0.3575 0.9339 228.1023 -253.2214)" class="st1" width="3.6" height="238.2"/>
	
		<rect x="720.1" y="462.6" transform="matrix(0.8477 0.5305 -0.5305 0.8477 378.6306 -389.802)" class="st1" width="296" height="3.6"/>
	
		<rect x="909.3" y="178.2" transform="matrix(7.027592e-02 0.9975 -0.9975 7.027592e-02 1074.2039 -697.0983)" class="st1" width="3.6" height="99"/>
</g>
<g>
	<circle class="st1" cx="5.7" cy="145.4" r="5.7"/>
	<circle class="st1" cx="252.5" cy="56.5" r="5.7"/>
	<circle class="st1" cx="167.5" cy="5.7" r="5.7"/>
	<circle class="st1" cx="210" cy="112.5" r="5.7"/>
	<circle class="st1" cx="91.5" cy="38.7" r="5.7"/>
	<circle class="st1" cx="91.5" cy="100.6" r="5.7"/>
	<circle class="st1" cx="113.1" cy="210.6" r="5.7"/>
	<circle class="st1" cx="59.8" cy="279.8" r="5.7"/>
	<circle class="st1" cx="221.8" cy="270.6" r="5.7"/>
	<circle class="st1" cx="235" cy="377.3" r="5.7"/>
	<circle class="st1" cx="283.1" cy="199.4" r="5.7"/>
	<circle class="st1" cx="324.6" cy="260" r="5.7"/>
</g>
<g>
	<circle class="st1" cx="355.1" cy="63.6" r="5.7"/>
	<circle class="st1" cx="459.2" cy="134.7" r="5.7"/>
	<circle class="st1" cx="294.1" cy="150.9" r="5.7"/>
	<circle class="st1" cx="395.9" cy="231" r="5.7"/>
	<circle class="st1" cx="372.7" cy="287.6" r="5.7"/>
	<circle class="st1" cx="427.5" cy="279.7" r="5.7"/>
	<circle class="st1" cx="484.2" cy="182.4" r="5.7"/>
</g>
<g>
	<circle class="st1" cx="502" cy="270.7" r="5.7"/>
	<circle class="st1" cx="567.9" cy="194" r="5.7"/>
	<circle class="st1" cx="540.7" cy="72.9" r="5.7"/>
	<circle class="st1" cx="686.9" cy="239.3" r="5.7"/>
	<circle class="st1" cx="673.3" cy="72.9" r="5.7"/>
</g>
<g>
	<circle class="st1" cx="336.6" cy="314.9" r="5.7"/>
	<circle class="st1" cx="332.9" cy="481.9" r="5.7"/>
	<circle class="st1" cx="464.7" cy="495.6" r="5.7"/>
	<circle class="st1" cx="450.3" cy="372.3" r="5.7"/>
	<circle class="st1" cx="523.8" cy="302.9" r="5.7"/>
</g>
<g>
	<circle class="st1" cx="543" cy="376.7" r="5.7"/>
	<circle class="st1" cx="637.7" cy="367.5" r="5.7"/>
	<circle class="st1" cx="530" cy="418" r="5.7"/>
	<circle class="st1" cx="649.3" cy="459.3" r="5.7"/>
	<circle class="st1" cx="654.7" cy="520.2" r="5.7"/>
	<circle class="st1" cx="688.1" cy="401.4" r="5.7"/>
	<circle class="st1" cx="709.3" cy="440.7" r="5.7"/>
	<circle class="st1" cx="606.7" cy="285.6" r="5.7"/>
	<circle class="st1" cx="668.7" cy="327.5" r="5.7"/>
</g>
<g>
	<path class="st1" d="M947.3,243.7"/>
	<path class="st1" d="M848.5,250.6"/>
	<circle class="st1" cx="732.7" cy="230" r="5.7"/>
	<circle class="st1" cx="742.6" cy="385.9" r="5.7"/>
	<circle class="st1" cx="756.4" cy="601.6" r="5.7"/>
	<circle class="st1" cx="841.4" cy="380.1" r="5.7"/>
	<circle class="st1" cx="993.5" cy="542.9" r="5.7"/>
	<circle class="st1" cx="861.7" cy="231.2" r="5.7"/>
	<circle class="st1" cx="960.4" cy="224.3" r="5.7"/>
</g>
<g class="st0">
	<path class="st3" d="M732,162v13.9c0,0.8,0.6,1.7,1.7,2.6s2.1,1.4,2.8,1.4c0.8,0,2.4-0.6,4.6-1.9c0.2-0.1,0.4-0.2,0.7-0.1
		c0.3,0.1,0.4,0.2,0.6,0.4l0.5,1.1c0.2,0.5,0.1,0.8-0.3,1.1c-2.6,1.6-4.6,2.3-6.1,2.3c-1.4,0-3-0.7-4.9-2.2
		c-1.9-1.5-2.8-2.9-2.8-4.3v-14.8c0-1.3,0.9-2.8,2.8-4.2c1.9-1.5,3.5-2.2,4.9-2.2c1.5,0,3.5,0.8,6,2.3c0.5,0.3,0.6,0.7,0.3,1.2
		l-0.5,1c-0.2,0.4-0.6,0.5-1.2,0.3c-2.2-1.2-3.8-1.8-4.6-1.8c-0.7,0-1.7,0.5-2.8,1.4C732.6,160.3,732,161.2,732,162z"/>
	<path class="st3" d="M763.1,170.1h-9.3v11.6c0,0.2-0.1,0.4-0.2,0.5c-0.2,0.1-0.3,0.2-0.6,0.2h-1.6c-0.2,0-0.4-0.1-0.6-0.2
		c-0.2-0.2-0.2-0.3-0.2-0.5v-25.6c0-0.2,0.1-0.4,0.2-0.5c0.2-0.2,0.3-0.2,0.6-0.2h1.6c0.2,0,0.4,0.1,0.6,0.2
		c0.2,0.2,0.2,0.3,0.2,0.5v11.2h9.3v-11.2c0-0.2,0.1-0.4,0.2-0.5c0.2-0.1,0.3-0.2,0.5-0.2h1.7c0.2,0,0.4,0.1,0.6,0.2
		c0.2,0.2,0.2,0.3,0.2,0.5v25.6c0,0.2-0.1,0.4-0.2,0.5c-0.2,0.2-0.3,0.2-0.6,0.2h-1.7c-0.2,0-0.4-0.1-0.5-0.2
		c-0.2-0.1-0.2-0.3-0.2-0.5V170.1z"/>
	<path class="st3" d="M790.9,176.4c0,1.3-0.9,2.7-2.8,4.2c-1.9,1.5-3.5,2.2-4.9,2.2c-1.4,0-3-0.7-4.9-2.2c-1.9-1.5-2.8-2.9-2.8-4.2
		v-20.3c0-0.2,0.1-0.4,0.2-0.5c0.2-0.2,0.3-0.2,0.6-0.2h1.6c0.2,0,0.4,0.1,0.6,0.2c0.2,0.1,0.2,0.3,0.2,0.5v19.8
		c0,0.8,0.6,1.6,1.7,2.6s2.1,1.4,2.8,1.4c0.8,0,1.7-0.5,2.8-1.4c1.1-0.9,1.6-1.8,1.6-2.6v-19.8c0-0.2,0.1-0.4,0.2-0.5
		c0.2-0.2,0.3-0.2,0.5-0.2h1.7c0.2,0,0.4,0.1,0.6,0.2c0.2,0.2,0.2,0.3,0.2,0.5V176.4z"/>
	<path class="st3" d="M801.5,182.5c-0.2,0-0.5-0.2-0.8-0.5c-0.3-0.4-0.5-0.6-0.5-0.9v-24.9c0-0.2,0.1-0.4,0.2-0.5
		c0.2-0.2,0.3-0.2,0.6-0.2h1.6c0.2,0,0.4,0.1,0.6,0.2c0.2,0.2,0.2,0.3,0.2,0.5v23.5h8.4c0.2,0,0.4,0.1,0.6,0.2
		c0.2,0.1,0.2,0.3,0.2,0.5v1.4c0,0.2-0.1,0.4-0.2,0.5c-0.2,0.1-0.3,0.2-0.6,0.2H801.5z"/>
	<path class="st3" d="M831.2,172.5h-9v9.2c0,0.2-0.1,0.4-0.2,0.5c-0.2,0.1-0.3,0.2-0.5,0.2h-1.7c-0.2,0-0.4-0.1-0.6-0.2
		c-0.2-0.2-0.2-0.3-0.2-0.5v-20.1c0-1.3,0.9-2.8,2.8-4.3c1.9-1.5,3.5-2.3,4.9-2.3s3,0.8,4.9,2.3c1.9,1.5,2.8,3,2.8,4.3v20.1
		c0,0.2-0.1,0.4-0.2,0.5c-0.2,0.2-0.3,0.2-0.6,0.2H832c-0.2,0-0.4-0.1-0.5-0.2c-0.2-0.2-0.2-0.3-0.2-0.5V172.5z M822.3,162.1v7.6h9
		v-7.6c0-0.8-0.5-1.7-1.6-2.6c-1.1-0.9-2-1.4-2.8-1.4c-0.8,0-1.7,0.5-2.8,1.4C822.8,160.4,822.3,161.3,822.3,162.1z"/>
	<path class="st3" d="M850.1,164.7v5.6h4.7c0.5,0,0.7,0.2,0.7,0.7v1.4c0,0.5-0.2,0.7-0.7,0.7h-4.7v5.4c0,0.5-0.2,0.7-0.7,0.7H848
		c-0.5,0-0.7-0.2-0.7-0.7v-5.4h-4.7c-0.5,0-0.7-0.2-0.7-0.7v-1.4c0-0.5,0.2-0.7,0.7-0.7h4.7v-5.6c0-0.5,0.2-0.7,0.7-0.7h1.4
		C849.9,164,850.1,164.2,850.1,164.7z"/>
	<path class="st3" d="M866.3,167.5l8.6-11.5c0.3-0.4,0.7-0.6,1.2-0.6h1.6c0.3,0,0.5,0.1,0.6,0.4c0.1,0.3,0,0.6-0.2,0.9l-8.7,11.4
		l8.7,12.9c0.2,0.3,0.2,0.6,0.2,0.9c-0.1,0.3-0.2,0.5-0.6,0.5h-1.8c-0.5,0-0.9-0.2-1.2-0.7l-7.3-11l-1.1,1.5v9.4
		c0,0.5-0.3,0.8-0.9,0.8h-1.4c-0.6,0-0.9-0.3-0.9-0.8v-25.4c0-0.5,0.3-0.8,0.9-0.8h1.4c0.6,0,0.9,0.3,0.9,0.8V167.5z"/>
	<path class="st3" d="M897.7,172.5h-9v9.2c0,0.2-0.1,0.4-0.2,0.5c-0.2,0.1-0.3,0.2-0.5,0.2h-1.7c-0.2,0-0.4-0.1-0.6-0.2
		c-0.2-0.2-0.2-0.3-0.2-0.5v-20.1c0-1.3,0.9-2.8,2.8-4.3c1.9-1.5,3.5-2.3,4.9-2.3c1.3,0,3,0.8,4.9,2.3c1.9,1.5,2.8,3,2.8,4.3v20.1
		c0,0.2-0.1,0.4-0.2,0.5c-0.2,0.2-0.3,0.2-0.6,0.2h-1.7c-0.2,0-0.4-0.1-0.5-0.2c-0.2-0.2-0.2-0.3-0.2-0.5V172.5z M888.8,162.1v7.6h9
		v-7.6c0-0.8-0.5-1.7-1.6-2.6c-1.1-0.9-2-1.4-2.8-1.4c-0.8,0-1.7,0.5-2.8,1.4C889.3,160.4,888.8,161.3,888.8,162.1z"/>
	<path class="st3" d="M917,158.1c-0.7,0-1.7,0.4-2.9,1.3c-1.2,0.9-1.7,1.7-1.7,2.5v1.7c0,0.6,0.2,1.2,0.7,1.6c0.5,0.4,1.1,0.8,2,1.2
		l5.7,2.4c2.3,1,3.5,2.6,3.5,4.8v2.9c0,1.1-0.9,2.5-2.8,4c-1.9,1.5-3.5,2.3-4.8,2.3c-1.5,0-3.7-0.8-6.7-2.5
		c-0.6-0.3-0.7-0.7-0.4-1.3l0.5-1c0.3-0.5,0.7-0.6,1.2-0.4c2.5,1.4,4.3,2.1,5.4,2.1c0.7,0,1.7-0.5,2.8-1.4s1.7-1.7,1.7-2.4v-2
		c0-1.3-0.9-2.4-2.6-3.1l-5.4-2.3c-1.1-0.5-2-1.1-2.7-1.9c-0.7-0.8-1.1-1.7-1.1-2.8v-2.6c0-1.3,1-2.6,2.9-4.1
		c1.9-1.5,3.5-2.2,4.9-2.2c1.4,0,3.5,0.7,6.3,2.2c0.5,0.3,0.6,0.7,0.4,1.2l-0.5,1c-0.1,0.2-0.3,0.3-0.5,0.4c-0.2,0.1-0.5,0-0.7-0.1
		C919.6,158.7,917.9,158.1,917,158.1z"/>
	<path class="st3" d="M935.4,170.1v9.5h9c0.2,0,0.4,0.1,0.5,0.2c0.2,0.2,0.2,0.3,0.2,0.5v1.4c0,0.2-0.1,0.4-0.2,0.5
		c-0.2,0.1-0.3,0.2-0.5,0.2h-10.7c-0.3,0-0.6-0.2-1-0.6c-0.4-0.4-0.6-0.7-0.6-1v-24c0-0.3,0.2-0.6,0.6-1c0.4-0.4,0.7-0.6,1-0.6h10.6
		c0.2,0,0.4,0.1,0.5,0.2c0.2,0.1,0.2,0.3,0.2,0.5v1.4c0,0.2-0.1,0.4-0.2,0.5c-0.2,0.2-0.3,0.2-0.5,0.2h-9v9.1h7.9
		c0.2,0,0.4,0.1,0.5,0.2c0.2,0.2,0.2,0.3,0.2,0.5v1.4c0,0.2-0.1,0.4-0.2,0.5c-0.2,0.1-0.3,0.2-0.5,0.2H935.4z"/>
	<path class="st3" d="M951.7,155.4h14.9c0.2,0,0.4,0.1,0.5,0.2c0.1,0.1,0.2,0.3,0.2,0.5v1.4c0,0.5-0.2,0.7-0.7,0.7h-5.8v23.5
		c0,0.2-0.1,0.4-0.2,0.5c-0.2,0.1-0.3,0.2-0.6,0.2h-1.6c-0.2,0-0.4-0.1-0.6-0.2c-0.2-0.1-0.2-0.3-0.2-0.5v-23.5h-5.8
		c-0.5,0-0.8-0.2-0.8-0.7v-1.4c0-0.2,0.1-0.4,0.2-0.5C951.2,155.5,951.4,155.4,951.7,155.4z"/>
</g>
</svg>
