<?xml version="1.0" encoding="utf-8"?>
<!-- Generator: Adobe Illustrator 19.1.0, SVG Export Plug-In . SVG Version: 6.00 Build 0)  -->
<svg version="1.1" id="Layer_1" xmlns="http://www.w3.org/2000/svg" xmlns:xlink="http://www.w3.org/1999/xlink" x="0px" y="0px"
	 viewBox="0 0 780 220" style="enable-background:new 0 0 780 220;" xml:space="preserve">
<style type="text/css">
	.st0{opacity:0.9;}
	.st1{fill:#FFFFFF;}
</style>
<g class="st0">
	<g>
		<rect x="53" y="117.1" transform="matrix(0.7916 0.611 -0.611 0.7916 97.6647 -3.5402)" class="st1" width="2" height="48.5"/>
		
			<rect x="32.2" y="186.7" transform="matrix(0.8738 0.4862 -0.4862 0.8738 102.3502 -19.0448)" class="st1" width="111.4" height="2"/>
		
			<rect x="103" y="184.2" transform="matrix(0.1225 0.9925 -0.9925 0.1225 300.3548 30.5731)" class="st1" width="59.7" height="2"/>
		
			<rect x="160.4" y="141.2" transform="matrix(0.7946 0.6072 -0.6072 0.7946 143.7965 -60.5842)" class="st1" width="2" height="82"/>
		
			<rect x="154.4" y="131.8" transform="matrix(0.5645 0.8255 -0.8255 0.5645 185.766 -86.4505)" class="st1" width="40.8" height="2"/>
		<rect x="32" y="46.6" transform="matrix(0.4628 0.8865 -0.8865 0.4628 82.918 10.2301)" class="st1" width="2" height="53.8"/>
		<rect x="32" y="18.3" transform="matrix(0.7792 0.6268 -0.6268 0.7792 42.5989 -8.258)" class="st1" width="2" height="76.1"/>
		<rect x="77" y="-5.5" transform="matrix(0.3977 0.9175 -0.9175 0.3977 63.0315 -60.9518)" class="st1" width="2" height="46"/>
		<rect x="51" y="46.2" transform="matrix(0.8488 0.5287 -0.5287 0.8488 38.5119 -40.3172)" class="st1" width="77.5" height="2"/>
		
			<rect x="133.5" y="32.6" transform="matrix(0.7967 0.6044 -0.6044 0.7967 58.8314 -70.665)" class="st1" width="2" height="39.1"/>
	</g>
	<g>
		<rect x="64.6" y="137.9" transform="matrix(0.8757 0.4829 -0.4829 0.8757 79.3676 -30.5624)" class="st1" width="69" height="2"/>
		
			<rect x="145.3" y="109.6" transform="matrix(0.7579 0.6524 -0.6524 0.7579 123.9694 -62.5549)" class="st1" width="2" height="52.2"/>
		
			<rect x="31.7" y="90.7" transform="matrix(0.1926 0.9813 -0.9813 0.1926 140.6629 12.3202)" class="st1" width="62.3" height="2"/>
		<rect x="77" y="1" transform="matrix(0.7805 0.6252 -0.6252 0.7805 38.8235 -41.1018)" class="st1" width="2" height="67.5"/>
		<rect x="95.2" y="21.5" transform="matrix(0.8587 0.5124 -0.5124 0.8587 28.8412 -59.6719)" class="st1" width="55" height="2"/>
	</g>
</g>
<g class="st0">
	
		<rect x="185.3" y="35.2" transform="matrix(0.8194 0.5733 -0.5733 0.8194 70.7831 -95.1046)" class="st1" width="2" height="59.2"/>
	
		<rect x="161.8" y="110" transform="matrix(0.7896 0.6136 -0.6136 0.7896 109.7074 -97.9302)" class="st1" width="71.7" height="2"/>
	
		<rect x="242.5" y="74.8" transform="matrix(0.8333 0.5529 -0.5529 0.8333 99.5031 -116.8767)" class="st1" width="2" height="63.5"/>
	<rect x="197.2" y="59.3" transform="matrix(0.8256 0.5643 -0.5643 0.8256 74.5183 -120.4999)" class="st1" width="70" height="2"/>
	
		<rect x="218.5" y="131.7" transform="matrix(0.9271 0.3748 -0.3748 0.9271 71.8261 -71.4043)" class="st1" width="2" height="34.5"/>
	
		<rect x="218.4" y="145.8" transform="matrix(0.5375 0.8433 -0.8433 0.5375 232.3325 -130.057)" class="st1" width="32.7" height="2"/>
	
		<rect x="227.3" y="147.4" transform="matrix(0.1425 0.9898 -0.9898 0.1425 356.8505 -86.399)" class="st1" width="2" height="30.8"/>
	
		<rect x="258.3" y="102.3" transform="matrix(0.8639 0.5037 -0.5037 0.8639 102.5523 -112.4063)" class="st1" width="2" height="62.5"/>
	
		<rect x="253.1" y="92.3" transform="matrix(0.465 0.8853 -0.8853 0.465 225.9792 -187.3868)" class="st1" width="29.9" height="2"/>
</g>
<g class="st0">
	<rect x="285.4" y="90.9" transform="matrix(0.66 0.7513 -0.7513 0.66 187.0224 -229.4348)" class="st1" width="123.1" height="2"/>
	<rect x="294.6" y="44.6" transform="matrix(0.9815 0.1914 -0.1914 0.9815 24.7288 -54.7269)" class="st1" width="2" height="112"/>
	
		<rect x="279.4" y="78.3" transform="matrix(0.2188 0.9758 -0.9758 0.2188 322.6495 -244.3421)" class="st1" width="69" height="2"/>
	
		<rect x="302.2" y="106.2" transform="matrix(0.7583 0.6519 -0.6519 0.7583 160.823 -165.1825)" class="st1" width="2" height="56.2"/>
	
		<rect x="319.2" y="124.6" transform="matrix(0.9347 0.3555 -0.3555 0.9347 67.7971 -117.8349)" class="st1" width="70.8" height="2"/>
	
		<rect x="337.4" y="90.9" transform="matrix(8.187330e-02 0.9966 -0.9966 8.187330e-02 443.9959 -298.1465)" class="st1" width="92.8" height="2"/>
</g>
<g class="st0">
	
		<rect x="381.5" y="104.7" transform="matrix(0.5783 0.8158 -0.8158 0.5783 273.0812 -316.8598)" class="st1" width="123.1" height="2"/>
	
		<rect x="494.1" y="46.4" transform="matrix(0.9562 0.2927 -0.2927 0.9562 51.6589 -140.4253)" class="st1" width="2" height="112"/>
	
		<rect x="440.2" y="120.7" transform="matrix(0.1161 0.9932 -0.9932 0.1161 540.3807 -363.8805)" class="st1" width="69" height="2"/>
	
		<rect x="490.1" y="40.1" transform="matrix(0.6873 0.7264 -0.7264 0.6873 203.0441 -335.3741)" class="st1" width="2" height="56.2"/>
	
		<rect x="403.7" y="70.5" transform="matrix(0.8927 0.4507 -0.4507 0.8927 79.3442 -190.221)" class="st1" width="70.8" height="2"/>
	
		<rect x="405.4" y="55.5" transform="matrix(0.9998 2.147942e-02 -2.147942e-02 0.9998 2.2827 -8.7064)" class="st1" width="2" height="92.8"/>
</g>
<g class="st0">
	
		<rect x="596.2" y="113.5" transform="matrix(0.4759 0.8795 -0.8795 0.4759 419.7125 -475.2875)" class="st1" width="24.8" height="2"/>
	
		<rect x="517.5" y="89.3" transform="matrix(0.9487 0.3162 -0.3162 0.9487 58.4484 -158.8035)" class="st1" width="2" height="22.8"/>
	
		<rect x="538.8" y="33.7" transform="matrix(0.8197 0.5728 -0.5728 0.8197 134.325 -297.5634)" class="st1" width="2" height="61.7"/>
	
		<rect x="514.3" y="111.8" transform="matrix(0.7896 0.6136 -0.6136 0.7896 185.3014 -314.7704)" class="st1" width="74.8" height="2"/>
	
		<rect x="547.4" y="60.9" transform="matrix(9.766626e-02 0.9952 -0.9952 9.766626e-02 581.7493 -467.0259)" class="st1" width="2" height="52.9"/>
	<rect x="591" y="100.3" transform="matrix(0.8305 0.557 -0.557 0.8305 166.967 -309.408)" class="st1" width="2" height="38.7"/>
	
		<rect x="553.9" y="49.9" transform="matrix(0.8291 0.5591 -0.5591 0.8291 126.6746 -312.6253)" class="st1" width="41.6" height="2"/>
	
		<rect x="565.2" y="152.1" transform="matrix(8.615322e-02 0.9963 -0.9963 8.615322e-02 685.0375 -440.5673)" class="st1" width="34.9" height="2"/>
	
		<rect x="598.4" y="120.7" transform="matrix(0.8242 0.5664 -0.5664 0.8242 188.9205 -313.5167)" class="st1" width="2" height="53.6"/>
	
		<rect x="504.4" y="139.5" transform="matrix(0.7663 0.6425 -0.6425 0.7663 218.7028 -320.223)" class="st1" width="90.4" height="2"/>
</g>
<g class="st0">
	
		<rect x="530.7" y="110.6" transform="matrix(6.369857e-02 0.998 -0.998 6.369857e-02 705.0554 -528.3197)" class="st1" width="206.8" height="2"/>
	
		<rect x="665.1" y="-2.2" transform="matrix(0.7924 0.6099 -0.6099 0.7924 169.9692 -395.4934)" class="st1" width="2" height="108.5"/>
	
		<rect x="659.5" y="65.6" transform="matrix(7.027592e-02 0.9975 -0.9975 7.027592e-02 706.8692 -572.3018)" class="st1" width="2" height="55"/>
	
		<rect x="720" y="-6.1" transform="matrix(0.7924 0.6099 -0.6099 0.7924 179.0204 -429.7477)" class="st1" width="2" height="108.5"/>
	<path class="st1" d="M700.6,8.4"/>
	<path class="st1" d="M754,5.2"/>
	
		<rect x="668" y="135.7" transform="matrix(0.6803 0.7329 -0.7329 0.6803 333.5846 -491.4412)" class="st1" width="124.3" height="2"/>
	
		<rect x="663.3" y="86.8" transform="matrix(0.9339 0.3575 -0.3575 0.9339 98.6013 -227.3935)" class="st1" width="2" height="132.3"/>
	
		<rect x="620.5" y="137.6" transform="matrix(0.8477 0.5305 -0.5305 0.8477 180.5814 -351.7069)" class="st1" width="164.4" height="2"/>
	
		<rect x="725.6" y="-20.4" transform="matrix(7.027592e-02 0.9975 -0.9975 7.027592e-02 682.6293 -718.2006)" class="st1" width="2" height="55"/>
</g>
<g>
	<circle class="st1" cx="9.2" cy="86" r="3.2"/>
	<circle class="st1" cx="146.3" cy="36.6" r="3.2"/>
	<circle class="st1" cx="99" cy="8.4" r="3.2"/>
	<circle class="st1" cx="122.6" cy="67.7" r="3.2"/>
	<circle class="st1" cx="56.8" cy="26.7" r="3.2"/>
	<circle class="st1" cx="56.8" cy="61.1" r="3.2"/>
	<circle class="st1" cx="68.8" cy="122.2" r="3.2"/>
	<circle class="st1" cx="39.2" cy="160.6" r="3.2"/>
	<circle class="st1" cx="129.2" cy="155.5" r="3.2"/>
	<circle class="st1" cx="136.5" cy="214.8" r="3.2"/>
	<circle class="st1" cx="163.3" cy="116" r="3.2"/>
	<circle class="st1" cx="186.3" cy="149.6" r="3.2"/>
</g>
<g>
	<circle class="st1" cx="203.3" cy="40.5" r="3.2"/>
	<circle class="st1" cx="261.1" cy="80" r="3.2"/>
	<circle class="st1" cx="169.4" cy="89" r="3.2"/>
	<circle class="st1" cx="226" cy="133.5" r="3.2"/>
	<circle class="st1" cx="213.1" cy="165" r="3.2"/>
	<circle class="st1" cx="243.5" cy="160.6" r="3.2"/>
	<circle class="st1" cx="275" cy="106.5" r="3.2"/>
</g>
<g>
	<circle class="st1" cx="284.9" cy="155.6" r="3.2"/>
	<circle class="st1" cx="321.5" cy="113" r="3.2"/>
	<circle class="st1" cx="306.4" cy="45.7" r="3.2"/>
	<circle class="st1" cx="387.6" cy="138.1" r="3.2"/>
	<circle class="st1" cx="380" cy="45.7" r="3.2"/>
</g>
<g>
	<circle class="st1" cx="407.5" cy="55.5" r="3.2"/>
	<circle class="st1" cx="405.4" cy="148.3" r="3.2"/>
	<circle class="st1" cx="478.7" cy="155.9" r="3.2"/>
	<circle class="st1" cx="470.6" cy="87.4" r="3.2"/>
	<circle class="st1" cx="511.5" cy="48.9" r="3.2"/>
</g>
<g>
	<circle class="st1" cx="522.1" cy="89.9" r="3.2"/>
	<circle class="st1" cx="574.7" cy="84.7" r="3.2"/>
	<circle class="st1" cx="514.9" cy="112.8" r="3.2"/>
	<circle class="st1" cx="581.2" cy="135.8" r="3.2"/>
	<circle class="st1" cx="584.2" cy="169.6" r="3.2"/>
	<circle class="st1" cx="602.7" cy="103.6" r="3.2"/>
	<circle class="st1" cx="614.5" cy="125.4" r="3.2"/>
	<circle class="st1" cx="557.5" cy="39.3" r="3.2"/>
	<circle class="st1" cx="592" cy="62.5" r="3.2"/>
</g>
<g>
	<path class="st1" d="M746.7,16"/>
	<path class="st1" d="M691.8,19.8"/>
	<circle class="st1" cx="627.5" cy="8.4" r="3.2"/>
	<circle class="st1" cx="633" cy="95" r="3.2"/>
	<circle class="st1" cx="640.7" cy="214.8" r="3.2"/>
	<circle class="st1" cx="687.9" cy="91.8" r="3.2"/>
	<circle class="st1" cx="772.4" cy="182.2" r="3.2"/>
	<circle class="st1" cx="699.2" cy="9" r="3.2"/>
	<circle class="st1" cx="754" cy="5.2" r="3.2"/>
</g>
</svg>
