<?xml version="1.0" encoding="utf-8"?>
<!-- Generator: Adobe Illustrator 19.1.0, SVG Export Plug-In . SVG Version: 6.00 Build 0)  -->
<svg version="1.1" id="Layer_1" xmlns="http://www.w3.org/2000/svg" xmlns:xlink="http://www.w3.org/1999/xlink" x="0px" y="0px"
	 viewBox="0 0 1800 1200" style="enable-background:new 0 0 1800 1200;" xml:space="preserve">
<style type="text/css">
	.st0{fill:#010101;}
	.st1{fill:#989898;}
	.st2{fill:#66A4D9;}
	.st3{fill:#FFFFFF;}
</style>
<g>
	<g>
		<path class="st0" d="M538.4,503.8h31.1c16.8,0,29,1.6,36.4,4.7c7.4,3.1,13.3,8.1,17.6,15.1c4.3,7,6.4,15.3,6.4,25
			c0,10.8-2.8,19.7-8.4,26.8c-5.6,7.1-13.3,12.1-22.9,14.9c-5.7,1.6-16,2.4-30.9,2.4V658h-29.3V503.8z M567.8,564h9.3
			c7.3,0,12.4-0.5,15.3-1.6c2.9-1.1,5.1-2.8,6.8-5.2c1.6-2.4,2.5-5.3,2.5-8.8c0-6-2.3-10.3-6.9-13c-3.4-2-9.6-3-18.7-3h-8.3V564z"/>
		<path class="st0" d="M732.5,609.5l14,16l-6.4,5.8l-6.3,5.7l19.8,21h-28.5l-8.1-8.4c-13,7.7-25,11.5-36.1,11.5
			c-9.4,0-17.1-2.8-22.9-8.3c-5.8-5.5-8.8-12.6-8.8-21.3c0-6.5,1.7-12.7,5-18.5c3.3-5.8,9-11.8,17-18c-7.9-10.7-11.9-20.1-11.9-28.3
			c0-6.1,2.6-12.1,7.9-18c5.3-5.9,12.7-8.9,22.2-8.9c9.7,0,17.1,2.9,22.3,8.8c5.2,5.9,7.8,11.8,7.8,17.8c0,4.7-1.2,9.2-3.6,13.5
			c-2.4,4.3-7.8,10.7-16.4,19.1c10,11.8,16.5,19.1,19.4,22.1C720.7,619.6,725.2,615.8,732.5,609.5z M701.9,633.3
			c-4.3-4.2-10.4-11.3-18.2-21.1c-8.3,6.9-12.4,12.9-12.4,18c0,2.4,1.1,4.6,3.4,6.6c2.3,2,5.1,3,8.6,3
			C688.2,639.8,694.4,637.6,701.9,633.3z M687.9,582.3c6.2-5.3,9.3-10,9.3-14.1c0-2.1-0.7-3.9-2.1-5.2c-1.4-1.3-3.2-2-5.5-2
			c-2.1,0-3.9,0.8-5.4,2.3c-1.5,1.5-2.2,3.3-2.2,5.3C682,572.6,683.9,577.2,687.9,582.3z"/>
		<path class="st0" d="M760.3,503.8h85.2v28.9h-28.1V658h-29.8V532.7h-27.4V503.8z"/>
		<path class="st0" d="M926.1,503.8h15.4v64.7h78.5v-64.7h15.4V658H1020v-74.4h-78.5V658h-15.4V503.8z"/>
		<path class="st0" d="M1124.5,541c17.6,0,32.1,6.4,43.7,19.1c10.5,11.6,15.8,25.3,15.8,41.2c0,15.9-5.5,29.9-16.6,41.8
			c-11.1,11.9-25.4,17.9-42.8,17.9c-17.5,0-31.8-6-42.9-17.9c-11.1-11.9-16.6-25.8-16.6-41.8c0-15.8,5.2-29.5,15.8-41.1
			C1092.3,547.4,1106.9,541,1124.5,541z M1124.4,555.3c-12.2,0-22.7,4.5-31.5,13.5c-8.8,9-13.1,19.9-13.1,32.7c0,8.2,2,15.9,6,23.1
			c4,7.1,9.4,12.6,16.2,16.5c6.8,3.9,14.3,5.8,22.4,5.8c8.1,0,15.6-1.9,22.4-5.8c6.8-3.9,12.2-9.4,16.2-16.5c4-7.1,6-14.8,6-23.1
			c0-12.8-4.4-23.7-13.2-32.7C1147,559.8,1136.6,555.3,1124.4,555.3z"/>
		<path class="st0" d="M1268.4,556.4l-9.4,9.7c-7.8-7.6-15.5-11.4-23-11.4c-4.8,0-8.8,1.6-12.2,4.7c-3.4,3.1-5.1,6.8-5.1,11
			c0,3.7,1.4,7.2,4.2,10.6c2.8,3.4,8.7,7.4,17.6,12.1c10.9,5.7,18.3,11.1,22.3,16.4c3.9,5.3,5.8,11.3,5.8,17.9
			c0,9.4-3.3,17.3-9.9,23.8c-6.6,6.5-14.8,9.7-24.7,9.7c-6.6,0-12.9-1.4-18.8-4.3c-6-2.9-10.9-6.8-14.9-11.8l9.2-10.5
			c7.5,8.5,15.4,12.7,23.8,12.7c5.9,0,10.9-1.9,15-5.7s6.2-8.2,6.2-13.3c0-4.2-1.4-7.9-4.1-11.2c-2.7-3.2-8.9-7.3-18.5-12.2
			c-10.3-5.3-17.3-10.6-21-15.7c-3.7-5.2-5.6-11.1-5.6-17.7c0-8.7,3-15.9,8.9-21.6c5.9-5.7,13.4-8.6,22.4-8.6
			C1247.2,541,1257.8,546.1,1268.4,556.4z"/>
		<path class="st0" d="M1307.2,501.6h14.7v42.3h23.3v12.7h-23.3V658h-14.7V556.6h-20v-12.7h20V501.6z"/>
		<path class="st0" d="M1372.2,497c3.3,0,6.2,1.2,8.6,3.6c2.4,2.4,3.5,5.2,3.5,8.6c0,3.3-1.2,6.1-3.5,8.5c-2.4,2.4-5.2,3.6-8.6,3.6
			c-3.3,0-6.1-1.2-8.5-3.6c-2.4-2.4-3.5-5.2-3.5-8.5c0-3.4,1.2-6.2,3.5-8.6C1366.1,498.1,1369,497,1372.2,497z M1364.9,543.9h14.7
			v114h-14.7V543.9z"/>
		<path class="st0" d="M1410.1,543.9h14.7v20.4c5.9-7.8,12.4-13.7,19.5-17.6c7.1-3.9,14.9-5.8,23.3-5.8c8.5,0,16.1,2.2,22.7,6.5
			c6.6,4.3,11.5,10.2,14.6,17.5c3.1,7.3,4.7,18.8,4.7,34.3V658h-14.7v-54.4c0-13.1-0.5-21.9-1.6-26.3c-1.7-7.5-5-13.2-9.8-17
			c-4.8-3.8-11.1-5.7-18.9-5.7c-8.9,0-16.8,2.9-23.9,8.8c-7,5.9-11.7,13.1-13.9,21.8c-1.4,5.7-2.1,16-2.1,31V658h-14.7V543.9z"/>
		<path class="st0" d="M1639.4,543.9h14.7v90.9c0,16-1.4,27.7-4.2,35.1c-3.8,10.5-10.5,18.6-20,24.2c-9.5,5.7-20.9,8.5-34.3,8.5
			c-9.8,0-18.6-1.4-26.4-4.2c-7.8-2.8-14.1-6.5-19-11.1c-4.9-4.7-9.4-11.5-13.5-20.4h15.9c4.3,7.5,9.9,13.1,16.8,16.8
			c6.9,3.6,15.4,5.5,25.5,5.5c10,0,18.5-1.9,25.3-5.6c6.9-3.7,11.8-8.4,14.7-14.1c2.9-5.6,4.4-14.7,4.4-27.3v-5.9
			c-5.5,7-12.3,12.4-20.3,16.1c-8,3.7-16.4,5.6-25.4,5.6c-10.5,0-20.4-2.6-29.6-7.8c-9.2-5.2-16.4-12.2-21.4-21
			c-5-8.8-7.6-18.5-7.6-29c0-10.6,2.6-20.4,7.9-29.5c5.2-9.1,12.5-16.3,21.8-21.6c9.3-5.3,19-8,29.3-8c8.5,0,16.5,1.8,23.9,5.3
			c7.4,3.5,14.5,9.3,21.4,17.5V543.9z M1596.1,555.1c-8.3,0-16,2-23.2,6c-7.1,4-12.7,9.6-16.8,16.7c-4.1,7.1-6.1,14.8-6.1,23
			c0,12.5,4.2,22.9,12.6,31c8.4,8.2,19.3,12.3,32.6,12.3c13.5,0,24.3-4.1,32.5-12.2c8.2-8.1,12.3-18.8,12.3-32
			c0-8.6-1.9-16.3-5.7-23c-3.8-6.7-9.1-12.1-16-16C1611.5,557.1,1604,555.1,1596.1,555.1z"/>
		<path class="st1" d="M562.1,720.3l-6.6,6.3c-4.5-4.7-9.5-7.1-15.1-7.1c-4.7,0-8.7,1.6-11.9,4.8c-3.2,3.2-4.8,7.2-4.8,11.9
			c0,3.3,0.7,6.2,2.1,8.8c1.4,2.6,3.5,4.6,6.1,6c2.6,1.5,5.5,2.2,8.7,2.2c2.7,0,5.2-0.5,7.5-1.5c2.3-1,4.7-2.9,7.4-5.6l6.4,6.6
			c-3.6,3.6-7.1,6-10.3,7.4c-3.2,1.4-6.9,2.1-11.1,2.1c-7.7,0-13.9-2.4-18.8-7.3c-4.9-4.9-7.3-11.1-7.3-18.7c0-4.9,1.1-9.3,3.3-13.1
			c2.2-3.8,5.4-6.9,9.6-9.2c4.1-2.3,8.6-3.5,13.4-3.5c4.1,0,8,0.9,11.8,2.6C556.1,714.7,559.4,717.2,562.1,720.3z"/>
		<path class="st1" d="M627.7,723.6c3.4,0,6.7,0.9,9.7,2.6c3,1.7,5.4,4.1,7.1,7c1.7,3,2.5,6.1,2.5,9.6c0,3.4-0.9,6.7-2.6,9.7
			c-1.7,3-4,5.3-7,7s-6.2,2.5-9.8,2.5c-5.2,0-9.7-1.9-13.4-5.6c-3.7-3.7-5.6-8.2-5.6-13.6c0-5.7,2.1-10.5,6.3-14.3
			C618.7,725.2,622.9,723.6,627.7,723.6z M627.8,732.2c-2.8,0-5.2,1-7.1,3c-1.9,2-2.8,4.5-2.8,7.6c0,3.2,0.9,5.7,2.8,7.7
			c1.9,2,4.2,3,7.1,3c2.9,0,5.3-1,7.2-3c1.9-2,2.9-4.6,2.9-7.7c0-3.1-0.9-5.7-2.8-7.6C633.1,733.2,630.7,732.2,627.8,732.2z"/>
		<path class="st1" d="M695.7,724.5h9.2v4.2c1.6-1.7,3.3-3,5.2-3.9c1.9-0.8,4-1.3,6.3-1.3c2.3,0,4.3,0.6,6.2,1.7
			c1.8,1.1,3.3,2.8,4.4,4.9c1.5-2.1,3.2-3.8,5.4-4.9c2.1-1.1,4.4-1.7,6.9-1.7c2.6,0,4.9,0.6,6.8,1.8c2,1.2,3.4,2.8,4.2,4.7
			c0.9,1.9,1.3,5.1,1.3,9.5V761h-9.2v-18.5c0-4.1-0.5-6.9-1.5-8.4c-1-1.5-2.6-2.2-4.6-2.2c-1.6,0-3,0.4-4.2,1.3s-2.2,2.1-2.8,3.7
			c-0.6,1.6-0.9,4.1-0.9,7.6V761h-9.2v-17.7c0-3.3-0.2-5.6-0.7-7.1c-0.5-1.5-1.2-2.6-2.2-3.3c-1-0.7-2.1-1.1-3.5-1.1
			c-1.5,0-2.9,0.5-4.2,1.4c-1.2,0.9-2.2,2.2-2.8,3.8c-0.6,1.6-0.9,4.2-0.9,7.7V761h-9.2V724.5z"/>
		<path class="st1" d="M810.6,724.5v4c1.7-1.7,3.4-2.9,5.4-3.7c1.9-0.8,4-1.2,6.2-1.2c4.8,0,8.8,1.8,12.1,5.4c3.3,3.6,5,8.2,5,13.9
			c0,5.4-1.7,10-5.2,13.6c-3.4,3.7-7.5,5.5-12.2,5.5c-2.1,0-4.1-0.4-5.9-1.1c-1.8-0.7-3.6-2-5.4-3.7v17.2h-9.1v-49.8H810.6z
			 M820.2,732c-2.9,0-5.3,1-7.2,3c-1.9,2-2.9,4.5-2.9,7.7c0,3.2,1,5.9,2.9,7.9s4.3,3,7.2,3c2.8,0,5.1-1,7.1-3.1
			c1.9-2,2.9-4.6,2.9-7.8c0-3.1-0.9-5.7-2.8-7.7C825.5,733,823.1,732,820.2,732z"/>
		<path class="st1" d="M915,724.5h9.2V761H915v-3.9c-1.8,1.7-3.6,2.9-5.4,3.7c-1.8,0.7-3.7,1.1-5.8,1.1c-4.7,0-8.8-1.8-12.2-5.5
			c-3.4-3.7-5.2-8.2-5.2-13.6c0-5.6,1.7-10.3,5-13.9c3.3-3.6,7.4-5.4,12.1-5.4c2.2,0,4.2,0.4,6.2,1.2c1.9,0.8,3.7,2.1,5.3,3.7V724.5
			z M905.4,732c-2.8,0-5.2,1-7.1,3c-1.9,2-2.8,4.6-2.8,7.7c0,3.2,1,5.7,2.9,7.8c1.9,2,4.2,3.1,7,3.1c2.9,0,5.3-1,7.2-3
			c1.9-2,2.8-4.6,2.8-7.9c0-3.2-0.9-5.7-2.8-7.7C910.7,733,908.3,732,905.4,732z"/>
		<path class="st1" d="M974.6,724.5h9.2v3.7c2.1-1.8,4-3,5.6-3.7c1.7-0.7,3.4-1,5.2-1c3.6,0,6.7,1.3,9.2,3.8
			c2.1,2.1,3.2,5.3,3.2,9.5V761H998v-16c0-4.4-0.2-7.2-0.6-8.7c-0.4-1.4-1.1-2.5-2-3.3c-1-0.7-2.2-1.1-3.6-1.1
			c-1.9,0-3.4,0.6-4.8,1.9c-1.3,1.2-2.2,3-2.8,5.1c-0.3,1.1-0.4,3.6-0.4,7.4V761h-9.2V724.5z"/>
		<path class="st1" d="M1053,724.5h9.4l9.5,22.9l10.5-22.9h9.4l-22.9,49.8h-9.5l7.5-16.1L1053,724.5z"/>
		<path class="st1" d="M1199.6,711.7h9.4V752h13.7v9h-23.1V711.7z"/>
		<path class="st1" d="M1273.6,709.5c1.6,0,3,0.6,4.1,1.7c1.1,1.2,1.7,2.6,1.7,4.2c0,1.6-0.6,3-1.7,4.2c-1.1,1.2-2.5,1.7-4.1,1.7
			c-1.6,0-3-0.6-4.2-1.8c-1.1-1.2-1.7-2.6-1.7-4.3c0-1.6,0.6-3,1.7-4.1C1270.6,710,1272,709.5,1273.6,709.5z M1269,724.5h9.2V761
			h-9.2V724.5z"/>
		<path class="st1" d="M1327.6,724.5h9.2v4.2c1.6-1.7,3.3-3,5.2-3.9c1.9-0.8,4-1.3,6.3-1.3c2.3,0,4.3,0.6,6.2,1.7
			c1.8,1.1,3.3,2.8,4.4,4.9c1.5-2.1,3.2-3.8,5.4-4.9c2.1-1.1,4.4-1.7,6.9-1.7c2.6,0,4.9,0.6,6.8,1.8c2,1.2,3.4,2.8,4.2,4.7
			c0.9,1.9,1.3,5.1,1.3,9.5V761h-9.2v-18.5c0-4.1-0.5-6.9-1.5-8.4c-1-1.5-2.6-2.2-4.6-2.2c-1.6,0-3,0.4-4.2,1.3
			c-1.2,0.9-2.2,2.1-2.8,3.7c-0.6,1.6-0.9,4.1-0.9,7.6V761h-9.2v-17.7c0-3.3-0.2-5.6-0.7-7.1s-1.2-2.6-2.2-3.3
			c-1-0.7-2.1-1.1-3.5-1.1c-1.5,0-2.9,0.5-4.2,1.4c-1.2,0.9-2.2,2.2-2.8,3.8c-0.6,1.6-0.9,4.2-0.9,7.7V761h-9.2V724.5z"/>
		<path class="st1" d="M1437.1,709.5c1.6,0,3,0.6,4.1,1.7c1.1,1.2,1.7,2.6,1.7,4.2c0,1.6-0.6,3-1.7,4.2c-1.1,1.2-2.5,1.7-4.1,1.7
			c-1.6,0-3-0.6-4.2-1.8c-1.1-1.2-1.7-2.6-1.7-4.3c0-1.6,0.6-3,1.7-4.1C1434.1,710,1435.5,709.5,1437.1,709.5z M1432.5,724.5h9.2
			V761h-9.2V724.5z"/>
		<path class="st1" d="M1492.3,711.1h9.2v13.5h5.4v7.9h-5.4V761h-9.2v-28.6h-4.7v-7.9h4.7V711.1z"/>
		<path class="st1" d="M1589.6,745.4h-29.4c0.4,2.6,1.6,4.7,3.4,6.2c1.8,1.5,4.2,2.3,7.1,2.3c3.4,0,6.4-1.2,8.8-3.6l7.7,3.6
			c-1.9,2.7-4.2,4.7-6.9,6.1c-2.7,1.3-5.9,2-9.6,2c-5.7,0-10.4-1.8-14-5.4c-3.6-3.6-5.4-8.1-5.4-13.6c0-5.6,1.8-10.2,5.4-13.9
			c3.6-3.7,8.1-5.5,13.5-5.5c5.7,0,10.4,1.8,14,5.5c3.6,3.7,5.4,8.5,5.4,14.6L1589.6,745.4z M1580.4,738.2c-0.6-2-1.8-3.7-3.6-5
			c-1.8-1.3-3.8-1.9-6.2-1.9c-2.6,0-4.8,0.7-6.7,2.1c-1.2,0.9-2.3,2.5-3.4,4.7H1580.4z"/>
		<path class="st1" d="M1665.1,710.4h9.2V761h-9.2v-3.9c-1.8,1.7-3.6,2.9-5.4,3.7c-1.8,0.7-3.7,1.1-5.8,1.1c-4.7,0-8.8-1.8-12.2-5.5
			c-3.4-3.7-5.2-8.2-5.2-13.6c0-5.6,1.7-10.3,5-13.9c3.3-3.6,7.4-5.4,12.1-5.4c2.2,0,4.2,0.4,6.2,1.2c1.9,0.8,3.7,2.1,5.3,3.7V710.4
			z M1655.5,732c-2.8,0-5.2,1-7.1,3c-1.9,2-2.8,4.6-2.8,7.7c0,3.2,1,5.7,2.9,7.8c1.9,2,4.3,3.1,7,3.1c2.9,0,5.3-1,7.2-3
			c1.9-2,2.8-4.6,2.8-7.9c0-3.2-0.9-5.7-2.8-7.7C1660.8,733,1658.4,732,1655.5,732z"/>
	</g>
	<g>
		<polygon class="st2" points="299.3,412.3 125.7,519.7 125.7,726.3 224.9,787.7 283.3,751.6 299.3,761.7 472.8,651.9 472.8,519.7 
			299.3,412.3 		"/>
		<g>
			<polygon class="st3" points="317.3,645.5 373.8,610.6 373.8,680.7 			"/>
		</g>
		<polygon class="st3" points="299.3,753.2 221.3,706.6 221.3,777.1 132.9,722.3 132.9,528.4 299.3,631.4 299.3,652.4 221.3,604.2 
			221.3,687 299.3,735.2 		"/>
		<polygon class="st3" points="228.5,683 299.3,726.8 367,684.8 313.9,651.7 299.3,660.8 281.8,650 		"/>
		<polygon class="st3" points="299.3,420.7 462.5,521.9 299.3,622.9 135.9,521.8 		"/>
	</g>
</g>
</svg>
