<?xml version="1.0" encoding="utf-8"?>
<!-- Generator: Adobe Illustrator 19.1.0, SVG Export Plug-In . SVG Version: 6.00 Build 0)  -->
<svg version="1.1" id="Layer_1" xmlns="http://www.w3.org/2000/svg" xmlns:xlink="http://www.w3.org/1999/xlink" x="0px" y="0px"
	 viewBox="-365 54.4 48.8 113.6" style="enable-background:new -365 54.4 48.8 113.6;" xml:space="preserve">
<style type="text/css">
	.st0{fill:#FFFFFF;}
	.st1{opacity:0.9;fill:#FFFFFF;enable-background:new    ;}
</style>
<g id="Layer_6">
	<circle class="st0" cx="-357.8" cy="56" r="1.6"/>
	
		<rect x="-362.6" y="65" transform="matrix(-0.583 -0.8125 0.8125 -0.583 -608.7235 -181.3647)" class="st1" width="23.4" height="1"/>
	
		<rect x="-344.6" y="77.2" transform="matrix(-0.9279 -0.3729 0.3729 -0.9279 -679.5562 23.9824)" class="st1" width="14.3" height="1"/>
	
		<rect x="-337" y="90.7" transform="matrix(-0.5145 -0.8575 0.8575 -0.5145 -569.4478 -140.0383)" class="st1" width="25.3" height="1"/>
	
		<rect x="-331.5" y="93.1" transform="matrix(-0.3759 -0.9267 0.9267 -0.3759 -554.9575 -159.0565)" class="st1" width="1" height="28.4"/>
	
		<rect x="-354.3" y="109.6" transform="matrix(-0.8104 -0.5858 0.5858 -0.8104 -714.3732 20.8678)" class="st1" width="1" height="32.9"/>
	
		<rect x="-364.1" y="143" transform="matrix(-0.947 -0.3211 0.3211 -0.947 -729.6752 166.6526)" class="st1" width="26" height="1"/>
	
		<rect x="-342.4" y="156.5" transform="matrix(-0.7468 -0.665 0.665 -0.7468 -677.9431 55.878)" class="st1" width="28.1" height="1"/>
	<circle class="st0" cx="-344.1" cy="75" r="1.6"/>
	<circle class="st0" cx="-330.8" cy="80.3" r="1.6"/>
	<circle class="st0" cx="-317.8" cy="102" r="1.6"/>
	<circle class="st0" cx="-344.1" cy="112.7" r="1.6"/>
	<circle class="st0" cx="-363.4" cy="139.3" r="1.6"/>
	<circle class="st0" cx="-338.8" cy="147.7" r="1.6"/>
	<circle class="st0" cx="-317.8" cy="166.3" r="1.6"/>
</g>
</svg>
