<?xml version="1.0" encoding="utf-8"?>
<!-- Generator: Adobe Illustrator 19.1.0, SVG Export Plug-In . SVG Version: 6.00 Build 0)  -->
<svg version="1.1" id="Layer_1" xmlns="http://www.w3.org/2000/svg" xmlns:xlink="http://www.w3.org/1999/xlink" x="0px" y="0px"
	 viewBox="0 0 1800 1200" style="enable-background:new 0 0 1800 1200;" xml:space="preserve">
<style type="text/css">
	.st0{fill:#F26831;}
	.st1{fill:#FFFFFF;}
	.st2{fill:#0571A9;}
</style>
<g>
	<g>
		<path class="st0" d="M1595,397.5c-114.2-119.7-303.8-121.4-420.1-5.1c-94.3,94.3-111,236.9-50.1,348.3c1.2,2.1,2.1,4.3,2.7,6.6
			c1.2,4.4,1.3,9.1,0.7,13.6l-9.1,69.1c0,18.4,14.9,33.3,33.3,33.3l70.7-9.2c6.4-0.8,12.9,0.4,18.6,3.5l0.1,0.1
			c110.2,60.2,250.9,44.5,345.3-47.1C1701.8,699,1705.5,513.4,1595,397.5z"/>
	</g>
	<g>
		<path class="st1" d="M1437.3,510.9c-22.8,0-40.6,4.7-54.2,14.4c-13.5,9.6-20.4,25-20.6,25.6c-4.9,10.6-1.9,20.2,7.8,24.9
			c2.8,1.4,5.7,2.1,8.5,2.1c6.8,0,12.8-4.2,16.7-11.9c0-0.1,3.4-6.9,8.4-11.9c7.7-7.7,18-10.8,35.8-10.8c23.5,0,39.3,9.8,39.3,24.4
			v11.6c0,6.6-4.3,10.9-11.5,11.4l-54.8,5c-13.5,1.2-57.4,8.6-57.4,54.8c0,34.5,27.1,58.7,65.9,58.7c25.1,0,45.9-6.9,58-19.1
			c1.4,9.4,7.8,15.3,17.3,15.4l0.5,0c10.8,0,17.7-7.5,18.2-19.5V580.7C1515.1,535.1,1488.2,510.9,1437.3,510.9z M1478.9,629.8
			c0,24.2-24.5,45.5-52.4,45.5c-25.9,0-35.1-12.8-35.1-24.8c0-9.8,7.1-22.1,27.1-24.4l60.4-7.3V629.8z"/>
		<path class="st1" d="M1565.6,510.9l-0.4,0c-10,0-16.5,6.9-16.9,18.1c-0.1,2.1,0,149.3,0.1,162.3c0.1,10.9,6.3,17.8,16.3,18l0.4,0
			c10,0,16.5-6.9,16.9-18.1c0.1-2.1,0-149.3-0.1-162.3C1581.9,518,1575.6,511.1,1565.6,510.9z"/>
		<path class="st1" d="M1564.5,490.4l0.5,0c11.9,0,19.7-8.3,20.2-21.9c-0.1-13-7.6-21.2-19.5-21.4l-0.5,0
			c-11.9,0-19.7,8.3-20.2,21.9C1545.1,481.9,1552.6,490.1,1564.5,490.4z"/>
		<path class="st2" d="M215.5,694.8c-3.5,8.9-7,13.6-15.5,13.6c-8.6,0-12.8-4.7-15.9-13.2l-58.3-161.7c-3.9-10.5,1.2-18.3,9.3-21.8
			c7.8-3.1,17.9-1.9,21.8,8.9l42.4,122.8L247,523.1c3.5-8.6,9.3-12.8,15.5-12.8s12.1,4.3,15.6,12.8l47.8,120.5l42.4-122.8
			c3.9-10.9,14-12,21.8-8.9c8.2,3.5,13.2,11.3,9.3,21.8l-58.3,161.7c-3.1,8.5-7.4,13.2-15.9,13.2c-6.2,0-12.1-4.7-15.6-13.6
			l-47-120.1L215.5,694.8z"/>
		<path class="st2" d="M417.7,609.4c0-54.8,36.1-103,98.7-103c62.6,0,98.7,48.2,98.7,103c0,55.2-36.1,103-98.7,103
			C453.9,712.3,417.7,664.5,417.7,609.4z M581.3,609.4c0-39.6-24.1-70.3-64.9-70.3c-40.8,0-64.9,30.7-64.9,70.3
			c0,39.6,24.1,70.7,64.9,70.7C557.2,680.1,581.3,649,581.3,609.4z"/>
		<path class="st2" d="M741.4,506.4c0,0-0.1,0-0.1,0h-4c0,0-0.1,0-0.1,0c-47.8,0-85.5,36.1-85.5,82v103c0,11.3,8.6,17.1,17.1,17.1
			c8.5,0,16.7-5.8,16.7-17.1V587.2c0-26,21-48.2,51.7-48.2c0,0,0.1,0,0.1,0h4c0,0,0.1,0,0.1,0c30.7,0,51.7,22.1,51.7,48.2v104.1
			c0,11.3,8.2,17.1,16.7,17.1c8.5,0,17.1-5.8,17.1-17.1v-103C826.9,542.5,789.2,506.4,741.4,506.4z"/>
		<path class="st2" d="M1053,600.8c0,4.2,0,86.6,0,86.6c0,54.8-35,102.2-97.5,102.2c-32.6,0-57.9-8.6-76.2-29.5
			c-7.4-8.6-4.7-17.9,1.9-23.3c6.2-5.8,15.9-6.2,23.7,1.6c9.7,9.7,24.1,19.4,50.5,19.4c40,0,63.7-29.9,63.7-68.4v-1.2
			c-15.9,15.2-37.3,24.1-63.7,24.1c-60.6,0-95.6-47.8-95.6-103c0-54.8,35-103,95.6-103C1018.4,506.4,1053,555.7,1053,600.8z
			 M1019.2,609.4c0-39.6-19.8-70.3-60.6-70.3c-40.8,0-64.9,30.7-64.9,70.3c0,39.6,24.1,70.7,64.9,70.7
			C999.4,680.1,1019.2,649,1019.2,609.4z"/>
		<path class="st1" d="M1243.5,506.4c0,0-0.1,0-0.1,0h-4c0,0-0.1,0-0.1,0c-47.8,0-85.5,36.1-85.5,82v103c0,11.3,8.6,17.1,17.1,17.1
			c8.5,0,16.7-5.8,16.7-17.1V587.2c0-26,21-48.2,51.7-48.2c0,0,0.1,0,0.1,0h4c0,0,0.1,0,0.1,0c30.7,0,51.7,22.1,51.7,48.2v104.1
			c0,11.3,8.2,17.1,16.7,17.1c8.5,0,17.1-5.8,17.1-17.1v-103C1329,542.5,1291.3,506.4,1243.5,506.4z"/>
	</g>
</g>
</svg>
